<?xml version="1.0" encoding="utf-8"?>
<!-- Generator: Adobe Illustrator 28.2.0, SVG Export Plug-In . SVG Version: 6.00 Build 0)  -->
<svg version="1.1" xmlns="http://www.w3.org/2000/svg" xmlns:xlink="http://www.w3.org/1999/xlink" x="0px" y="0px"
	 viewBox="0 0 1000 1000" style="enable-background:new 0 0 1000 1000;" xml:space="preserve">
<style type="text/css">
	.st0{fill:#DDE78B;}
	.st1{fill:#D76B27;}
	.st2{fill:#BFA8D1;}
	.st3{fill:#2A4B24;}
	.st4{fill:#C9B9D9;}
	.st5{fill:#FFFFFF;stroke:#2A4B24;stroke-width:8;stroke-linecap:round;stroke-linejoin:round;stroke-miterlimit:10;}
	.st6{fill:#FFFFFF;}
	.st7{fill:#FFFFFF;stroke:#C9B9D9;stroke-width:5;stroke-linecap:round;stroke-linejoin:round;stroke-miterlimit:10;}
	.st8{fill:none;stroke:#D76B27;stroke-width:5;stroke-linecap:round;stroke-linejoin:round;stroke-miterlimit:10;}
	.st9{fill:none;stroke:#2A4B24;stroke-width:8;stroke-linecap:round;stroke-linejoin:round;stroke-miterlimit:10;}
	.st10{fill:#BA5327;}
	.st11{fill:none;}
	.st12{fill:#C9B9D9;stroke:#DDE78B;stroke-width:5;stroke-miterlimit:10;}
	.st13{fill:#C1CFDA;}
	.st14{fill:none;stroke:#DDE78B;stroke-width:5;stroke-miterlimit:10;}
	.st15{fill:#2A4B24;stroke:#FFFFFF;stroke-width:3;stroke-miterlimit:10;}
	.st16{fill:#F2F2F2;}
	.st17{fill:none;stroke:#2A4B24;stroke-width:5;stroke-linecap:round;stroke-linejoin:round;}
	.st18{fill:none;stroke:#2A4B24;stroke-width:5;stroke-linecap:round;stroke-linejoin:round;stroke-dasharray:32.5624,32.5624;}
	.st19{fill:#DDE78B;stroke:#2A4B24;stroke-width:8;stroke-linecap:round;stroke-linejoin:round;stroke-miterlimit:10;}
	.st20{fill:none;stroke:#C9B9D9;stroke-width:8;stroke-linecap:round;stroke-linejoin:round;stroke-miterlimit:10;}
	.st21{fill:none;stroke:#D76B27;stroke-width:10;stroke-linecap:round;stroke-linejoin:round;stroke-miterlimit:10;}
	.st22{fill:none;stroke:#000000;stroke-width:4;stroke-miterlimit:10;}
	.st23{fill:#DDE78B;stroke:#DDE78B;stroke-width:4;stroke-miterlimit:10;}
	.st24{fill:none;stroke:#D76B27;stroke-miterlimit:10;}
	.st25{fill:none;stroke:#D76B27;stroke-width:7;stroke-linecap:round;stroke-miterlimit:10;}
	.st26{fill:none;stroke:#2A4B24;stroke-width:7;stroke-linecap:round;stroke-linejoin:round;stroke-miterlimit:10;}
	.st27{fill:none;stroke:#C9B9D9;stroke-width:7;stroke-linecap:round;stroke-linejoin:round;stroke-miterlimit:10;}
	.st28{fill:#C9B9D9;stroke:#D76B27;stroke-width:8;stroke-miterlimit:10;}
	.st29{fill:#DDE78B;stroke:#D76B27;stroke-width:5;stroke-miterlimit:10;}
	.st30{fill:#DDE78B;stroke:#2A4B24;stroke-width:8;stroke-miterlimit:10;}
	.st31{fill:#D76C28;}
	.st32{fill:#D76D29;}
	.st33{fill:#D76D2A;}
	.st34{fill:#D86E2B;}
	.st35{fill:#D86F2C;}
	.st36{fill:#D8702D;}
	.st37{fill:#D8702E;}
	.st38{fill:#D8712F;}
	.st39{fill:#D97130;}
	.st40{fill:#D97231;}
	.st41{fill:#D97332;}
	.st42{fill:#D97433;}
	.st43{fill:#D97434;}
	.st44{fill:#D97535;}
	.st45{fill:#DA7536;}
	.st46{fill:#DA7636;}
	.st47{fill:#DA7637;}
	.st48{fill:#DA7738;}
	.st49{fill:#DA7839;}
	.st50{fill:#DA783A;}
	.st51{fill:#DB793B;}
	.st52{fill:#DB793C;}
	.st53{fill:#DB7A3C;}
	.st54{fill:#DB7B3D;}
	.st55{fill:#DB7B3E;}
	.st56{fill:#DB7C3F;}
	.st57{fill:#DB7C40;}
	.st58{fill:#DC7D41;}
	.st59{fill:#DC7E42;}
	.st60{fill:#DC7F43;}
	.st61{fill:#DC7F44;}
	.st62{fill:#DC8045;}
	.st63{fill:#DD8046;}
	.st64{fill:#DD8147;}
	.st65{fill:#DD8248;}
	.st66{fill:#DD8349;}
	.st67{fill:#DD834A;}
	.st68{fill:#DE844B;}
	.st69{fill:#DE844C;}
	.st70{fill:#DE854C;}
	.st71{fill:#DE864D;}
	.st72{fill:#DE864E;}
	.st73{fill:#DE874F;}
	.st74{fill:#DE8750;}
	.st75{fill:#DF8851;}
	.st76{fill:#DF8852;}
	.st77{fill:#DF8952;}
	.st78{fill:#DF8A53;}
	.st79{fill:#DF8A54;}
	.st80{fill:#DF8B55;}
	.st81{fill:#E08B56;}
	.st82{fill:#E08C57;}
	.st83{fill:#E08D58;}
	.st84{fill:#E08E59;}
	.st85{fill:#E08E5A;}
	.st86{fill:#E18F5B;}
	.st87{fill:#E18F5C;}
	.st88{fill:#E1905D;}
	.st89{fill:#E1915E;}
	.st90{fill:#E1925F;}
	.st91{fill:#E19260;}
	.st92{fill:#E29361;}
	.st93{fill:#E29362;}
	.st94{fill:#E29462;}
	.st95{fill:#E29563;}
	.st96{fill:#E29564;}
	.st97{fill:#E29665;}
	.st98{fill:#E39666;}
	.st99{fill:#E39767;}
	.st100{fill:#E39768;}
	.st101{fill:#E39868;}
	.st102{fill:#E39969;}
	.st103{fill:#E3996A;}
	.st104{fill:#E49A6B;}
	.st105{fill:#E49A6C;}
	.st106{fill:#E49B6D;}
	.st107{fill:#E49C6E;}
	.st108{fill:#E49D6F;}
	.st109{fill:#E49D70;}
	.st110{fill:#E59E71;}
	.st111{fill:#E59E72;}
	.st112{fill:#E59F73;}
	.st113{fill:#E5A073;}
	.st114{fill:#E5A074;}
	.st115{fill:#E5A175;}
	.st116{fill:#E6A176;}
	.st117{fill:#E6A277;}
	.st118{fill:#E6A278;}
	.st119{fill:#E6A378;}
	.st120{fill:#E6A479;}
	.st121{fill:#E6A47A;}
	.st122{fill:#E6A57B;}
	.st123{fill:#E7A57C;}
	.st124{fill:#E7A67D;}
	.st125{fill:#E7A67E;}
	.st126{fill:#E7A77E;}
	.st127{fill:#E7A87F;}
	.st128{fill:#E7A880;}
	.st129{fill:#E8A981;}
	.st130{fill:#E8A982;}
	.st131{fill:#E8AA83;}
	.st132{fill:#E8AB83;}
	.st133{fill:#E8AB84;}
	.st134{fill:#E8AC85;}
	.st135{fill:#E9AC86;}
	.st136{fill:#E9AD87;}
	.st137{fill:#E9AD88;}
	.st138{fill:#E9AE89;}
	.st139{fill:#E9AF89;}
	.st140{fill:#E9AF8A;}
	.st141{fill:#E9B08B;}
	.st142{fill:#EAB08C;}
	.st143{fill:#EAB18D;}
	.st144{fill:#EAB18E;}
	.st145{fill:#EAB28E;}
	.st146{fill:#EAB38F;}
	.st147{fill:#EAB390;}
	.st148{fill:#EBB491;}
	.st149{fill:#EBB492;}
	.st150{fill:#EBB593;}
	.st151{fill:#EBB694;}
	.st152{fill:#EBB795;}
	.st153{fill:#ECB796;}
	.st154{fill:#ECB897;}
	.st155{fill:#ECB898;}
	.st156{fill:#ECB999;}
	.st157{fill:#ECBA99;}
	.st158{fill:#ECBA9A;}
	.st159{fill:#ECBB9B;}
	.st160{fill:#EDBB9C;}
	.st161{fill:#EDBC9D;}
	.st162{fill:#EDBC9E;}
	.st163{fill:#EDBD9F;}
	.st164{fill:#EDBE9F;}
	.st165{fill:#EDBEA0;}
	.st166{fill:#EEBFA1;}
	.st167{fill:#EEBFA2;}
	.st168{fill:#EEC0A3;}
	.st169{fill:#EEC1A4;}
	.st170{fill:#EEC2A5;}
	.st171{fill:#EFC2A6;}
	.st172{fill:#EFC3A7;}
	.st173{fill:#EFC3A8;}
	.st174{fill:#EFC4A9;}
	.st175{fill:#EFC5AA;}
	.st176{fill:#EFC6AB;}
	.st177{fill:#F0C6AC;}
	.st178{fill:#F0C7AD;}
	.st179{fill:#F0C7AE;}
	.st180{fill:#F0C8AF;}
	.st181{fill:#F0C9AF;}
	.st182{fill:#F0C9B0;}
	.st183{fill:#F1CAB1;}
	.st184{fill:#F1CAB2;}
	.st185{fill:#F1CBB3;}
	.st186{fill:#F1CCB4;}
	.st187{fill:#F1CCB5;}
	.st188{fill:#F1CDB5;}
	.st189{fill:#F1CDB6;}
	.st190{fill:#F2CEB7;}
	.st191{fill:#F2CEB8;}
	.st192{fill:#F2CFB9;}
	.st193{fill:#F2D0BA;}
	.st194{fill:#F2D1BB;}
	.st195{fill:#F3D1BC;}
	.st196{fill:#F3D2BD;}
	.st197{fill:#F3D2BE;}
	.st198{fill:#F3D3BF;}
	.st199{fill:#F3D4C0;}
	.st200{fill:#F4D5C1;}
	.st201{fill:#F4D5C2;}
	.st202{fill:#F4D6C3;}
	.st203{fill:#F4D6C4;}
	.st204{fill:#F4D7C5;}
	.st205{fill:#F4D8C5;}
	.st206{fill:#F4D8C6;}
	.st207{fill:#F5D9C7;}
	.st208{fill:#F5D9C8;}
	.st209{fill:#F5DAC9;}
	.st210{fill:#F5DBCA;}
	.st211{fill:#F5DBCB;}
	.st212{fill:#F5DCCB;}
	.st213{fill:#F6DCCC;}
	.st214{fill:#F6DDCD;}
	.st215{fill:#F6DDCE;}
	.st216{fill:#F6DECF;}
	.st217{fill:#F6DFD0;}
	.st218{fill:#F7E0D1;}
	.st219{fill:#F7E0D2;}
	.st220{fill:#F7E1D3;}
	.st221{fill:#F7E1D4;}
	.st222{fill:#F7E2D5;}
	.st223{fill:#F7E3D6;}
	.st224{fill:#F8E4D7;}
	.st225{fill:#F8E4D8;}
	.st226{fill:#F8E5D9;}
	.st227{fill:#F8E6DA;}
	.st228{fill:#F8E6DB;}
	.st229{fill:#F8E7DB;}
	.st230{fill:#F9E7DC;}
	.st231{fill:#F9E8DD;}
	.st232{fill:#F9E8DE;}
	.st233{fill:#F9E9DF;}
	.st234{fill:#F9EAE0;}
	.st235{fill:#F9EAE1;}
	.st236{fill:#F9EBE1;}
	.st237{fill:#FAEBE2;}
	.st238{fill:#FAECE3;}
	.st239{fill:#FAECE4;}
	.st240{fill:#FAEDE5;}
	.st241{fill:#FAEEE6;}
	.st242{fill:#FBEFE7;}
	.st243{fill:#FBEFE8;}
	.st244{fill:#FBF0E9;}
	.st245{fill:#FBF1EA;}
	.st246{fill:#FBF1EB;}
	.st247{fill:#FBF2EC;}
	.st248{fill:#FCF2EC;}
	.st249{fill:#FCF3ED;}
	.st250{fill:#FCF3EE;}
	.st251{fill:#FCF4EF;}
	.st252{fill:#FCF5F0;}
	.st253{fill:#FCF5F1;}
	.st254{fill:#FCF6F1;}
	.st255{fill:#FDF6F2;}
	.st256{fill:#FDF7F3;}
	.st257{fill:#FDF7F4;}
	.st258{fill:#FDF8F5;}
	.st259{fill:#FDF9F6;}
	.st260{fill:#FDF9F7;}
	.st261{fill:#FEFAF7;}
	.st262{fill:#FEFAF8;}
	.st263{fill:#FEFBF9;}
	.st264{fill:#FEFCFA;}
	.st265{fill:#FEFCFB;}
	.st266{fill:#FEFDFC;}
	.st267{fill:#FFFDFC;}
	.st268{fill:#FFFEFD;}
	.st269{fill:#FFFEFE;}
	.st270{fill:none;stroke:#FFFFFF;stroke-width:8;stroke-linecap:round;stroke-linejoin:round;stroke-miterlimit:10;}
	.st271{fill:#FFFFFF;stroke:#D76B27;stroke-width:5;stroke-linecap:round;stroke-linejoin:round;stroke-miterlimit:10;}
	.st272{opacity:0.11;fill:#808080;}
	.st273{fill:#C9B9D9;stroke:#D76B27;stroke-width:5;stroke-linecap:round;stroke-linejoin:round;stroke-miterlimit:10;}
	.st274{fill:#FFFFFF;stroke:#D76B27;stroke-width:3;stroke-linecap:round;stroke-linejoin:round;stroke-miterlimit:10;}
	.st275{fill:none;stroke:#C9B9D9;stroke-width:3;stroke-linecap:round;stroke-miterlimit:10;}
	.st276{fill:#DC7E43;}
	.st277{fill:#1A1A1A;}
	.st278{opacity:0.48;fill:#DDE78B;}
	.st279{opacity:0.11;}
	.st280{fill:#808080;}
	.st281{fill:none;stroke:#000000;stroke-width:8;stroke-linecap:round;stroke-miterlimit:10;}
</style>
<g id="Layer_1">
	<g>
		<g>
			<path class="st6" d="M714.05,268.53c-4.76,0.99-9.51,1.98-14.27,2.97c-79.33,16.45-158.79,32.28-238.12,48.73
				c-39.66,8.22-79.29,16.6-118.85,25.28c-9.05,1.99-93.58,34.05-93.35,34.39c18.18,25.74,30.46,55.7,42.45,84.58
				c13.31,32.09,26.04,64.43,38.17,96.99c24.25,65.12,46.11,131.13,65.52,197.85c4.63,15.91,9.89,33.02,23.17,42.94
				c13.54,10.11,31.88,10.1,48.75,9.21c95.65-5.04,191.26-24.73,277.92-65.52c8.87-4.18,17.92-8.78,24.14-16.36
				c13.15-16.02,9.76-39.45,5.78-59.79C749.41,536.94,728.95,403.04,714.05,268.53z"/>
			<path class="st1" d="M455.77,817.93c-14.18,0-28.86-1.95-40.68-10.78c-15.28-11.42-20.88-30.66-25.38-46.13
				c-19.28-66.27-41.27-132.69-65.38-197.42c-12.04-32.33-24.85-64.89-38.08-96.78l-0.67-1.61c-11.64-28.06-23.68-57.08-41.12-81.79
				c-1.18-1.67-1.45-3.82-0.71-5.73c1.19-3.07,1.19-3.07,46.92-20.16c20.26-7.57,45.52-16.83,50.81-17.99
				c35.82-7.86,73.6-15.9,118.92-25.3c39.5-8.19,79.68-16.36,118.54-24.25c39.21-7.97,79.75-16.21,119.58-24.47l14.27-2.97
				c1.69-0.35,3.44,0.03,4.84,1.04c1.39,1.01,2.3,2.56,2.49,4.28c14.83,133.8,35.43,268.63,61.23,400.75
				c4.29,21.98,7.64,46.93-7.06,64.84c-6.98,8.5-16.8,13.56-26.26,18.02c-81.47,38.35-175.74,60.59-280.2,66.09
				C463.9,817.76,459.86,817.93,455.77,817.93z M258.75,382.69c15.92,24.28,27.19,51.47,38.13,77.83l0.67,1.61
				c13.29,32.03,26.15,64.73,38.25,97.2c24.21,65.01,46.3,131.72,65.66,198.28c3.99,13.72,8.95,30.78,20.95,39.75
				c11.96,8.93,29.38,8.81,44.77,8c102.87-5.42,195.61-27.27,275.64-64.95c8.54-4.02,16.65-8.17,22.02-14.71
				c11.33-13.8,8.27-35.5,4.51-54.75c-25.43-130.25-45.83-263.13-60.63-395.07l-7.7,1.6c-39.86,8.27-80.41,16.51-119.63,24.48
				c-38.85,7.9-79.02,16.06-118.49,24.24c-45.27,9.39-83.02,17.42-118.78,25.27C337.68,352.89,279,374.79,258.75,382.69z"/>
		</g>
		<g>
			<path class="st3" d="M561.77,610.78l5.24,5.77c9.73,10.71,2.96,27.92-11.46,29.13l-7.77,0.65c-5.72,0.48-10.85,3.75-13.69,8.73
				l-3.87,6.77c-7.18,12.56-25.64,11.44-31.24-1.89l-3.02-7.18c-2.23-5.3-6.91-9.16-12.54-10.33l-7.63-1.59
				c-14.16-2.94-18.8-20.85-7.85-30.3l5.9-5.09c4.35-3.75,6.57-9.41,5.95-15.12l-0.85-7.75c-1.58-14.38,14.02-24.33,26.39-16.83
				l6.67,4.04c4.91,2.98,10.98,3.34,16.21,0.98l7.1-3.2c13.19-5.94,27.47,5.81,24.16,19.9l-1.78,7.59
				C556.38,600.65,557.9,606.53,561.77,610.78z"/>
		</g>
		<g>
			<path class="st3" d="M711.18,661.32l6.44,7.09c11.96,13.16,3.64,34.32-14.08,35.8l-9.54,0.8c-7.04,0.59-13.33,4.61-16.83,10.74
				l-4.75,8.32c-8.82,15.44-31.51,14.06-38.4-2.33l-3.71-8.83c-2.74-6.51-8.5-11.25-15.41-12.69l-9.38-1.95
				c-17.41-3.62-23.11-25.63-9.65-37.24l7.25-6.26c5.34-4.61,8.08-11.56,7.31-18.58l-1.04-9.52c-1.94-17.67,17.23-29.9,32.44-20.69
				l8.19,4.96c6.04,3.66,13.49,4.11,19.93,1.21l8.73-3.94c16.21-7.31,33.76,7.15,29.7,24.46l-2.19,9.32
				C704.56,648.86,706.43,656.09,711.18,661.32z"/>
		</g>
		<g>
			<path class="st3" d="M668.47,512.37l1.85,5.72c3.43,10.62-6.8,20.56-17.32,16.82l-5.66-2.01c-4.17-1.48-8.81-0.82-12.4,1.78
				l-4.87,3.52c-9.04,6.54-21.65-0.12-21.35-11.27l0.16-6.01c0.12-4.43-1.94-8.63-5.52-11.24l-4.86-3.54
				c-9.01-6.57-6.58-20.63,4.12-23.79l5.76-1.7c4.25-1.25,7.61-4.52,8.99-8.73l1.87-5.71c3.47-10.6,17.59-12.63,23.9-3.43l3.4,4.96
				c2.51,3.65,6.65,5.84,11.08,5.85l6.01,0.01c11.16,0.02,17.45,12.82,10.65,21.67l-3.66,4.76
				C667.9,503.54,667.1,508.15,668.47,512.37z"/>
		</g>
		<g>
			<path class="st3" d="M528.52,730.34l4.01,4.48c7.44,8.31,2.12,21.55-9,22.4l-5.99,0.46c-4.42,0.34-8.39,2.83-10.61,6.66
				l-3.02,5.2c-5.61,9.65-19.84,8.67-24.08-1.64l-2.29-5.56c-1.69-4.1-5.28-7.1-9.61-8.04l-5.87-1.27
				c-10.91-2.35-14.38-16.19-5.88-23.41l4.58-3.89c3.38-2.87,5.12-7.22,4.67-11.62l-0.61-5.98c-1.13-11.1,10.95-18.68,20.45-12.83
				l5.12,3.15c3.77,2.32,8.45,2.64,12.5,0.85l5.5-2.43c10.21-4.51,21.15,4.64,18.52,15.49l-1.42,5.84
				C524.42,722.5,525.56,727.04,528.52,730.34z"/>
		</g>
		<g>
			<path class="st3" d="M435,643.57l1.98,3.56c3.68,6.6-1.81,14.55-9.29,13.45l-4.03-0.59c-2.97-0.44-5.96,0.62-8,2.82l-2.77,2.98
				c-5.14,5.54-14.4,2.77-15.67-4.68l-0.68-4.01c-0.5-2.96-2.43-5.48-5.15-6.74l-3.69-1.71c-6.85-3.18-7.09-12.84-0.39-16.34
				l3.61-1.89c2.66-1.39,4.46-4,4.82-6.98l0.49-4.04c0.91-7.5,10.02-10.71,15.42-5.43l2.91,2.85c2.15,2.1,5.19,3,8.13,2.43
				l3.99-0.78c7.41-1.46,13.28,6.22,9.93,12.99l-1.81,3.65C433.47,637.78,433.54,640.95,435,643.57z"/>
		</g>
		<g>
			<path class="st3" d="M450.88,521.16l4.53,3.95c8.42,7.32,4.78,21.12-6.15,23.34l-5.89,1.2c-4.34,0.88-7.97,3.85-9.7,7.92
				l-2.35,5.53c-4.36,10.27-18.61,11.07-24.1,1.36l-2.96-5.23c-2.18-3.86-6.12-6.39-10.53-6.78l-5.99-0.53
				c-11.11-0.98-16.28-14.28-8.74-22.5l4.06-4.43c2.99-3.27,4.19-7.8,3.19-12.11l-1.35-5.86c-2.5-10.87,8.55-19.9,18.7-15.27
				l5.47,2.49c4.03,1.84,8.71,1.57,12.51-0.71l5.15-3.09c9.57-5.74,21.56,1.98,20.3,13.06l-0.68,5.97
				C445.84,513.88,447.54,518.25,450.88,521.16z"/>
		</g>
		<g class="st279">
			<path class="st280" d="M442.55,540.97c17.12,18.87,34.2,38.61,56.56,50.83c32.24,17.63,70.87,17.29,106.75,25.2
				c61.1,13.47,113.8,50.8,164.63,87.28c3.11,2.23,6.42,4.75,7.4,8.44c0.64,2.42,0.16,5.01-0.68,7.38
				c-7.65,21.46-31.72,19.01-47.95,29c-4.64,2.86-8.72,6.56-13.47,9.22c-2.72,1.52-5.62,2.69-8.51,3.85
				c-14.15,5.67-28.32,8.83-42.64,13.7c-4.99,1.7-9.77,3.96-14.71,5.8c-17.28,6.45-34.43,6.6-52.34,9.58
				c-18.72,3.12-36.95,8.54-55.2,13.64c-11.91,3.33-24.23,2.66-36.63,3.43c-14.31,0.88-28.63,1.76-42.94,2.65
				c-15.16,0.93-38.87,4.75-49.67-8.92c-2.52-3.19-3.58-7.28-4.37-11.28c-2.51-12.72-4.28-23.09-10.85-34.53
				c-5.73-9.97-12.69-19.59-15.19-31.02c-1.55-7.06-1.31-14.53-3.89-21.28c-1.87-4.89-5.11-9.11-7.72-13.64
				c-4.24-7.34-6.71-15.48-7.62-23.89c-0.81-7.49-2.95-12.26-5.58-19.26c-3.36-8.93-6.44-17.98-9.66-26.96
				c-2.54-7.08-9.18-18.16-9.18-25.61c-5.99-16.72-11.99-33.47-16.28-50.71c-4.91-19.74-7.68-40.38-17.15-58.38
				c-5.93-11.27-14.28-21.09-20.52-32.19c0-1.68-2.6-5-3.31-6.63c-1.02-2.34-1.93-4.74-2.64-7.2c-0.53-1.83-0.61-3.91-1.49-5.54
				c-1.23-2.26-3.92-4.38-5.63-6.31c-0.6-0.67-1.22-1.37-1.5-2.23c-0.39-1.18-0.1-2.46-0.27-3.69c-0.2-1.4-1.04-2.7-2.24-3.46
				c2.13-0.52,4.37-0.21,6.53,0.15c28.83,4.92,53.53,21.11,76.86,37.93C385.13,480.67,414.69,510.26,442.55,540.97z"/>
		</g>
		<g>
			<path class="st1" d="M455.77,817.93c-14.18,0-28.86-1.95-40.68-10.78c-15.28-11.42-20.88-30.66-25.38-46.13
				c-19.28-66.27-41.27-132.69-65.38-197.42c-12.04-32.33-24.85-64.89-38.08-96.78l-0.67-1.61c-11.64-28.06-23.68-57.08-41.12-81.79
				c-1.18-1.67-1.45-3.82-0.71-5.73c1.19-3.07,1.19-3.07,46.92-20.16c20.26-7.57,45.52-16.83,50.81-17.99
				c35.82-7.86,73.6-15.9,118.92-25.3c39.5-8.19,79.68-16.36,118.54-24.25c39.21-7.97,79.75-16.21,119.58-24.47l14.27-2.97
				c1.69-0.35,3.44,0.03,4.84,1.04c1.39,1.01,2.3,2.56,2.49,4.28c14.83,133.8,35.43,268.63,61.23,400.75
				c4.29,21.98,7.64,46.93-7.06,64.84c-6.98,8.5-16.8,13.56-26.26,18.02c-81.47,38.35-175.74,60.59-280.2,66.09
				C463.9,817.76,459.86,817.93,455.77,817.93z M258.75,382.69c15.92,24.28,27.19,51.47,38.13,77.83l0.67,1.61
				c13.29,32.03,26.15,64.73,38.25,97.2c24.21,65.01,46.3,131.72,65.66,198.28c3.99,13.72,8.95,30.78,20.95,39.75
				c11.96,8.93,29.38,8.81,44.77,8c102.87-5.42,195.61-27.27,275.64-64.95c8.54-4.02,16.65-8.17,22.02-14.71
				c11.33-13.8,8.27-35.5,4.51-54.75c-25.43-130.25-45.83-263.13-60.63-395.07l-7.7,1.6c-39.86,8.27-80.41,16.51-119.63,24.48
				c-38.85,7.9-79.02,16.06-118.49,24.24c-45.27,9.39-83.02,17.42-118.78,25.27C337.68,352.89,279,374.79,258.75,382.69z"/>
		</g>
		<g>
			<path class="st4" d="M752.17,285.14c-7.66-9.72-10.49-24.22-13.32-36.93c-4.09-18.35-10.56-36.16-19.2-52.86
				c-1.14-2.2-2.41-4.49-4.51-5.8c-2.49-1.55-5.64-1.43-8.58-1.25c-86.12,5.32-171.72,19.21-255.13,41.3
				c-76.06,20.15-150.46,46.92-222.26,79.06c-2.34,1.05-4.78,2.19-6.27,4.27c-1.71,2.39-1.81,5.53-1.79,8.47
				c0.13,20.49,3.37,40.97,9.57,60.5c3.8,11.97,8.62,25.4,2.72,36.49c-0.9,1.68-2.06,3.53-1.5,5.35c0.96,3.14,5.48,2.79,8.61,1.78
				c171.08-55.1,345.72-99.18,522.45-131.87C758.52,291.7,755.01,288.75,752.17,285.14z"/>
			<path class="st1" d="M236.32,432.35c-1.86,0-3.83-0.33-5.65-1.28c-2.24-1.17-3.89-3.14-4.62-5.54c-1.26-4.1,0.6-7.52,1.71-9.57
				l0.24-0.44c4.38-8.23,0.86-19.22-2.53-29.85l-0.61-1.92c-6.4-20.18-9.72-41.14-9.86-62.31c-0.02-3.81,0.18-8.21,2.93-12.06
				c2.5-3.5,6.26-5.18,8.75-6.3c73.61-32.95,148.7-59.66,223.19-79.39c83.81-22.2,170.04-36.16,256.32-41.49
				c3.15-0.2,7.92-0.49,12.19,2.16c3.66,2.28,5.57,5.98,6.71,8.18c8.88,17.18,15.52,35.46,19.73,54.34l0.54,2.46
				c2.49,11.26,5.3,24.02,11.61,32.02l0,0c2.42,3.07,5.18,5.26,8.44,6.7c2.46,1.08,3.92,3.64,3.61,6.3
				c-0.31,2.66-2.32,4.82-4.96,5.3c-175.9,32.54-351.42,76.84-521.69,131.68C240.92,431.81,238.71,432.35,236.32,432.35z
				 M709.22,194.31c-0.81,0-1.64,0.05-2.28,0.09c-85.48,5.28-170.91,19.12-253.94,41.11c-73.85,19.56-148.32,46.05-221.33,78.73
				c-1.36,0.61-3.22,1.44-3.79,2.24c-0.69,0.96-0.67,3.61-0.66,4.88c0.13,19.93,3.25,39.68,9.29,58.69l0.6,1.89
				c3.78,11.82,8.04,25.14,2.61,37.4c166.08-53.44,337.13-96.88,508.65-129.2c-0.34-0.4-0.68-0.81-1.01-1.23
				c-8.04-10.2-11.18-24.41-13.95-36.95l-0.54-2.43c-3.98-17.85-10.26-35.14-18.66-51.38c-0.56-1.09-1.51-2.91-2.31-3.42
				C711.36,194.4,710.3,194.31,709.22,194.31z"/>
		</g>
		<g>
			<path class="st2" d="M709.91,190.64c-2.98-1.26-9.27-0.29-12.02-0.52c-7.68-0.63-15.39-0.93-23.1-0.96
				c-15.44-0.06-30.88,1-46.21,2.78c-30.53,3.53-60.65,9.89-90.68,16.27c0,0-76.47,16.25-76.47,16.25
				c-1.99,3.63-5.42,6.62-10.56,8.07c-12.61,3.58-25.49,4.06-38.33,6.31c-11.46,2.01-20.74,7.87-31.52,11.85
				c-10.91,4.03-22.42,5.2-33.68,7.9c-8.18,1.96-16.16,4.42-24.27,6.44c-5.41,3.56-10.86,7.03-16.51,10.09
				c-4.02,2.17-7.94,2.69-11.5,2.08c-13.63,8.29-26.68,17.69-41.4,23.82c-11.48,4.79-24.47,7.98-32.56,17.39
				c3.14,8.31,3.91,17.55,1.66,26.13c-0.31,1.41-0.54,2.34-0.7,2.91c-0.03,0.71-0.1,1.42-0.11,2.13c-0.08,3.69,0.09,7.36,0.33,11.04
				c0.42,6.49,1.06,12.94,1.36,19.43c3.84,9.61,7.41,19.28,7.96,29.54c1.1,20.43,28.46,0.51,38.68-5.97
				c66.2-41.93,118.91-106.64,192.82-132.67c41.05-14.45,85.38-15.66,128.33-22.71c30.37-4.98,60.25-12.94,89.07-23.73
				c7.57-2.83,15.26-5.98,21.19-11.47c5.8-5.36,7.41-11.98,9.67-19.22C711.88,192.15,711.21,191.18,709.91,190.64z"/>
		</g>
		<g>
			<line class="st6" x1="266.27" y1="290.09" x2="295.97" y2="407.39"/>
			<path class="st1" d="M295.97,411.06c-1.64,0-3.13-1.11-3.55-2.77l-29.71-117.3c-0.5-1.96,0.69-3.96,2.66-4.46
				c1.96-0.49,3.96,0.69,4.46,2.66l29.71,117.3c0.5,1.96-0.69,3.96-2.66,4.46C296.57,411.03,296.27,411.06,295.97,411.06z"/>
		</g>
		<g>
			<line class="st6" x1="346.26" y1="269.83" x2="375.96" y2="387.14"/>
			<path class="st1" d="M375.96,390.81c-1.64,0-3.13-1.11-3.55-2.77l-29.7-117.3c-0.5-1.96,0.69-3.96,2.66-4.46
				c1.96-0.49,3.96,0.69,4.46,2.66l29.7,117.3c0.5,1.96-0.69,3.96-2.66,4.46C376.56,390.77,376.26,390.81,375.96,390.81z"/>
		</g>
		<g>
			<line class="st6" x1="422.42" y1="234.44" x2="455.09" y2="363.46"/>
			<path class="st1" d="M455.09,367.13c-1.64,0-3.13-1.11-3.55-2.77l-32.67-129.02c-0.5-1.96,0.69-3.96,2.66-4.46
				c1.97-0.49,3.96,0.69,4.46,2.66l32.67,129.02c0.5,1.96-0.69,3.96-2.66,4.46C455.69,367.1,455.39,367.13,455.09,367.13z"/>
		</g>
		<g>
			<line class="st6" x1="502.41" y1="214.19" x2="535.08" y2="343.21"/>
			<path class="st1" d="M535.08,346.88c-1.64,0-3.13-1.11-3.55-2.77l-32.67-129.02c-0.5-1.96,0.69-3.96,2.66-4.46
				c1.97-0.5,3.96,0.69,4.46,2.66l32.67,129.02c0.5,1.96-0.69,3.96-2.66,4.46C535.68,346.84,535.38,346.88,535.08,346.88z"/>
		</g>
		<g>
			<line class="st6" x1="586.24" y1="209.07" x2="615.94" y2="326.37"/>
			<path class="st1" d="M615.94,330.04c-1.64,0-3.13-1.11-3.55-2.77l-29.7-117.3c-0.5-1.96,0.69-3.96,2.66-4.46
				c1.97-0.49,3.96,0.69,4.46,2.66l29.7,117.3c0.5,1.96-0.69,3.96-2.66,4.46C616.54,330,616.24,330.04,615.94,330.04z"/>
		</g>
		<g>
			<line class="st6" x1="666.23" y1="188.81" x2="695.93" y2="306.11"/>
			<path class="st1" d="M695.93,309.78c-1.64,0-3.13-1.11-3.55-2.77l-29.71-117.3c-0.5-1.96,0.69-3.96,2.66-4.46
				c1.96-0.49,3.96,0.69,4.46,2.66l29.71,117.3c0.5,1.96-0.69,3.96-2.66,4.46C696.54,309.74,696.23,309.78,695.93,309.78z"/>
		</g>
		<g>
			<path class="st1" d="M236.32,432.35c-1.86,0-3.83-0.33-5.65-1.28c-2.24-1.17-3.89-3.14-4.62-5.54c-1.26-4.1,0.6-7.52,1.71-9.57
				l0.24-0.44c4.38-8.23,0.86-19.22-2.53-29.85l-0.61-1.92c-6.4-20.18-9.72-41.14-9.86-62.31c-0.02-3.81,0.18-8.21,2.93-12.06
				c2.5-3.5,6.26-5.18,8.75-6.3c73.61-32.95,148.7-59.66,223.19-79.39c83.81-22.2,170.04-36.16,256.32-41.49
				c3.15-0.2,7.92-0.49,12.19,2.16c3.66,2.28,5.57,5.98,6.71,8.18c8.88,17.18,15.52,35.46,19.73,54.34l0.54,2.46
				c2.49,11.26,5.3,24.02,11.61,32.02l0,0c2.42,3.07,5.18,5.26,8.44,6.7c2.46,1.08,3.92,3.64,3.61,6.3
				c-0.31,2.66-2.32,4.82-4.96,5.3c-175.9,32.54-351.42,76.84-521.69,131.68C240.92,431.81,238.71,432.35,236.32,432.35z
				 M709.22,194.31c-0.81,0-1.64,0.05-2.28,0.09c-85.48,5.28-170.91,19.12-253.94,41.11c-73.85,19.56-148.32,46.05-221.33,78.73
				c-1.36,0.61-3.22,1.44-3.79,2.24c-0.69,0.96-0.67,3.61-0.66,4.88c0.13,19.93,3.25,39.68,9.29,58.69l0.6,1.89
				c3.78,11.82,8.04,25.14,2.61,37.4c166.08-53.44,337.13-96.88,508.65-129.2c-0.34-0.4-0.68-0.81-1.01-1.23
				c-8.04-10.2-11.18-24.41-13.95-36.95l-0.54-2.43c-3.98-17.85-10.26-35.14-18.66-51.38c-0.56-1.09-1.51-2.91-2.31-3.42
				C711.36,194.4,710.3,194.31,709.22,194.31z"/>
		</g>
	</g>
</g>
<g id="Layer_2">
</g>
</svg>
