<?xml version="1.0" encoding="utf-8"?>
<!-- Generator: Adobe Illustrator 28.2.0, SVG Export Plug-In . SVG Version: 6.00 Build 0)  -->
<svg version="1.1" xmlns="http://www.w3.org/2000/svg" xmlns:xlink="http://www.w3.org/1999/xlink" x="0px" y="0px"
	 viewBox="0 0 1000 1000" style="enable-background:new 0 0 1000 1000;" xml:space="preserve">
<style type="text/css">
	.st0{fill:#DDE78B;}
	.st1{fill:#D76B27;}
	.st2{fill:#BFA8D1;}
	.st3{fill:#2A4B24;}
	.st4{fill:#C9B9D9;}
	.st5{fill:#FFFFFF;stroke:#2A4B24;stroke-width:8;stroke-linecap:round;stroke-linejoin:round;stroke-miterlimit:10;}
	.st6{fill:#FFFFFF;}
	.st7{fill:#FFFFFF;stroke:#C9B9D9;stroke-width:5;stroke-linecap:round;stroke-linejoin:round;stroke-miterlimit:10;}
	.st8{fill:none;stroke:#D76B27;stroke-width:5;stroke-linecap:round;stroke-linejoin:round;stroke-miterlimit:10;}
	.st9{fill:none;stroke:#2A4B24;stroke-width:8;stroke-linecap:round;stroke-linejoin:round;stroke-miterlimit:10;}
	.st10{fill:#BA5327;}
	.st11{fill:none;}
	.st12{fill:#C9B9D9;stroke:#DDE78B;stroke-width:5;stroke-miterlimit:10;}
	.st13{fill:#C1CFDA;}
	.st14{fill:none;stroke:#DDE78B;stroke-width:5;stroke-miterlimit:10;}
	.st15{fill:#2A4B24;stroke:#FFFFFF;stroke-width:3;stroke-miterlimit:10;}
	.st16{fill:#F2F2F2;}
	.st17{fill:none;stroke:#2A4B24;stroke-width:5;stroke-linecap:round;stroke-linejoin:round;}
	.st18{fill:none;stroke:#2A4B24;stroke-width:5;stroke-linecap:round;stroke-linejoin:round;stroke-dasharray:32.5624,32.5624;}
	.st19{fill:#DDE78B;stroke:#2A4B24;stroke-width:8;stroke-linecap:round;stroke-linejoin:round;stroke-miterlimit:10;}
	.st20{fill:none;stroke:#C9B9D9;stroke-width:8;stroke-linecap:round;stroke-linejoin:round;stroke-miterlimit:10;}
	.st21{fill:none;stroke:#D76B27;stroke-width:10;stroke-linecap:round;stroke-linejoin:round;stroke-miterlimit:10;}
	.st22{fill:none;stroke:#000000;stroke-width:4;stroke-miterlimit:10;}
	.st23{fill:#DDE78B;stroke:#DDE78B;stroke-width:4;stroke-miterlimit:10;}
	.st24{fill:none;stroke:#D76B27;stroke-miterlimit:10;}
	.st25{fill:none;stroke:#D76B27;stroke-width:7;stroke-linecap:round;stroke-miterlimit:10;}
	.st26{fill:none;stroke:#2A4B24;stroke-width:7;stroke-linecap:round;stroke-linejoin:round;stroke-miterlimit:10;}
	.st27{fill:none;stroke:#C9B9D9;stroke-width:7;stroke-linecap:round;stroke-linejoin:round;stroke-miterlimit:10;}
	.st28{fill:#C9B9D9;stroke:#D76B27;stroke-width:8;stroke-miterlimit:10;}
	.st29{fill:#DDE78B;stroke:#D76B27;stroke-width:5;stroke-miterlimit:10;}
	.st30{fill:#DDE78B;stroke:#2A4B24;stroke-width:8;stroke-miterlimit:10;}
	.st31{fill:#D76C28;}
	.st32{fill:#D76D29;}
	.st33{fill:#D76D2A;}
	.st34{fill:#D86E2B;}
	.st35{fill:#D86F2C;}
	.st36{fill:#D8702D;}
	.st37{fill:#D8702E;}
	.st38{fill:#D8712F;}
	.st39{fill:#D97130;}
	.st40{fill:#D97231;}
	.st41{fill:#D97332;}
	.st42{fill:#D97433;}
	.st43{fill:#D97434;}
	.st44{fill:#D97535;}
	.st45{fill:#DA7536;}
	.st46{fill:#DA7636;}
	.st47{fill:#DA7637;}
	.st48{fill:#DA7738;}
	.st49{fill:#DA7839;}
	.st50{fill:#DA783A;}
	.st51{fill:#DB793B;}
	.st52{fill:#DB793C;}
	.st53{fill:#DB7A3C;}
	.st54{fill:#DB7B3D;}
	.st55{fill:#DB7B3E;}
	.st56{fill:#DB7C3F;}
	.st57{fill:#DB7C40;}
	.st58{fill:#DC7D41;}
	.st59{fill:#DC7E42;}
	.st60{fill:#DC7F43;}
	.st61{fill:#DC7F44;}
	.st62{fill:#DC8045;}
	.st63{fill:#DD8046;}
	.st64{fill:#DD8147;}
	.st65{fill:#DD8248;}
	.st66{fill:#DD8349;}
	.st67{fill:#DD834A;}
	.st68{fill:#DE844B;}
	.st69{fill:#DE844C;}
	.st70{fill:#DE854C;}
	.st71{fill:#DE864D;}
	.st72{fill:#DE864E;}
	.st73{fill:#DE874F;}
	.st74{fill:#DE8750;}
	.st75{fill:#DF8851;}
	.st76{fill:#DF8852;}
	.st77{fill:#DF8952;}
	.st78{fill:#DF8A53;}
	.st79{fill:#DF8A54;}
	.st80{fill:#DF8B55;}
	.st81{fill:#E08B56;}
	.st82{fill:#E08C57;}
	.st83{fill:#E08D58;}
	.st84{fill:#E08E59;}
	.st85{fill:#E08E5A;}
	.st86{fill:#E18F5B;}
	.st87{fill:#E18F5C;}
	.st88{fill:#E1905D;}
	.st89{fill:#E1915E;}
	.st90{fill:#E1925F;}
	.st91{fill:#E19260;}
	.st92{fill:#E29361;}
	.st93{fill:#E29362;}
	.st94{fill:#E29462;}
	.st95{fill:#E29563;}
	.st96{fill:#E29564;}
	.st97{fill:#E29665;}
	.st98{fill:#E39666;}
	.st99{fill:#E39767;}
	.st100{fill:#E39768;}
	.st101{fill:#E39868;}
	.st102{fill:#E39969;}
	.st103{fill:#E3996A;}
	.st104{fill:#E49A6B;}
	.st105{fill:#E49A6C;}
	.st106{fill:#E49B6D;}
	.st107{fill:#E49C6E;}
	.st108{fill:#E49D6F;}
	.st109{fill:#E49D70;}
	.st110{fill:#E59E71;}
	.st111{fill:#E59E72;}
	.st112{fill:#E59F73;}
	.st113{fill:#E5A073;}
	.st114{fill:#E5A074;}
	.st115{fill:#E5A175;}
	.st116{fill:#E6A176;}
	.st117{fill:#E6A277;}
	.st118{fill:#E6A278;}
	.st119{fill:#E6A378;}
	.st120{fill:#E6A479;}
	.st121{fill:#E6A47A;}
	.st122{fill:#E6A57B;}
	.st123{fill:#E7A57C;}
	.st124{fill:#E7A67D;}
	.st125{fill:#E7A67E;}
	.st126{fill:#E7A77E;}
	.st127{fill:#E7A87F;}
	.st128{fill:#E7A880;}
	.st129{fill:#E8A981;}
	.st130{fill:#E8A982;}
	.st131{fill:#E8AA83;}
	.st132{fill:#E8AB83;}
	.st133{fill:#E8AB84;}
	.st134{fill:#E8AC85;}
	.st135{fill:#E9AC86;}
	.st136{fill:#E9AD87;}
	.st137{fill:#E9AD88;}
	.st138{fill:#E9AE89;}
	.st139{fill:#E9AF89;}
	.st140{fill:#E9AF8A;}
	.st141{fill:#E9B08B;}
	.st142{fill:#EAB08C;}
	.st143{fill:#EAB18D;}
	.st144{fill:#EAB18E;}
	.st145{fill:#EAB28E;}
	.st146{fill:#EAB38F;}
	.st147{fill:#EAB390;}
	.st148{fill:#EBB491;}
	.st149{fill:#EBB492;}
	.st150{fill:#EBB593;}
	.st151{fill:#EBB694;}
	.st152{fill:#EBB795;}
	.st153{fill:#ECB796;}
	.st154{fill:#ECB897;}
	.st155{fill:#ECB898;}
	.st156{fill:#ECB999;}
	.st157{fill:#ECBA99;}
	.st158{fill:#ECBA9A;}
	.st159{fill:#ECBB9B;}
	.st160{fill:#EDBB9C;}
	.st161{fill:#EDBC9D;}
	.st162{fill:#EDBC9E;}
	.st163{fill:#EDBD9F;}
	.st164{fill:#EDBE9F;}
	.st165{fill:#EDBEA0;}
	.st166{fill:#EEBFA1;}
	.st167{fill:#EEBFA2;}
	.st168{fill:#EEC0A3;}
	.st169{fill:#EEC1A4;}
	.st170{fill:#EEC2A5;}
	.st171{fill:#EFC2A6;}
	.st172{fill:#EFC3A7;}
	.st173{fill:#EFC3A8;}
	.st174{fill:#EFC4A9;}
	.st175{fill:#EFC5AA;}
	.st176{fill:#EFC6AB;}
	.st177{fill:#F0C6AC;}
	.st178{fill:#F0C7AD;}
	.st179{fill:#F0C7AE;}
	.st180{fill:#F0C8AF;}
	.st181{fill:#F0C9AF;}
	.st182{fill:#F0C9B0;}
	.st183{fill:#F1CAB1;}
	.st184{fill:#F1CAB2;}
	.st185{fill:#F1CBB3;}
	.st186{fill:#F1CCB4;}
	.st187{fill:#F1CCB5;}
	.st188{fill:#F1CDB5;}
	.st189{fill:#F1CDB6;}
	.st190{fill:#F2CEB7;}
	.st191{fill:#F2CEB8;}
	.st192{fill:#F2CFB9;}
	.st193{fill:#F2D0BA;}
	.st194{fill:#F2D1BB;}
	.st195{fill:#F3D1BC;}
	.st196{fill:#F3D2BD;}
	.st197{fill:#F3D2BE;}
	.st198{fill:#F3D3BF;}
	.st199{fill:#F3D4C0;}
	.st200{fill:#F4D5C1;}
	.st201{fill:#F4D5C2;}
	.st202{fill:#F4D6C3;}
	.st203{fill:#F4D6C4;}
	.st204{fill:#F4D7C5;}
	.st205{fill:#F4D8C5;}
	.st206{fill:#F4D8C6;}
	.st207{fill:#F5D9C7;}
	.st208{fill:#F5D9C8;}
	.st209{fill:#F5DAC9;}
	.st210{fill:#F5DBCA;}
	.st211{fill:#F5DBCB;}
	.st212{fill:#F5DCCB;}
	.st213{fill:#F6DCCC;}
	.st214{fill:#F6DDCD;}
	.st215{fill:#F6DDCE;}
	.st216{fill:#F6DECF;}
	.st217{fill:#F6DFD0;}
	.st218{fill:#F7E0D1;}
	.st219{fill:#F7E0D2;}
	.st220{fill:#F7E1D3;}
	.st221{fill:#F7E1D4;}
	.st222{fill:#F7E2D5;}
	.st223{fill:#F7E3D6;}
	.st224{fill:#F8E4D7;}
	.st225{fill:#F8E4D8;}
	.st226{fill:#F8E5D9;}
	.st227{fill:#F8E6DA;}
	.st228{fill:#F8E6DB;}
	.st229{fill:#F8E7DB;}
	.st230{fill:#F9E7DC;}
	.st231{fill:#F9E8DD;}
	.st232{fill:#F9E8DE;}
	.st233{fill:#F9E9DF;}
	.st234{fill:#F9EAE0;}
	.st235{fill:#F9EAE1;}
	.st236{fill:#F9EBE1;}
	.st237{fill:#FAEBE2;}
	.st238{fill:#FAECE3;}
	.st239{fill:#FAECE4;}
	.st240{fill:#FAEDE5;}
	.st241{fill:#FAEEE6;}
	.st242{fill:#FBEFE7;}
	.st243{fill:#FBEFE8;}
	.st244{fill:#FBF0E9;}
	.st245{fill:#FBF1EA;}
	.st246{fill:#FBF1EB;}
	.st247{fill:#FBF2EC;}
	.st248{fill:#FCF2EC;}
	.st249{fill:#FCF3ED;}
	.st250{fill:#FCF3EE;}
	.st251{fill:#FCF4EF;}
	.st252{fill:#FCF5F0;}
	.st253{fill:#FCF5F1;}
	.st254{fill:#FCF6F1;}
	.st255{fill:#FDF6F2;}
	.st256{fill:#FDF7F3;}
	.st257{fill:#FDF7F4;}
	.st258{fill:#FDF8F5;}
	.st259{fill:#FDF9F6;}
	.st260{fill:#FDF9F7;}
	.st261{fill:#FEFAF7;}
	.st262{fill:#FEFAF8;}
	.st263{fill:#FEFBF9;}
	.st264{fill:#FEFCFA;}
	.st265{fill:#FEFCFB;}
	.st266{fill:#FEFDFC;}
	.st267{fill:#FFFDFC;}
	.st268{fill:#FFFEFD;}
	.st269{fill:#FFFEFE;}
	.st270{fill:none;stroke:#FFFFFF;stroke-width:8;stroke-linecap:round;stroke-linejoin:round;stroke-miterlimit:10;}
	.st271{fill:#FFFFFF;stroke:#D76B27;stroke-width:5;stroke-linecap:round;stroke-linejoin:round;stroke-miterlimit:10;}
	.st272{opacity:0.11;fill:#808080;}
	.st273{fill:#C9B9D9;stroke:#D76B27;stroke-width:5;stroke-linecap:round;stroke-linejoin:round;stroke-miterlimit:10;}
	.st274{fill:#FFFFFF;stroke:#D76B27;stroke-width:3;stroke-linecap:round;stroke-linejoin:round;stroke-miterlimit:10;}
	.st275{fill:none;stroke:#C9B9D9;stroke-width:3;stroke-linecap:round;stroke-miterlimit:10;}
	.st276{fill:#DC7E43;}
	.st277{fill:#1A1A1A;}
	.st278{opacity:0.48;fill:#DDE78B;}
	.st279{opacity:0.11;}
	.st280{fill:#808080;}
	.st281{fill:none;stroke:#000000;stroke-width:8;stroke-linecap:round;stroke-miterlimit:10;}
</style>
<g id="Layer_1">
	<g>
		<path class="st4" d="M851.42,161.16c-1.2-12.64-5.3-26.99-21.06-29.79c-5.51-0.98-9.49-3.24-12.95,1.16l-28.75,36.6
			c-35.83,45.62-64.65,96.27-85.56,150.29c-5.47,14.14-12.68,27.55-21.61,39.8l-0.4,0.54l-0.99,0.25c-0.92-1.09-0.74,3.15-1.95,2.29
			l-1.27-6.59l-11.17-44.03c-1.57-6.46-7.32-13.25-11.25-18.61c-19.8-27.06-49.24-13.12-58.33-7.91l0.73,0.05
			c0.09,0.21,0.18,0.44,0.27,0.68c-0.4-0.21-0.8-0.41-1.22-0.6c-1.4,0.81-2.27,1.39-2.49,1.52c-31.57-56.48-96.01-11.59-99.71-8.91
			c-0.93-0.73-2.87,2.11-3.86,1.44c-24.92-16.79-57.68-9.9-77.37,10.04c-13.73,13.9-23.08,31.74-30.37,49.69
			c-3.7,9.11-6.86,18.44-9.67,27.87c-1.42,4.76-11.82,20.57-10.14,24.92c-16.83-43.49-42.64-72.92-67.43-93.02
			c1.48-1.58,1.88-4.11-0.3-5.85c-11.03-8.79-23.34-15.52-36.33-20.74c-0.1-1.36-0.82-2.71-2.22-3.5
			c-11.96-6.74-25.18-10.73-38.54-13.65c-6.53-1.43-13.11-2.67-19.69-3.8c-6.7-1.15-13.68-1.82-20,1.2
			c-1.59,0.76-2.44,2.02-2.63,3.34c-4.02,0.37-8.02,0.92-11.98,1.68c-2.33,0.44-3.51,2.34-3.64,4.23
			c-10.97,9.8-11.68,26.83-1.58,37.66c11.22,12.03,29.89,32.84,46.32,54.86c-0.91,1.25-1.16,2.96-0.04,4.63
			c6.37,9.52,12.69,19.07,17.78,29.35c4.55,9.19,8.36,18.75,11.72,28.44c6.77,19.55,11.7,39.67,17.37,59.55
			c0.49,1.71,0.99,3.42,1.49,5.13c4.34,0.73,6.67,4.58,6.76,8.46c1.51,0.89,2.75,2.38,3.45,4.56c5.59,17.52,13.4,34.32,17.25,52.37
			c0.08,0.4,0.15,0.8,0.2,1.19c7.18,12.15,15.37,23.69,24.41,34.54c14.06,16.86,29.99,32.07,47.26,45.63
			c-0.97,1.57-1.05,3.7,0.7,5.31c9.27,8.51,16.4,18.86,23.18,29.38c1.05,1.62,2.1,3.25,3.15,4.88c4.76,9.84,9.51,19.69,14.27,29.53
			c0.18,0.37,0.39,0.69,0.61,0.98c-0.04,0.32-0.04,0.66,0,1.03c0.17,1.56,0.41,3.09,0.66,4.62c1.1-0.18,2.39,0.38,2.6,1.8
			c0.5,3.35,2.01,6.26,3.87,9.01c0.69-0.7,1.74-0.92,2.59,0.02c2.96,3.29,4.69,7.56,5.74,12.02c2.58,5.4,2.6,11.31,2.16,17.27
			c0.33,0.73,0.67,1.46,1.03,2.2c0.77,1.58-0.65,2.71-2.05,2.64c0.6,1.39,1.2,2.79,1.78,4.19c7.65,18.44,12.84,37.86,15.23,57.68
			c1.17,9.66,1.29,19.38,2.24,29.06c0.43,4.33,1.1,8.63,2.14,12.86c0.97,3.93,2.14,8.7,5.39,11.45c3.14,2.65,7.91,3.15,11.78,4.02
			c5.17,1.16,10.37,2.19,15.6,3.07c9.5,1.6,19.09,2.73,28.7,3.38c10.95,0.74,21.94,0.95,32.91,0.49
			c10.15-0.42,20.17-1.56,29.19-6.51c49.9-7.09,111.28-28.97,174.59-83.4c5.06-4.36,7.51-11.02,6.5-17.62
			c-2.13-13.98-8.36-39.62-26.64-66.62c-2.28-3.37-2.17-7.83,0.32-11.05c14.45-18.62,58.68-89.24,49.72-247.07
			c-1.38-24.27,1.79-48.59,9.15-71.76l4.04-12.71c12.06-37.95,27.39-74.79,45.79-110.11c6-11.51,11.76-23.14,17.12-34.96
			l13.29-29.27C852.93,175.9,852.25,169.93,851.42,161.16z M496.64,280.36c-0.88-0.8-1.79-1.57-2.73-2.31l4.88,0.34
			C498.03,279,497.31,279.66,496.64,280.36z"/>
		<path class="st6" d="M148.78,277.35c-1.26,3.87,0.03,8.16,2.15,11.63s5.03,6.39,7.44,9.66c1.62,2.21,3.02,4.57,4.56,6.84
			c5.88,8.66,13.76,15.74,20.88,23.43c7.88,8.52,14.86,17.82,21.81,27.11c1.41,1.88,2.82,3.77,4.23,5.65
			c2.01-1.56,3.04-4.13,3.28-6.67s-0.21-5.08-0.66-7.59c-1.02-5.68-2.22-10.27-4.92-15.4c-1.73-3.29-3.12-6.77-4.14-10.34
			c-0.88-3.08-0.87-6.77-2.46-9.46c-3.3-5.58-5.28-11.91-8.77-17.35c-3.83-5.99-9.98-10.07-14.66-15.42
			c-1.86-2.12-3.51-4.47-5.74-6.19c-3.74-2.89-9.46-4.25-14.14-4.22C153.8,269.06,149.91,273.89,148.78,277.35z"/>
		<g>
			<path class="st2" d="M662.13,537.21c-1.74-0.06-3.32-0.31-4.77-0.74c-0.73,0.26-1.54,0.44-2.43,0.51
				c-5.81,0.44-8.94-4.05-9.04-8.57c-4.67-3.27-8.34-7.53-12.57-11.66c-2.33-2.28-4.71-4.52-6.93-6.89
				c-0.66,3.37-3.12,6.31-7.56,6.64c-0.25,0.02-0.49,0.02-0.73,0.02c-2.19,6.94-9.54,12.84-16.21,14.29
				c-8.38,1.83-17.39,0.8-24.74-3.76c-3.09-1.92-5.79-4.27-8.28-6.85c-5.38-1.56-10.47-3.51-14.58-7.55
				c-1.65-1.62-3.11-3.41-4.5-5.25c-0.32,0.77-0.63,1.54-0.92,2.32c-0.06,0.15-0.58,1.65-0.52,1.46c-2.05,6.5-2.87,13.09-6.86,18.83
				c-6.34,9.14-17.28,12.1-25.77,18.58c-4.23,3.23-8.65,1.7-11.2-1.52c-0.35,0.36-0.69,0.73-1.05,1.09
				c19.55,11.1,32.43,30.82,52.05,41.51c14.16,7.72,32.03,8.21,46.59,1.29c8.39-3.99,15.53-10.16,22.54-16.25
				c14.07-12.21,28.13-24.42,42.2-36.64c0.49-0.42,0.98-0.85,1.47-1.29C666.27,537.1,664.2,537.27,662.13,537.21z"/>
		</g>
		<g>
			<path class="st2" d="M495.67,545.52c0.37-0.45,0.55-1.07,0.59-1.67c0.16-2.48-1.54-4.65-3.17-6.53
				c-6.67-7.67-13.9-15.07-18.41-24.17c-6.02-12.16-6.63-26.17-7.88-39.69c-1.09-11.81-2.78-23.65-6.56-34.9
				c-1.77-5.26-4.05-10.48-7.78-14.59c-5.07-5.6-18.96-15.47-26.69-15.21c-5.17,0.17-9.71,3.51-13.21,7.32
				c-8.6,9.38-12.85,22.6-11.34,35.23c3.17,26.48,29.09,53.86,47.44,71.79c12.1,11.83,27.77,17.75,43.8,22.75
				c0.91,0.28,1.96,0.55,2.77,0.05C495.4,545.8,495.54,545.67,495.67,545.52z"/>
		</g>
		<g>
			<path class="st2" d="M540.59,418.87c-3.16-15.17-7.05-30.36-8.07-45.74c-1.1-16.55,1.12-33.48-2.93-49.56
				c-1.41-5.58-3.86-11.14-7.68-15.5c-3.84-4.4-8.96-4.68-12.96-7.87c0.45,1,0.89,2.01,1.35,3.01
				c11.92,25.67,11.77,55.01,15.31,83.1c1.84,12.49,3.92,24.89,6.46,37.26c2.42,11.77,1.76,23.96,2.13,36.03
				c0.17,5.39,1.08,11.93,6.06,14c2.73-1.84,3.57-5.43,3.99-8.7C546.24,449.47,543.78,434.18,540.59,418.87z"/>
		</g>
		<g>
			<path class="st2" d="M624.15,417.74c-4.22-28.07-2.89-56.92-9.25-84.58c-1.14-4.95-2.53-9.88-4.79-14.42
				c-3.65-7.34-9.51-13.66-14.22-20.38l1.36,3.03c11.92,25.67,11.77,55.01,15.31,83.1c1.47,11.7,3.69,23.28,5.96,34.84
				c1.05,5.36,0.57,11.18,1.14,16.67c0.6,5.79,2.64,11.87,2.79,17.62c0.14,5.46,0.15,10.15,2.33,15.39
				c1.52-1.13,2.17-3.08,2.58-4.93c1.57-7.04,1.23-14.87,0.51-22C627.04,433.91,625.37,425.86,624.15,417.74z"/>
		</g>
		<g>
			<path class="st2" d="M213.25,365.38c-0.47,2.36,11.82,13.44,13.31,15.12c16.62,18.74,33.83,36.49,47.84,57.22
				c13.77,20.39,23.84,42.98,36.97,63.76c16.38,25.93,37.45,48.89,61.88,67.43c12.31,9.34,25.44,17.56,37.5,27.23
				c12.92,10.36,21.51,21.89,30.64,35.49c18.48,27.53,30.19,58.92,44.85,88.66c14.66,29.74,33.27,58.92,61.16,76.86
				c13.51,8.69,28.93,16.57,43.23,23.69c5.98,2.98,52.24,13.62,50.28,20.28c-0.15,0.51-0.58,0.89-0.99,1.22
				c-25.92,20.89-63.91,21.4-95.13,27.35c-8.64,1.65-17.33,3.24-26.12,3.57c-12.51,0.47-24.95-1.6-37.3-3.67
				c-11.29-1.89-22.58-3.78-33.87-5.68c-4.14-0.69-9.8-0.38-12.61-3.52c-2.49-2.77-2.83-8.41-3.34-11.9
				c-5.8-39.75-14.26-79.12-25.29-117.74c-2.69-9.43-5.45-18.88-8.55-28.19c-2.53-7.59-7.82-11.43-12.34-17.93
				c-8.27-11.87-13.89-25.17-21.43-37.44l-31.25-37.78l-40.02-43.14l-18.96-34.36l-37.45-98.17l-4.96-26.04l-19.13-36.68
				C212.13,371.02,213.25,365.38,213.25,365.38z"/>
		</g>
		<g>
			<path class="st2" d="M766.37,296.37c-31.22,40.6-50.17,90.51-53.77,141.6c-1.54,21.81-0.35,43.72,0.85,65.55
				c1.5,27.55,3.01,55.1,4.51,82.65c0.71,13.07,1.75,27.04,9.77,37.39c1.41,1.82,3.17,3.58,5.42,4.03
				c5.85,1.19,9.3-6.28,10.46-12.14c4.99-25.24,9.16-50.63,12.5-76.14c2.69-20.51,4.85-41.14,5.04-61.83
				c0.2-21.44-1.71-42.94,0.2-64.3c3.03-33.86,14.03-71.18,27.48-102.09c12.1-27.83,31.49-56.64,37.44-87.51
				c-10.58,6.07-17.48,21.72-25.04,31.17C789.92,268.89,777.41,282.01,766.37,296.37z"/>
		</g>
		<g>
			<path class="st2" d="M574.29,738.06c4.55,0.95,9.14,1.91,13.39,3.81c6.56,2.94,11.95,7.95,18.02,11.8
				c16.51,10.45,38.51,11.59,56.01,2.89c9.83-4.89,18.05-12.8,23.64-22.22c2.63-4.43,12.86-24.44,5.28-27.42
				c-1.83-0.72-3.88-0.42-5.81-0.06c-7.13,1.33-14.15,3.3-21.34,4.19c-8.48,1.06-15.02-1.21-23.07-2.52
				c-8.06-1.31-15.65-0.81-23.02-5.11c-3.47-2.03-6.52-5.18-10.27-6.68c-4.12-1.65-6.54,0.38-9.9,3c-1.87,1.45-3.57,3.14-5.57,4.41
				c-1.97,1.26-4.18,2.08-6.37,2.9c-7.11,2.65-14.5,4.85-20.97,8.71c-6,3.58-12.28,6.59-18.9,8.85c-9.02,3.08-20.14,2.5-28.46,6.28
				c7.3,3.33,19.72,0.98,28.11,1.96C554.88,733.99,564.61,736.04,574.29,738.06z"/>
		</g>
		<path class="st6" d="M492.82,485.31c-0.59,2.74-0.91,5.53-1.02,8.18c-0.09,2.11,0.12,4.21,0.33,6.31
			c0.63,6.19,1.26,12.39,1.88,18.58c0.62,6.12,2.96,11.35,5.29,17.03c1.51,3.68,3.3,7.62,6.8,9.51c2.45,1.32,5.38,1.41,8.15,1.17
			c8.43-0.73,16.5-4.47,22.73-10.17c6.15-5.63,7.03-15.57,7.09-23.54c0.02-3.19,0.21-7.35-0.87-10.39c-0.88-2.47-2.85-4.7-3.95-7.13
			c-1.45-3.21-3.84-5.51-5.62-8.52c-0.94-1.59-1.54-3.36-2.47-4.96c-1.37-2.34-3.39-4.21-5.39-6.04c-2.4-2.2-4.73-4.9-7.38-6.79
			c-3.68-2.62-11.21-2.51-15.08-0.08C497.37,472.18,494.27,478.63,492.82,485.31z"/>
		<path class="st6" d="M639.89,516.76c0.66,6.25,2.56,12.62,6.87,17.19c4.31,4.57,11.43,6.86,17.13,4.2
			c3.6-1.68,6.12-4.97,8.48-8.16c2.2-2.97,4.39-5.98,5.89-9.35c2.73-6.14,3-13.18,1.7-19.77c-1.3-6.59-4.1-12.8-7.3-18.71
			c-1.03-1.9-2.12-3.8-3.66-5.32c-8.41-8.29-18.07-0.07-22.39,7.64C641.15,494.22,638.71,505.65,639.89,516.76z"/>
		<g id="uJJHsh_00000003073722121200268350000012365955639396700316_">
			<g>
				<g>
					<path class="st10" d="M254.74,472.17c-2.18-1.21-2.83-3.09-1.97-5.15c0.9-2.17,2.95-2.86,5.02-1.9
						c2.05,0.94,2.9,2.89,1.93,5.05C258.75,472.32,256.86,472.78,254.74,472.17z"/>
				</g>
				<g>
					<path class="st10" d="M287.02,487.7c-2.28-1.35-2.92-3.22-2.01-5.27c0.95-2.15,3.01-2.81,5.06-1.8
						c2.02,0.99,2.84,2.93,1.83,5.09C290.89,487.86,288.98,488.21,287.02,487.7z"/>
				</g>
				<g>
					<path class="st10" d="M270.13,439.92c-2.13-1.25-2.77-3.13-1.87-5.18c0.95-2.15,3-2.81,5.06-1.81
						c2.02,0.98,2.85,2.93,1.84,5.08C274.15,440.13,272.26,440.58,270.13,439.92z"/>
				</g>
				<g>
					<path class="st10" d="M318.99,503.04c-2.06-1.3-2.68-3.18-1.72-5.22c1-2.12,3.07-2.75,5.1-1.69c1.98,1.03,2.8,3,1.71,5.12
						C323.02,503.35,321.13,503.78,318.99,503.04z"/>
				</g>
				<g>
					<path class="st10" d="M238.06,424.53c-2.28-1.35-2.92-3.22-2.01-5.27c0.95-2.15,3-2.81,5.06-1.81
						c2.02,0.98,2.84,2.93,1.83,5.08S240.01,425.04,238.06,424.53z"/>
				</g>
				<g>
					<path class="st10" d="M271.57,519.88c2.09,0.58,3.94,0.1,4.89-2.03c0.97-2.16,0.12-4.1-1.93-5.05
						c-2.08-0.96-4.12-0.27-5.02,1.9c-0.11,0.25-0.19,0.5-0.25,0.75C270.03,516.94,270.8,518.41,271.57,519.88z"/>
				</g>
				<g>
					<path class="st10" d="M303.62,535.3c-2.13-1.25-2.77-3.13-1.87-5.18c0.95-2.15,3-2.81,5.06-1.81c2.02,0.98,2.85,2.93,1.84,5.08
						C307.64,535.52,305.76,535.97,303.62,535.3z"/>
				</g>
				<g>
					<path class="st10" d="M335.88,550.82c-2.2-1.37-2.82-3.25-1.87-5.29c1-2.12,3.06-2.76,5.09-1.71c1.99,1.03,2.8,2.98,1.73,5.12
						C339.78,551.06,337.87,551.41,335.88,550.82z"/>
				</g>
				<g>
					<path class="st10" d="M368.06,566.25c-2.12-1.25-2.76-3.13-1.86-5.18c0.95-2.15,3-2.81,5.06-1.81
						c2.02,0.98,2.85,2.94,1.83,5.08C372.08,566.47,370.19,566.92,368.06,566.25z"/>
				</g>
				<g>
					<path class="st10" d="M400.26,581.72c-2.11-1.26-2.75-3.14-1.83-5.19c0.96-2.14,3.01-2.8,5.07-1.79
						c2.01,0.99,2.84,2.95,1.81,5.09C404.28,581.95,402.39,582.4,400.26,581.72z"/>
				</g>
				<g>
					<path class="st10" d="M320.37,583c-2.13-1.25-2.77-3.13-1.87-5.18c0.95-2.15,3-2.81,5.06-1.81c2.02,0.98,2.85,2.93,1.84,5.08
						C324.39,583.22,322.5,583.67,320.37,583z"/>
				</g>
				<g>
					<path class="st10" d="M352.73,598.56c-2.28-1.35-2.92-3.22-2.01-5.27c0.95-2.15,3.01-2.81,5.06-1.8
						c2.02,0.99,2.84,2.93,1.83,5.09C356.61,598.72,354.69,599.08,352.73,598.56z"/>
				</g>
				<g>
					<path class="st10" d="M384.61,613.85c-2-1.34-2.6-3.22-1.59-5.24c1.05-2.09,3.13-2.69,5.14-1.58c1.95,1.08,2.75,3.06,1.61,5.16
						C388.65,614.25,386.76,614.67,384.61,613.85z"/>
				</g>
				<g>
					<path class="st10" d="M416.66,629.24c-1.88-1.41-2.47-3.31-1.36-5.29c1.14-2.01,3.22-2.59,5.2-1.38
						c1.9,1.16,2.65,3.16,1.41,5.22C420.72,629.79,418.81,630.17,416.66,629.24z"/>
				</g>
				<g>
					<path class="st10" d="M449.18,644.87c-2.08-1.28-2.71-3.16-1.77-5.2c0.98-2.13,3.04-2.77,5.09-1.73c2,1.01,2.82,2.97,1.76,5.11
						C453.21,645.14,451.32,645.58,449.18,644.87z"/>
				</g>
				<g>
					<path class="st10" d="M481.62,660.46c-2.28-1.35-2.92-3.22-2.01-5.27c0.95-2.15,3-2.81,5.06-1.8c2.02,0.99,2.84,2.93,1.83,5.09
						C485.49,660.62,483.57,660.97,481.62,660.46z"/>
				</g>
				<g>
					<path class="st10" d="M513.56,675.78c-2.05-1.31-2.66-3.19-1.68-5.22c1.02-2.11,3.08-2.73,5.11-1.66
						c1.97,1.05,2.78,3.02,1.68,5.14C517.59,676.12,515.7,676.55,513.56,675.78z"/>
				</g>
				<g>
					<path class="st10" d="M455.25,723.43c0.11-0.18,0.22-0.36,0.32-0.57c0.98-2.16,0.14-4.1-1.89-5.06
						c-2.07-0.98-4.12-0.3-5.04,1.86c-0.29,0.67-0.39,1.32-0.35,1.94C450.6,722.25,452.92,722.85,455.25,723.43z"/>
				</g>
				<g>
					<path class="st10" d="M418.16,709.27c-2.04-1.32-2.65-3.2-1.67-5.23c1.02-2.11,3.09-2.73,5.12-1.65
						c1.97,1.05,2.78,3.02,1.67,5.14C422.19,709.61,420.3,710.04,418.16,709.27z"/>
				</g>
				<g>
					<path class="st10" d="M389.66,693.63c0.54-0.34,1.01-0.84,1.39-1.54c1.13-2.11,0.33-4.09-1.63-5.16
						c-0.89-0.49-1.79-0.62-2.61-0.46C387.78,688.85,388.72,691.24,389.66,693.63z"/>
				</g>
				<g>
					<path class="st10" d="M546.08,691.42c-2.29-1.34-2.93-3.22-2.03-5.27c0.94-2.15,3-2.82,5.06-1.82
						c2.02,0.98,2.85,2.92,1.85,5.08C549.94,691.56,548.02,691.92,546.08,691.42z"/>
				</g>
				<g>
					<path class="st10" d="M578.13,706.79c-2.13-1.25-2.77-3.13-1.87-5.18c0.95-2.15,3-2.81,5.06-1.81
						c2.02,0.98,2.85,2.93,1.84,5.08C582.15,707.01,580.26,707.46,578.13,706.79z"/>
				</g>
				<g>
					<path class="st10" d="M530.59,723.63c-2.28-1.35-2.92-3.22-2.01-5.27c0.95-2.15,3-2.81,5.06-1.81
						c2.02,0.98,2.84,2.93,1.83,5.08C534.46,723.78,532.54,724.14,530.59,723.63z"/>
				</g>
				<g>
					<path class="st10" d="M498.3,708.1c-2.18-1.21-2.83-3.09-1.98-5.15c0.9-2.17,2.95-2.86,5.02-1.91c2.05,0.94,2.9,2.88,1.93,5.05
						C502.31,708.24,500.42,708.71,498.3,708.1z"/>
				</g>
				<g>
					<path class="st10" d="M466.09,692.63c-2.19-1.2-2.85-3.08-2-5.15c0.89-2.18,2.94-2.87,5.02-1.92c2.05,0.93,2.91,2.87,1.95,5.04
						C470.1,692.76,468.22,693.24,466.09,692.63z"/>
				</g>
				<g>
					<path class="st10" d="M433.75,677.13c-2.16-1.41-2.78-3.29-1.78-5.32c1.03-2.1,3.1-2.72,5.12-1.63
						c1.97,1.06,2.76,3.02,1.66,5.15C437.66,677.43,435.74,677.75,433.75,677.13z"/>
				</g>
				<g>
					<path class="st10" d="M401.36,661.55c-2-1.34-2.61-3.22-1.59-5.24c1.05-2.09,3.13-2.69,5.14-1.59
						c1.95,1.07,2.75,3.06,1.61,5.16C405.4,661.94,403.51,662.36,401.36,661.55z"/>
				</g>
				<g>
					<path class="st10" d="M369.29,646.15c-2.1-1.27-2.73-3.15-1.8-5.19c0.97-2.14,3.03-2.79,5.08-1.76c2.01,1,2.83,2.96,1.79,5.1
						C373.32,646.4,371.43,646.85,369.29,646.15z"/>
				</g>
				<g>
					<path class="st10" d="M373.46,658.06c-1.87-1.38-2.89-3.07-1.79-5.21c1.07-2.08,3.07-2.72,5.1-1.69
						c1.99,1.01,2.83,2.93,1.76,5.07C377.47,658.37,375.54,658.63,373.46,658.06z"/>
				</g>
				<g>
					<path class="st10" d="M553.31,696.18c1.77,1.26,2.87,2.9,1.86,5.09c-0.99,2.15-2.96,2.8-5.03,1.86c-2.05-0.93-2.92-2.85-1.95-5
						C549.16,695.98,551.07,695.56,553.31,696.18z"/>
				</g>
				<g>
					<path class="st10" d="M405.66,673.5c-1.8-1.27-2.85-2.94-1.8-5.1c1.02-2.1,3.01-2.78,5.07-1.79c2.01,0.97,2.89,2.87,1.87,5.03
						C409.77,673.78,407.86,674.14,405.66,673.5z"/>
				</g>
				<g>
					<path class="st10" d="M522.9,686.04c-1.31,1.87-3.15,2.61-5.18,1.52c-1.97-1.06-2.8-2.99-1.66-5.09
						c1.1-2.06,3.12-2.66,5.13-1.59C523.16,681.92,523.8,683.8,522.9,686.04z"/>
				</g>
				<g>
					<path class="st10" d="M443.11,687.05c-1.18,2.02-2.98,2.81-5.07,1.89c-2.07-0.91-2.96-2.82-2.01-4.98
						c0.94-2.14,2.93-2.85,5.02-1.93C443.11,682.94,443.8,684.79,443.11,687.05z"/>
				</g>
				<g>
					<path class="st10" d="M490.82,670.3c-1.29,2.05-3.1,2.84-5.17,1.85c-2.04-0.97-2.9-2.88-1.89-5.02c1-2.11,2.99-2.78,5.06-1.81
						C490.88,666.28,491.48,668.16,490.82,670.3z"/>
				</g>
				<g>
					<path class="st10" d="M470.04,704.42c-1.78-1.31-2.81-3-1.72-5.14c1.06-2.08,3.06-2.73,5.1-1.7c1.99,1.01,2.84,2.93,1.77,5.07
						C474.14,704.77,472.23,705.11,470.04,704.42z"/>
				</g>
				<g>
					<path class="st10" d="M458.54,654.92c-1.23,1.96-3.03,2.74-5.11,1.76c-2.04-0.96-2.91-2.87-1.9-5.02
						c1-2.11,2.99-2.79,5.06-1.82C458.63,650.81,459.31,652.66,458.54,654.92z"/>
				</g>
				<g>
					<path class="st10" d="M502.26,719.89c-1.78-1.31-2.81-3-1.72-5.14c1.06-2.08,3.06-2.73,5.1-1.7c1.99,1.01,2.84,2.93,1.77,5.07
						C506.36,720.24,504.45,720.58,502.26,719.89z"/>
				</g>
				<g>
					<path class="st10" d="M421.18,641.3c-1.82-1.24-2.88-2.91-1.87-5.08c0.99-2.12,2.97-2.82,5.04-1.86
						c2.03,0.94,2.92,2.84,1.93,5.01C425.3,641.54,423.39,641.91,421.18,641.3z"/>
				</g>
				<g>
					<path class="st10" d="M386.99,620.73c1.43-2.11,3.28-2.84,5.31-1.76c1.96,1.05,2.8,2.98,1.68,5.1
						c-1.09,2.07-3.09,2.65-5.12,1.6C386.82,624.62,386.33,622.73,386.99,620.73z"/>
				</g>
				<g>
					<path class="st10" d="M361.94,608.41c-1.29,2.05-3.1,2.84-5.17,1.85c-2.04-0.97-2.9-2.88-1.89-5.02c1-2.11,2.99-2.78,5.06-1.81
						C361.99,604.38,362.6,606.26,361.94,608.41z"/>
				</g>
				<g>
					<path class="st10" d="M329.7,592.93c-1.18,2.02-2.98,2.81-5.07,1.89c-2.07-0.91-2.96-2.82-2.01-4.98
						c0.94-2.14,2.93-2.85,5.02-1.93C329.71,588.82,330.4,590.67,329.7,592.93z"/>
				</g>
				<g>
					<path class="st10" d="M394.06,705.35c0.5-0.37,0.95-0.87,1.34-1.5c0.73-2.27,0.05-4.12-2-5.05c-0.65-0.3-1.3-0.42-1.9-0.39
						C392.36,700.71,393.21,703.03,394.06,705.35z"/>
				</g>
				<g>
					<path class="st10" d="M436.73,609.14c-1.91-1.31-2.96-2.98-1.95-5.15c0.99-2.11,2.98-2.81,5.05-1.84
						c2.03,0.95,2.91,2.84,1.92,5.01C440.76,609.33,438.83,609.64,436.73,609.14z"/>
				</g>
				<g>
					<path class="st10" d="M409.69,591.54c-1.25,2.14-3.05,2.94-5.14,2.01c-2.07-0.91-2.96-2.82-2.01-4.98
						c0.94-2.14,2.92-2.85,5.02-1.93C409.63,587.55,410.26,589.42,409.69,591.54z"/>
				</g>
				<g>
					<path class="st10" d="M377.36,576.28c-1.23,1.96-3.03,2.74-5.11,1.76c-2.04-0.96-2.91-2.87-1.9-5.02
						c1-2.11,2.99-2.79,5.06-1.82C377.45,572.16,378.12,574.02,377.36,576.28z"/>
				</g>
				<g>
					<path class="st10" d="M345.05,560.97c-1.31,1.87-3.15,2.61-5.18,1.52c-1.97-1.06-2.8-2.99-1.66-5.09
						c1.1-2.06,3.12-2.66,5.13-1.59C345.32,556.85,345.96,558.73,345.05,560.97z"/>
				</g>
				<g>
					<path class="st10" d="M312.94,545.27c-1.2,1.99-3,2.78-5.08,1.84c-2.06-0.93-2.94-2.84-1.97-4.99
						c0.96-2.13,2.95-2.83,5.03-1.89C312.98,541.16,313.66,543.01,312.94,545.27z"/>
				</g>
				<g>
					<path class="st10" d="M277.93,531.97c1.07-0.2,2.01-0.93,2.75-2.08c0.8-2.25,0.13-4.12-1.89-5.1c-1.62-0.79-3.2-0.53-4.3,0.65
						C275.63,527.62,276.78,529.8,277.93,531.97z"/>
				</g>
				<g>
					<path class="st10" d="M355.54,530.49c-1.91-1.31-2.96-2.98-1.95-5.15c0.99-2.11,2.98-2.81,5.05-1.84
						c2.03,0.95,2.91,2.84,1.92,5.01C359.57,530.69,357.64,531,355.54,530.49z"/>
				</g>
				<g>
					<path class="st10" d="M328.31,513.27c-1.31,1.88-3.14,2.62-5.17,1.53c-1.98-1.06-2.8-2.98-1.67-5.09
						c1.1-2.06,3.11-2.67,5.13-1.6C328.57,509.15,329.21,511.03,328.31,513.27z"/>
				</g>
				<g>
					<path class="st10" d="M296.2,497.62c-1.33,2.02-3.15,2.78-5.21,1.74c-2.01-1.01-2.86-2.92-1.79-5.05
						c1.05-2.09,3.04-2.73,5.09-1.71C296.32,493.59,296.91,495.48,296.2,497.62z"/>
				</g>
				<g>
					<path class="st10" d="M258.7,483.96c-1.78-1.31-2.81-3-1.72-5.14c1.06-2.08,3.06-2.73,5.1-1.7c1.99,1.01,2.84,2.93,1.77,5.07
						C262.8,484.31,260.89,484.65,258.7,483.96z"/>
				</g>
				<g>
					<path class="st10" d="M245.41,429.36c1.74,1.31,2.79,2.98,1.7,5.13c-1.06,2.1-3.04,2.72-5.09,1.7c-2.01-1-2.85-2.92-1.79-5.05
						C241.28,429.03,243.2,428.65,245.41,429.36z"/>
				</g>
				<g>
					<path class="st10" d="M279.41,450c-1.34,1.96-3.17,2.71-5.21,1.64c-1.99-1.04-2.82-2.96-1.71-5.08
						c1.08-2.07,3.09-2.69,5.12-1.64C279.6,445.95,280.2,447.84,279.41,450z"/>
				</g>
				<g>
					<path class="st10" d="M497.24,689.06c1.94,1.32,2.81,3.12,1.76,5.19c-1.01,2-2.95,2.81-5.09,1.78
						c-2.14-1.04-2.69-3.04-1.73-5.09C493.17,688.84,495.08,688.35,497.24,689.06z"/>
				</g>
				<g>
					<path class="st10" d="M246.13,448.22c-2.12-1.27-2.63-3.21-1.69-5.2c0.99-2.08,3.05-2.74,5.11-1.7
						c2.05,1.03,2.76,3.05,1.68,5.12C250.18,448.46,248.3,449.03,246.13,448.22z"/>
				</g>
				<g>
					<path class="st10" d="M278.35,463.7c-2.12-1.27-2.63-3.21-1.69-5.2c0.99-2.08,3.05-2.74,5.11-1.7
						c2.05,1.03,2.76,3.05,1.68,5.12C282.4,463.93,280.52,464.51,278.35,463.7z"/>
				</g>
				<g>
					<path class="st10" d="M310.58,479.18c-2.12-1.27-2.64-3.21-1.7-5.2c0.99-2.08,3.05-2.75,5.1-1.71
						c2.05,1.03,2.76,3.04,1.69,5.12C314.63,479.41,312.74,479.98,310.58,479.18z"/>
				</g>
				<g>
					<path class="st10" d="M255.55,458.31c-1.35,1.85-3.05,2.82-5.2,1.77c-2.14-1.05-2.7-3.05-1.73-5.09
						c0.99-2.07,2.94-2.8,5.06-1.77C255.79,454.27,256.18,456.18,255.55,458.31z"/>
				</g>
				<g>
					<path class="st10" d="M264.67,462.73c1.33-1.98,2.93-2.61,5.18-1.48c2.35,1.17,2.66,3.04,1.6,5.03
						c-1.02,1.91-2.98,2.5-4.95,1.54C264.38,466.79,263.83,464.95,264.67,462.73z"/>
				</g>
				<g>
					<path class="st10" d="M285.97,468.65c1.87,1.27,2.73,3.07,1.69,5.13c-1.01,2-2.95,2.81-5.09,1.78
						c-2.14-1.04-2.69-3.04-1.73-5.09C281.83,468.38,283.73,467.86,285.97,468.65z"/>
				</g>
				<g>
					<path class="st10" d="M302.02,476.68c2.44,1.12,2.71,3.07,1.66,5.06c-1.01,1.92-2.97,2.52-4.94,1.56
						c-2.1-1.02-2.86-2.88-1.77-5.06C298.06,476.04,299.9,475.71,302.02,476.68z"/>
				</g>
				<g>
					<path class="st10" d="M314.85,491.13c-2.03-1.15-2.74-2.99-1.84-5.07c0.91-2.11,2.85-2.9,4.99-1.94
						c2.13,0.96,2.87,2.93,1.94,5.01C319.01,491.2,317.13,491.87,314.85,491.13z"/>
				</g>
				<g>
					<path class="st10" d="M329.04,493.77c1.45-2.1,3.05-2.68,5.29-1.55c2.21,1.11,2.57,2.87,1.68,4.77c-1,2.13-3,2.77-5.11,1.76
						C328.75,497.72,328.34,495.82,329.04,493.77z"/>
				</g>
				<g>
					<path class="st10" d="M275.05,473.37c0.2,1.06,1.13,2.91,0.71,4.38c-0.6,2.12-2.74,3-4.89,2.07c-2.06-0.89-2.98-2.69-2.11-4.95
						C269.56,472.83,272.06,471.98,275.05,473.37z"/>
				</g>
				<g>
					<path class="st10" d="M300.88,490.57c1.08-2.3,3.58-3.23,5.5-2.11c1.87,1.09,2.6,2.91,1.66,4.87
						c-0.98,2.03-2.88,2.93-5.02,1.94C300.97,494.32,300.21,492.52,300.88,490.57z"/>
				</g>
				<g>
					<path class="st10" d="M251.94,427.33c1.23-2.35,4.01-3.4,5.51-1.88c1.07,1.09,1.84,3.44,1.42,4.82
						c-0.62,2.05-2.85,2.85-4.97,1.75C251.91,430.98,251.2,429.18,251.94,427.33z"/>
				</g>
				<g>
					<path class="st10" d="M333.11,506.01c1.15-2.33,3.93-3.45,5.46-1.96c1.1,1.07,1.91,3.4,1.53,4.8c-0.57,2.07-2.8,2.9-4.93,1.86
						C333.14,509.71,332.41,507.92,333.11,506.01z"/>
				</g>
				<g>
					<path class="st10" d="M262.9,495.93c-2.14-1.26-2.65-3.2-1.72-5.19c0.98-2.09,3.04-2.76,5.1-1.73
						c2.06,1.02,2.77,3.03,1.71,5.11C266.95,496.14,265.07,496.72,262.9,495.93z"/>
				</g>
				<g>
					<path class="st10" d="M295.18,511.44c-2.21-1.34-2.72-3.28-1.76-5.26c1-2.07,3.06-2.73,5.11-1.69
						c2.04,1.04,2.75,3.06,1.66,5.13C299.14,511.63,297.24,512.18,295.18,511.44z"/>
				</g>
				<g>
					<path class="st10" d="M327.54,526.96c-2.27-1.17-2.82-3.11-1.99-5.13c0.88-2.15,2.93-2.87,5.02-1.94
						c2.11,0.93,2.88,2.91,1.92,5.03C331.55,527.01,329.68,527.62,327.54,526.96z"/>
				</g>
				<g>
					<path class="st10" d="M359.45,542.3c-2.06-1.3-2.56-3.24-1.57-5.21c1.03-2.05,3.09-2.7,5.14-1.62c2.03,1.07,2.71,3.1,1.6,5.15
						C363.53,542.6,361.64,543.18,359.45,542.3z"/>
				</g>
				<g>
					<path class="st10" d="M270.27,500.75c2.03,1.27,2.93,3.05,1.96,5.15c-0.94,2.04-2.86,2.89-5.03,1.94
						c-2.19-0.96-2.78-2.96-1.9-5.03C266.23,500.68,268.13,500.15,270.27,500.75z"/>
				</g>
				<g>
					<path class="st10" d="M286.47,508.88c2.43,1.03,2.82,2.97,1.78,4.99c-1.06,2.07-3.11,2.66-5.18,1.55
						c-1.91-1.02-2.62-2.83-1.62-4.88C282.51,508.37,284.29,507.85,286.47,508.88z"/>
				</g>
				<g>
					<path class="st10" d="M304.48,521.55c-1.4,1.84-3.12,2.78-5.25,1.67c-2.11-1.1-2.63-3.11-1.61-5.13
						c1.03-2.04,3.01-2.75,5.1-1.65C304.79,517.52,305.18,519.44,304.48,521.55z"/>
				</g>
				<g>
					<path class="st10" d="M313.5,526.19c1.21-2.12,2.81-2.92,5.1-1.91c2.29,1.01,2.92,2.81,1.95,4.94
						c-0.92,2.01-2.82,2.66-4.84,1.87C313.5,530.23,312.87,528.39,313.5,526.19z"/>
				</g>
				<g>
					<path class="st10" d="M336.74,536.96c-1.35,1.85-3.05,2.82-5.2,1.77c-2.14-1.05-2.7-3.05-1.73-5.09
						c0.99-2.07,2.94-2.8,5.06-1.77C336.98,532.91,337.37,534.82,336.74,536.96z"/>
				</g>
				<g>
					<path class="st10" d="M350.74,539.74c2.41,0.95,2.99,2.81,2.03,4.92c-0.98,2.14-2.98,2.78-5.1,1.8
						c-1.98-0.92-2.75-2.72-1.87-4.79C346.75,539.45,348.52,538.82,350.74,539.74z"/>
				</g>
				<g>
					<path class="st10" d="M368.99,552.37c-1.29,1.85-2.97,2.86-5.14,1.88c-2.18-0.99-2.77-2.98-1.86-5.04
						c0.93-2.1,2.86-2.87,5.01-1.9C369.15,548.28,369.57,550.19,368.99,552.37z"/>
				</g>
				<g>
					<path class="st10" d="M377.94,557.14c1.21-2.12,2.81-2.92,5.1-1.91c2.29,1.01,2.93,2.81,1.95,4.94
						c-0.92,2.01-2.82,2.66-4.84,1.87C377.93,561.17,377.32,559.34,377.94,557.14z"/>
				</g>
				<g>
					<path class="st10" d="M400.08,563.31c-0.24-0.18-0.5-0.35-0.81-0.5c-2.13-1.01-4.08-0.26-5.04,1.82
						c-0.95,2.05-0.38,4.05,1.78,5.07c2.16,1.02,3.85,0.03,5.18-1.82c0.37-1.33,0.36-2.56-0.2-3.55
						C400.69,563.99,400.38,563.65,400.08,563.31z"/>
				</g>
				<g>
					<path class="st10" d="M247.79,415.27c1.41-2.18,3.01-2.84,5.27-1.74c2.34,1.14,2.72,2.99,1.68,5.01
						c-1,1.93-2.94,2.53-4.93,1.62C247.63,419.16,247.18,417.29,247.79,415.27z"/>
				</g>
				<g>
					<path class="st10" d="M285.44,522.7c1.24-2.34,4.04-3.39,5.53-1.85c1.07,1.1,1.82,3.45,1.4,4.83
						c-0.63,2.04-2.87,2.84-4.98,1.72C285.39,526.35,284.68,524.55,285.44,522.7z"/>
				</g>
				<g>
					<path class="st10" d="M238.86,410.52c-1.26,1.86-2.93,2.89-5.11,1.94c-2.2-0.95-2.81-2.95-1.93-5.02
						c0.9-2.12,2.83-2.91,4.98-1.97C238.96,406.42,239.4,408.32,238.86,410.52z"/>
				</g>
				<g>
					<path class="st10" d="M317.75,537.98c1.39-2.29,3.96-2.95,5.72-1.62c1.71,1.29,2.32,3.15,1.13,5.01
						c-1.2,1.88-3.14,2.66-5.19,1.4C317.5,541.6,316.84,539.78,317.75,537.98z"/>
				</g>
				<g>
					<path class="st10" d="M350.08,553.27c1.05-1.97,3.85-3.01,5.33-1.47c1.06,1.11,1.82,3.45,1.39,4.83
						c-0.64,2.04-2.82,2.74-5,1.74C349.88,557.49,349.13,555.06,350.08,553.27z"/>
				</g>
				<g>
					<path class="st10" d="M382.12,569.08c1.29-2.34,4.11-3.34,5.56-1.78c1.05,1.12,1.77,3.48,1.32,4.85
						c-0.67,2.02-2.91,2.8-5.01,1.64C382.02,572.71,381.32,570.9,382.12,569.08z"/>
				</g>
				<g>
					<path class="st10" d="M420.6,582.9c0.24,1.05,1.22,2.88,0.84,4.35c-0.55,2.14-2.67,3.06-4.83,2.2
						c-2.08-0.83-3.04-2.61-2.24-4.89C415.09,582.49,417.53,581.59,420.6,582.9z"/>
				</g>
				<g>
					<path class="st10" d="M283.8,543.06c0.35-0.32,0.67-0.73,0.92-1.24c1.07-2.07,0.37-4.08-1.68-5.12
						c-0.97-0.49-1.94-0.59-2.79-0.35C281.43,538.59,282.61,540.83,283.8,543.06z"/>
				</g>
				<g>
					<path class="st10" d="M312,559.18c-2.26-1.3-2.79-3.24-1.87-5.24c0.96-2.1,3.01-2.78,5.08-1.77c2.07,1.01,2.79,3.01,1.75,5.09
						C315.95,559.29,314.06,559.86,312,559.18z"/>
				</g>
				<g>
					<path class="st10" d="M344.23,574.65c-2.27-1.3-2.79-3.24-1.88-5.24c0.96-2.1,3.01-2.78,5.08-1.77
						c2.07,1.01,2.79,3.01,1.75,5.09C348.17,574.76,346.28,575.33,344.23,574.65z"/>
				</g>
				<g>
					<path class="st10" d="M376.45,590.12c-2.26-1.3-2.79-3.24-1.87-5.24c0.96-2.1,3.01-2.78,5.08-1.77
						c2.07,1.01,2.79,3.01,1.75,5.09C380.39,590.24,378.5,590.81,376.45,590.12z"/>
				</g>
				<g>
					<path class="st10" d="M406.69,600.31c1.37-1.93,3.18-2.76,5.24-1.7c2.04,1.05,2.75,3.06,1.66,5.13c-1.05,2-2.97,2.74-5.12,1.7
						C406.25,604.35,406.2,602.37,406.69,600.31z"/>
				</g>
				<g>
					<path class="st10" d="M440.7,620.99c-2.13-1.37-2.63-3.31-1.63-5.28c1.04-2.05,3.11-2.69,5.15-1.59
						c2.02,1.08,2.7,3.11,1.57,5.16C444.69,621.26,442.79,621.79,440.7,620.99z"/>
				</g>
				<g>
					<path class="st10" d="M473.08,636.52c-2.21-1.21-2.75-3.14-1.88-5.16c0.92-2.12,2.97-2.82,5.05-1.86
						c2.09,0.97,2.84,2.96,1.84,5.06C477.11,636.64,475.24,637.23,473.08,636.52z"/>
				</g>
				<g>
					<path class="st10" d="M289.18,553.16c0.38-2-0.12-3.71-2.13-4.6c-0.14-0.06-0.27-0.09-0.4-0.14
						C287.49,550,288.33,551.58,289.18,553.16z"/>
				</g>
				<g>
					<path class="st10" d="M298.01,558.38c1.41-2.19,3.01-2.87,5.27-1.77c2.33,1.13,2.74,2.98,1.7,5c-0.99,1.94-2.93,2.54-4.92,1.64
						C297.88,562.26,297.42,560.39,298.01,558.38z"/>
				</g>
				<g>
					<path class="st10" d="M315.95,570.97c-1.95-1.27-2.61-3.12-1.59-5.16c1.02-2.05,2.99-2.77,5.08-1.69
						c2.06,1.06,2.74,3.06,1.68,5.11C320.09,571.22,318.2,571.83,315.95,570.97z"/>
				</g>
				<g>
					<path class="st10" d="M330.23,573.86c1.41-2.2,3.01-2.88,5.27-1.78c2.33,1.12,2.74,2.97,1.7,5c-0.99,1.94-2.92,2.54-4.92,1.64
						C330.1,577.74,329.65,575.87,330.23,573.86z"/>
				</g>
				<g>
					<path class="st10" d="M353.51,584.61c-1.31,1.85-3,2.85-5.16,1.84c-2.17-1.01-2.74-3.01-1.81-5.06
						c0.95-2.09,2.89-2.85,5.03-1.85C353.69,580.54,354.1,582.45,353.51,584.61z"/>
				</g>
				<g>
					<path class="st10" d="M367.62,587.51c2.43,1.01,2.85,2.94,1.83,4.98c-1.05,2.09-3.08,2.68-5.17,1.6
						c-1.93-1-2.65-2.81-1.67-4.86C363.65,587.04,365.44,586.5,367.62,587.51z"/>
				</g>
				<g>
					<path class="st10" d="M383.84,594.96c1.89,1.22,2.78,3.01,1.78,5.1c-0.97,2.03-2.89,2.86-5.05,1.88
						c-2.17-0.99-2.75-2.99-1.83-5.05C379.68,594.77,381.57,594.22,383.84,594.96z"/>
				</g>
				<g>
					<path class="st10" d="M394.7,604.81c1.22-2.11,2.82-2.88,5.1-1.86c2.3,1.03,2.9,2.83,1.91,4.95c-0.93,2-2.84,2.65-4.85,1.84
						C394.67,608.85,394.05,607.01,394.7,604.81z"/>
				</g>
				<g>
					<path class="st10" d="M416.08,610.44c1.89,1.23,2.77,3.02,1.76,5.1c-0.98,2.02-2.9,2.85-5.06,1.86c-2.17-1-2.74-3-1.81-5.06
						C411.92,610.23,413.81,609.69,416.08,610.44z"/>
				</g>
				<g>
					<path class="st10" d="M432.14,618.5c2.43,1.06,2.77,3.01,1.71,5.01c-1.09,2.05-3.15,2.62-5.2,1.48
						c-1.89-1.05-2.59-2.87-1.56-4.9C428.19,617.92,429.98,617.44,432.14,618.5z"/>
				</g>
				<g>
					<path class="st10" d="M450.15,631.07c-1.35,1.85-3.05,2.83-5.2,1.78c-2.14-1.04-2.7-3.04-1.74-5.09
						c0.98-2.07,2.93-2.81,5.05-1.78C450.38,627.02,450.78,628.93,450.15,631.07z"/>
				</g>
				<g>
					<path class="st10" d="M464.18,633.87c2.42,0.97,2.96,2.84,1.99,4.93c-0.99,2.13-3,2.76-5.12,1.75
						c-1.97-0.94-2.73-2.74-1.82-4.81C460.19,633.54,461.97,632.93,464.18,633.87z"/>
				</g>
				<g>
					<path class="st10" d="M480.46,641.36c1.92,1.2,2.82,2.98,1.85,5.08c-0.94,2.04-2.86,2.89-5.03,1.94
						c-2.19-0.96-2.78-2.96-1.9-5.03C476.29,641.22,478.18,640.65,480.46,641.36z"/>
				</g>
				<g>
					<path class="st10" d="M496.63,649.47c2.43,1.08,2.7,3.03,1.65,5.03c-1.01,1.92-2.97,2.52-4.94,1.56
						c-2.1-1.02-2.87-2.89-1.77-5.06C492.66,648.83,494.47,648.39,496.63,649.47z"/>
				</g>
				<g>
					<path class="st10" d="M512.85,656.92c1.83,1.3,2.69,3.11,1.6,5.16c-1.05,1.98-3,2.77-5.12,1.69c-2.12-1.08-2.64-3.09-1.64-5.12
						C508.71,656.58,510.61,656.08,512.85,656.92z"/>
				</g>
				<g>
					<path class="st10" d="M302.19,570.39c1.26-2.34,4.07-3.37,5.54-1.83c1.06,1.11,1.8,3.46,1.36,4.84
						c-0.65,2.03-2.89,2.82-4.99,1.69C302.12,574.02,301.42,572.22,302.19,570.39z"/>
				</g>
				<g>
					<path class="st10" d="M229.29,400.48c-2.05-1.3-2.55-3.24-1.56-5.22c1.03-2.05,3.1-2.7,5.14-1.61c2.02,1.08,2.71,3.1,1.59,5.15
						C233.37,400.79,231.48,401.37,229.29,400.48z"/>
				</g>
				<g>
					<path class="st10" d="M334.39,585.91c1.19-2.34,3.97-3.43,5.49-1.92c1.09,1.08,1.88,3.42,1.48,4.81
						c-0.6,2.06-2.83,2.88-4.95,1.81C334.39,589.58,333.67,587.79,334.39,585.91z"/>
				</g>
				<g>
					<path class="st10" d="M366.58,601.44c1.05-2.28,3.55-3.23,5.48-2.13c1.89,1.07,2.62,2.89,1.69,4.85
						c-0.96,2.04-2.86,2.94-5,1.97C366.7,605.21,365.94,603.41,366.58,601.44z"/>
				</g>
				<g>
					<path class="st10" d="M405.31,615.27c0.16,1.08,1.02,2.96,0.54,4.42c-0.68,2.08-2.82,2.92-4.95,1.88
						c-2.01-0.98-2.9-2.77-1.91-5.01C399.89,614.53,402.4,613.76,405.31,615.27z"/>
				</g>
				<g>
					<path class="st10" d="M431.04,632.36c1.13-2.32,3.9-3.47,5.45-1.99c1.11,1.06,1.94,3.38,1.56,4.78
						c-0.56,2.08-2.78,2.92-4.92,1.89C431.09,636.08,430.35,634.28,431.04,632.36z"/>
				</g>
				<g>
					<path class="st10" d="M463.25,647.86c1.07-2.29,3.56-3.23,5.49-2.12c1.88,1.08,2.61,2.9,1.67,4.86
						c-0.97,2.04-2.87,2.93-5.01,1.95C463.35,651.61,462.59,649.82,463.25,647.86z"/>
				</g>
				<g>
					<path class="st10" d="M495.74,662.81c1.09-1.95,3.9-2.94,5.35-1.38c1.04,1.13,1.76,3.49,1.3,4.85
						c-0.68,2.02-2.86,2.7-5.03,1.65C495.46,667.01,494.76,664.58,495.74,662.81z"/>
				</g>
				<g>
					<path class="st10" d="M534.19,677.17c0.16,1.08,1.02,2.96,0.54,4.42c-0.68,2.08-2.82,2.92-4.95,1.88
						c-2.01-0.98-2.9-2.77-1.91-5.01C528.77,676.43,531.28,675.66,534.19,677.17z"/>
				</g>
				<g>
					<path class="st10" d="M559.93,694.23c1.18-2.33,3.96-3.43,5.48-1.92c1.09,1.08,1.88,3.41,1.48,4.81
						c-0.59,2.06-2.82,2.88-4.95,1.81C559.94,697.91,559.21,696.12,559.93,694.23z"/>
				</g>
				<g>
					<path class="st10" d="M471.12,726.81c-0.09-0.28-0.16-0.54-0.21-0.76c-1.91-0.89-3.62-0.86-4.81-0.18
						C467.77,726.2,469.45,726.51,471.12,726.81z"/>
				</g>
				<g>
					<path class="st10" d="M438.61,710.51c0.24,1.05,1.22,2.88,0.84,4.35c-0.55,2.14-2.67,3.07-4.83,2.2
						c-2.08-0.83-3.04-2.61-2.24-4.89C433.11,710.1,435.55,709.2,438.61,710.51z"/>
				</g>
				<g>
					<path class="st10" d="M400.13,696.7c1.29-2.34,4.1-3.34,5.56-1.79c1.05,1.12,1.77,3.48,1.32,4.85c-0.67,2.03-2.91,2.8-5,1.65
						C400.04,700.32,399.34,698.52,400.13,696.7z"/>
				</g>
				<g>
					<path class="st10" d="M334.01,602.05c-0.3-0.93-1.02-1.72-2.11-2.23c-1.18-0.55-2.35-0.54-3.31-0.06
						C330.57,600.17,332.39,600.95,334.01,602.05z"/>
				</g>
				<g>
					<path class="st10" d="M359,617.06c1.37-1.93,3.18-2.76,5.24-1.7c2.04,1.05,2.75,3.06,1.66,5.13c-1.05,2-2.97,2.74-5.12,1.7
						C358.56,621.1,358.51,619.11,359,617.06z"/>
				</g>
				<g>
					<path class="st10" d="M498.33,729.64c-0.13-0.08-0.24-0.16-0.38-0.23c-1.55-0.78-2.79-0.71-3.85,0.04
						C495.52,729.52,496.92,729.6,498.33,729.64z"/>
				</g>
				<g>
					<path class="st10" d="M393.16,637.79c-2.21-1.21-2.74-3.15-1.87-5.16c0.92-2.12,2.97-2.82,5.05-1.85
						c2.09,0.97,2.83,2.96,1.83,5.07C397.19,637.91,395.32,638.51,393.16,637.79z"/>
				</g>
				<g>
					<path class="st10" d="M477.76,727.85c1.26,0.18,2.51,0.36,3.77,0.51c0.83-0.38,1.55-1.1,2.17-2.02c0.52-2.2,0.08-4.11-2.1-5.03
						c-2.16-0.92-4.09-0.11-4.97,2.01C475.9,725.09,476.26,726.81,477.76,727.85z"/>
				</g>
				<g>
					<path class="st10" d="M425.33,653.24c-2.17-1.23-2.7-3.17-1.8-5.17c0.95-2.11,3-2.79,5.07-1.8c2.07,0.99,2.81,2.99,1.78,5.09
						C429.37,653.41,427.5,653.99,425.33,653.24z"/>
				</g>
				<g>
					<path class="st10" d="M460.67,715.18c1.42-1.88,3.05-2.33,5.24-1.14c2.21,1.2,2.4,3.01,1.45,4.83
						c-1.08,2.06-3.13,2.66-5.19,1.53C460.12,719.27,459.65,717.38,460.67,715.18z"/>
				</g>
				<g>
					<path class="st10" d="M457.37,668.63c-2.05-1.3-2.55-3.25-1.55-5.22c1.03-2.05,3.1-2.69,5.14-1.6
						c2.02,1.08,2.71,3.11,1.58,5.15C461.45,668.95,459.56,669.52,457.37,668.63z"/>
				</g>
				<g>
					<path class="st10" d="M449.71,705.9c1.82,1.32,2.67,3.13,1.56,5.17c-1.07,1.96-3.02,2.75-5.13,1.65
						c-2.11-1.09-2.62-3.11-1.6-5.13C445.57,705.53,447.48,705.04,449.71,705.9z"/>
				</g>
				<g>
					<path class="st10" d="M489.76,684.19c-2.16-1.24-2.69-3.17-1.78-5.18c0.95-2.1,3.01-2.79,5.08-1.79c2.07,1,2.8,3,1.76,5.09
						C493.8,684.36,491.93,684.95,489.76,684.19z"/>
				</g>
				<g>
					<path class="st10" d="M428.21,700.15c1.24-2.08,2.84-2.84,5.12-1.8c2.31,1.05,2.86,2.86,1.86,4.96
						c-0.95,1.99-2.87,2.62-4.87,1.79C428.14,704.2,427.53,702.36,428.21,700.15z"/>
				</g>
				<g>
					<path class="st10" d="M522.3,699.81c-2.43-1.23-2.98-3.17-2.16-5.2c0.86-2.15,2.91-2.88,5.01-1.97
						c2.12,0.91,2.89,2.9,1.95,5.02C526.17,699.76,524.28,700.33,522.3,699.81z"/>
				</g>
				<g>
					<path class="st10" d="M419.24,695.43c-1.27,1.85-2.94,2.88-5.12,1.92c-2.19-0.97-2.79-2.96-1.9-5.03
						c0.91-2.11,2.84-2.9,4.99-1.94C419.36,691.33,419.8,693.24,419.24,695.43z"/>
				</g>
				<g>
					<path class="st10" d="M554.23,715.15c-2.19-1.22-2.72-3.16-1.83-5.17c0.94-2.11,2.99-2.8,5.07-1.82
						c2.08,0.98,2.82,2.98,1.8,5.08C558.27,715.29,556.39,715.89,554.23,715.15z"/>
				</g>
				<g>
					<path class="st10" d="M401.15,682.91c2.44,1.03,2.82,2.97,1.78,4.99c-1.06,2.07-3.11,2.66-5.18,1.55
						c-1.91-1.02-2.63-2.83-1.62-4.88C397.19,682.4,398.97,681.89,401.15,682.91z"/>
				</g>
				<g>
					<path class="st10" d="M348.86,626.32c0.04,0.02,0.07,0.04,0.11,0.06c1.98,0.95,3.93,0.36,4.95-1.56c1.06-2,0.73-3.86-1.61-5.03
						c-2.25-1.12-3.85-0.48-5.18,1.5c-0.21,0.57-0.33,1.11-0.36,1.62C347.44,624.07,348.15,625.2,348.86,626.32z"/>
				</g>
				<g>
					<path class="st10" d="M370.33,632.18c-1.37,1.95-3.05,2.97-5.22,1.98c-2.18-0.99-2.76-2.99-1.85-5.05
						c0.93-2.1,2.87-2.87,5.01-1.89C370.43,628.2,370.79,630.13,370.33,632.18z"/>
				</g>
				<g>
					<path class="st10" d="M384.35,635.19c2.43,1.01,2.87,2.92,1.85,4.97c-1.04,2.09-3.07,2.69-5.16,1.62
						c-1.93-0.99-2.66-2.8-1.69-4.86C380.38,634.74,382.16,634.2,384.35,635.19z"/>
				</g>
				<g>
					<path class="st10" d="M402.51,647.75c-1.44,1.94-3.15,2.9-5.29,1.84c-2.13-1.06-2.67-3.07-1.69-5.1c1-2.06,2.96-2.78,5.07-1.73
						C402.72,643.8,403.03,645.74,402.51,647.75z"/>
				</g>
				<g>
					<path class="st10" d="M411.44,652.52c1.22-2.11,2.82-2.9,5.1-1.88c2.29,1.02,2.91,2.82,1.93,4.94c-0.93,2-2.83,2.66-4.85,1.86
						C411.42,656.55,410.8,654.72,411.44,652.52z"/>
				</g>
				<g>
					<path class="st10" d="M432.81,658.13c1.89,1.22,2.78,3.01,1.78,5.1c-0.97,2.03-2.89,2.86-5.05,1.88
						c-2.17-0.99-2.75-2.99-1.83-5.05C428.65,657.94,430.54,657.39,432.81,658.13z"/>
				</g>
				<g>
					<path class="st10" d="M443.75,667.8c1.3-2.02,2.89-2.7,5.16-1.6c2.34,1.13,2.74,2.97,1.7,5c-0.99,1.94-2.93,2.55-4.92,1.64
						C443.54,671.85,442.97,670.01,443.75,667.8z"/>
				</g>
				<g>
					<path class="st10" d="M461.68,680.61c-1.99-1.19-2.69-3.03-1.75-5.09c0.95-2.09,2.89-2.86,5.02-1.86
						c2.11,0.99,2.83,2.98,1.85,5.04C465.85,680.74,463.97,681.4,461.68,680.61z"/>
				</g>
				<g>
					<path class="st10" d="M475.86,683.45c1.41-2.2,3.01-2.88,5.27-1.79c2.33,1.13,2.74,2.97,1.7,5c-0.99,1.94-2.93,2.54-4.92,1.64
						C475.72,687.33,475.28,685.46,475.86,683.45z"/>
				</g>
				<g>
					<path class="st10" d="M384.22,680.41c0.23,0.52,0.44,1.04,0.66,1.56c0.86-0.33,1.57-1.01,2.03-2.04
						c0.94-2.08,0.2-4.06-1.93-5.02c-1.26-0.57-2.43-0.51-3.38,0.04C382.52,676.74,383.41,678.55,384.22,680.41z"/>
				</g>
				<g>
					<path class="st10" d="M508.01,699.1c1.31-2.27,2.91-3.06,5.19-2.05c2.29,1.02,2.91,2.82,1.93,4.94c-0.93,2-2.83,2.65-4.85,1.86
						C508.05,702.98,507.55,701.1,508.01,699.1z"/>
				</g>
				<g>
					<path class="st10" d="M531.32,709.74c-1.37,1.84-3.07,2.81-5.22,1.74c-2.13-1.06-2.67-3.07-1.69-5.1
						c1-2.06,2.96-2.78,5.07-1.73C531.58,705.7,531.97,707.61,531.32,709.74z"/>
				</g>
				<g>
					<path class="st10" d="M540.58,713.91c1.42-1.88,3.05-2.33,5.24-1.14c2.21,1.2,2.4,3.01,1.45,4.83
						c-1.08,2.06-3.13,2.66-5.19,1.53C540.03,718,539.56,716.11,540.58,713.91z"/>
				</g>
				<g>
					<path class="st10" d="M356.92,638.15c0.49-0.37,0.89-0.87,1.11-1.53c0.46-1.37-0.24-3.73-1.28-4.86
						c-1.05-1.14-2.82-0.93-4.22,0.17C353.96,634.02,355.43,636.09,356.92,638.15z"/>
				</g>
				<g>
					<path class="st10" d="M383.39,648.99c1.3-2.34,4.11-3.33,5.56-1.76c1.04,1.13,1.76,3.49,1.3,4.86
						c-0.67,2.02-2.92,2.79-5.01,1.63C383.28,652.61,382.59,650.81,383.39,648.99z"/>
				</g>
				<g>
					<path class="st10" d="M415.58,664.53c1.22-2.35,4-3.41,5.5-1.89c1.08,1.09,1.85,3.43,1.44,4.82c-0.61,2.05-2.84,2.86-4.96,1.77
						C415.56,668.2,414.85,666.4,415.58,664.53z"/>
				</g>
				<g>
					<path class="st10" d="M448.02,679.61c1.05-1.97,3.86-3,5.33-1.46c1.06,1.11,1.81,3.46,1.38,4.83c-0.64,2.04-2.82,2.74-5,1.73
						C447.81,683.82,447.06,681.39,448.02,679.61z"/>
				</g>
				<g>
					<path class="st10" d="M480.03,695.47c1.24-2.35,4.03-3.4,5.52-1.87c1.07,1.1,1.83,3.44,1.41,4.83
						c-0.63,2.04-2.86,2.85-4.97,1.74C479.99,699.12,479.28,697.32,480.03,695.47z"/>
				</g>
				<g>
					<path class="st10" d="M518.72,709.39c0.16,1.08,1.02,2.96,0.54,4.42c-0.68,2.08-2.83,2.92-4.95,1.88
						c-2.01-0.98-2.9-2.77-1.91-5.01C513.3,708.65,515.81,707.88,518.72,709.39z"/>
				</g>
				<g>
					<path class="st10" d="M511.79,729.48c0.67-1.84-0.07-3.57-1.91-4.52c-2.05-1.06-4.12-0.4-5.12,1.67
						c-0.52,1.07-0.6,2.12-0.24,3.07C506.95,729.68,509.37,729.59,511.79,729.48z"/>
				</g>
				<g>
					<path class="st10" d="M473.97,716.25c-1.94-1.36-2.43-3.31-1.35-5.25c1.1-1.99,3.18-2.61,5.19-1.44
						c1.97,1.15,2.62,3.19,1.41,5.2C478.07,716.71,476.16,717.24,473.97,716.25z"/>
				</g>
				<g>
					<path class="st10" d="M441.9,700.85c-2.05-1.3-2.55-3.24-1.56-5.22c1.03-2.05,3.1-2.7,5.14-1.61c2.02,1.08,2.71,3.1,1.59,5.15
						C445.98,701.17,444.09,701.74,441.9,700.85z"/>
				</g>
				<g>
					<path class="st10" d="M409.92,685.49c-2.21-1.2-2.75-3.14-1.88-5.15c0.92-2.13,2.97-2.83,5.05-1.87
						c2.09,0.96,2.84,2.96,1.85,5.06C413.95,685.6,412.07,686.2,409.92,685.49z"/>
				</g>
				<g>
					<path class="st10" d="M379.09,670.29c1.53,0.09,2.81-0.61,3.59-2.17c1.04-2.09,0.32-4.09-1.75-5.09
						c-2.07-1.01-4.12-0.33-5.08,1.77c-0.01,0.02-0.01,0.04-0.02,0.06C376.95,666.65,378.04,668.45,379.09,670.29z"/>
				</g>
				<g>
					<path class="st10" d="M396.36,670.6c2.54,1.2,3.53,3.56,2.41,5.43c-1.13,1.88-2.94,2.56-4.94,1.65
						c-2.16-0.99-2.84-2.9-1.86-5.06C392.88,670.61,394.57,669.95,396.36,670.6z"/>
				</g>
				<g>
					<path class="st10" d="M423.9,687.24c1.65-0.35,3.42-1.25,4.93-0.93c2.3,0.49,3.26,3.19,2.2,5.1c-1.08,1.93-2.84,2.53-4.9,1.81
						C424.18,692.54,423.27,690.09,423.9,687.24z"/>
				</g>
				<g>
					<path class="st10" d="M456.13,702.69c1.65-0.34,3.43-1.22,4.94-0.89c2.28,0.5,3.24,3.23,2.17,5.11
						c-1.09,1.92-2.85,2.52-4.92,1.78C456.38,707.99,455.48,705.54,456.13,702.69z"/>
				</g>
				<g>
					<path class="st10" d="M488.58,718.98c1.23-1.87,2.76-2.77,4.89-1.71c2.1,1.05,3.06,2.79,2.03,4.99c-1,2.13-2.97,2.8-5.1,1.8
						C488.22,723.04,487.83,721.13,488.58,718.98z"/>
				</g>
				<g>
					<path class="st10" d="M518.43,727.67c-1.93-1.28-2.88-3.02-1.81-5.12c1.13-2.23,3.02-2.62,5.32-1.46
						c2.22,1.11,2.45,2.91,1.54,4.74C522.49,727.83,520.63,728.49,518.43,727.67z"/>
				</g>
				<g>
					<path class="st10" d="M486.15,712.16c-1.91-1.3-2.83-3.06-1.73-5.15c1.16-2.21,3.07-2.56,5.35-1.38
						c2.2,1.14,2.39,2.96,1.46,4.77C490.21,712.39,488.34,713.04,486.15,712.16z"/>
				</g>
				<g>
					<path class="st10" d="M454.11,696.78c-1.97-1.22-2.96-2.92-2-5.07c0.95-2.14,2.78-2.71,5-1.8c2.3,0.95,2.95,2.76,1.99,4.85
						C458.17,696.81,456.33,697.5,454.11,696.78z"/>
				</g>
				<g>
					<path class="st10" d="M424.98,674.49c2.4,0.98,2.84,2.89,1.84,4.9c-0.99,1.99-2.89,2.86-5.04,1.77
						c-2.05-1.04-2.85-2.93-1.83-5.04C420.97,674.01,422.83,673.53,424.98,674.49z"/>
				</g>
				<g>
					<path class="st10" d="M392.88,659.11c2.28,0.9,2.64,2.76,1.8,4.65c-0.9,2.04-2.74,2.9-4.98,2.03
						c-2.04-0.79-2.95-3.42-1.97-5.29C388.71,658.65,390.79,658.09,392.88,659.11z"/>
				</g>
				<g>
					<path class="st10" d="M258.25,444.1c-1.97-1.22-2.96-2.92-2-5.07c0.95-2.14,2.78-2.71,5-1.8c2.3,0.95,2.95,2.76,1.99,4.85
						C262.31,444.13,260.46,444.83,258.25,444.1z"/>
				</g>
				<g>
					<path class="st10" d="M569.66,717.21c1.16-0.37,2.31-0.79,3.44-1.23c-1.49-0.27-3.22,0.59-4.39,0.84
						c-0.07,0.26-0.11,0.48-0.16,0.72C568.92,717.43,569.29,717.33,569.66,717.21z"/>
				</g>
				<g>
					<path class="st10" d="M536.23,702.32c1.19-1.91,2.72-2.86,4.86-1.84c2.09,1,3.13,2.71,2.14,4.95
						c-0.96,2.17-2.92,2.86-5.06,1.91C535.96,706.38,535.54,704.47,536.23,702.32z"/>
				</g>
				<g>
					<path class="st10" d="M504.07,686.71c1.26-1.85,2.78-2.73,4.91-1.64c2.11,1.08,3.02,2.83,1.97,5c-1.03,2.12-3,2.77-5.12,1.74
						C503.67,690.77,503.3,688.85,504.07,686.71z"/>
				</g>
				<g>
					<path class="st10" d="M476.75,669.59c2.21,1.11,3,2.9,1.96,5.04c-1.03,2.11-3.03,2.76-5.13,1.7c-2.12-1.07-2.7-3.01-1.62-5.13
						C472.98,669.21,474.68,668.64,476.75,669.59z"/>
				</g>
				<g>
					<path class="st10" d="M439.38,655.01c1.65-0.34,3.43-1.23,4.94-0.91c2.28,0.49,3.25,3.22,2.18,5.11
						c-1.08,1.93-2.85,2.53-4.91,1.79C439.65,660.31,438.74,657.86,439.38,655.01z"/>
				</g>
				<g>
					<path class="st10" d="M407.39,640.33c1.23-1.87,2.76-2.77,4.89-1.7c2.1,1.05,3.06,2.79,2.02,4.99c-1.01,2.13-2.97,2.8-5.1,1.8
						C407.03,644.39,406.64,642.48,407.39,640.33z"/>
				</g>
				<g>
					<path class="st10" d="M375.1,625.01c1.16-1.94,2.68-2.87,4.84-1.94c2.19,0.94,3.19,3.37,2.1,5.24
						c-1.11,1.9-2.91,2.58-4.92,1.71C374.91,629.05,374.45,627.17,375.1,625.01z"/>
				</g>
				<g>
					<path class="st10" d="M343.16,608.51c1.2-0.26,2.96-1.16,4.48-0.84c2.29,0.48,3.27,3.18,2.21,5.09
						c-1.07,1.94-2.87,2.63-4.89,1.8C342.74,613.66,342.24,611.77,343.16,608.51z"/>
				</g>
				<g>
					<path class="st10" d="M570.04,704.49c1.75,0.72,2.14,2.64,1.11,4.64c-1.02,1.97-2.93,2.82-5.07,1.69
						c-2.03-1.08-2.8-2.98-1.75-5.07C565.39,703.65,567.25,703.18,570.04,704.49z"/>
				</g>
				<g>
					<path class="st10" d="M537.64,688.95c1.85,0.71,2.23,2.57,1.41,4.46c-0.89,2.05-2.72,2.92-4.96,2.07
						c-2.04-0.77-3.07-3.44-1.99-5.26C533.3,688.2,535.07,687.7,537.64,688.95z"/>
				</g>
				<g>
					<path class="st10" d="M505.42,673.47c1.85,0.71,2.23,2.57,1.41,4.46c-0.89,2.05-2.72,2.92-4.96,2.07
						c-2.04-0.77-3.07-3.44-1.99-5.26C501.08,672.73,502.85,672.23,505.42,673.47z"/>
				</g>
				<g>
					<path class="st10" d="M473.38,658.07c1.75,0.72,2.14,2.64,1.11,4.64c-1.02,1.97-2.93,2.82-5.07,1.69
						c-2.03-1.08-2.8-2.98-1.75-5.07C468.72,657.23,470.59,656.76,473.38,658.07z"/>
				</g>
				<g>
					<path class="st10" d="M437.3,649.05c-1.94-1.24-2.81-2.91-1.93-5.11c0.82-2.05,3.06-2.57,5.32-1.53
						c2.25,1.04,2.51,2.86,1.63,4.71C441.36,649.15,439.51,649.83,437.3,649.05z"/>
				</g>
				<g>
					<path class="st10" d="M404.96,633.51c-1.9-1.31-2.82-3.07-1.72-5.15c1.17-2.21,3.08-2.55,5.36-1.37
						c2.2,1.15,2.38,2.97,1.45,4.77C409.01,633.75,407.15,634.4,404.96,633.51z"/>
				</g>
				<g>
					<path class="st10" d="M376.07,611.35c2.4,1.02,2.78,2.94,1.76,4.93c-1.02,1.97-2.93,2.82-5.07,1.69
						c-2.03-1.08-2.8-2.98-1.75-5.07C372.06,610.79,373.94,610.37,376.07,611.35z"/>
				</g>
				<g>
					<path class="st10" d="M340.53,602.57c-1.91-1.3-2.83-3.06-1.73-5.15c1.16-2.21,3.07-2.56,5.35-1.38
						c2.2,1.14,2.39,2.96,1.46,4.77C344.58,602.8,342.72,603.45,340.53,602.57z"/>
				</g>
				<g>
					<path class="st10" d="M329.3,605.99c-1.91-1.3-2.83-3.06-1.73-5.15c1.16-2.21,3.07-2.56,5.35-1.38
						c2.2,1.14,2.39,2.96,1.46,4.77C333.35,606.22,331.49,606.87,329.3,605.99z"/>
				</g>
				<g>
					<path class="st10" d="M307.68,586.62c0.2,0.17,0.4,0.33,0.63,0.48c2.19,0.88,4.06,0.23,5.08-1.76
						c0.93-1.81,0.74-3.63-1.46-4.77c-2.28-1.18-4.19-0.83-5.35,1.38c-0.37,0.71-0.5,1.37-0.44,2
						C306.64,584.84,307.16,585.73,307.68,586.62z"/>
				</g>
				<g>
					<path class="st10" d="M410.78,708.45c0.34,0.14,0.68,0.28,1.02,0.42c-0.19-0.82-0.72-1.47-1.59-1.84
						c-2.19-1.03-3.81-0.94-4.91,0.15C407.14,707.3,409,707.71,410.78,708.45z"/>
				</g>
				<g>
					<path class="st10" d="M290.43,459.57c-2.01-1.34-2.96-3.08-1.89-5.19c1.13-2.23,3.02-2.61,5.33-1.45
						c2.21,1.12,2.44,2.92,1.53,4.75C294.4,459.69,292.53,460.32,290.43,459.57z"/>
				</g>
				<g>
					<path class="st10" d="M455.07,623.63c1.21-1.89,2.74-2.81,4.87-1.76c2.09,1.03,3.09,2.75,2.07,4.97
						c-0.99,2.15-2.95,2.83-5.08,1.85C454.75,627.69,454.34,625.78,455.07,623.63z"/>
				</g>
				<g>
					<path class="st10" d="M427.09,606.06c2.76,1.3,3.75,3.67,2.63,5.53c-1.13,1.88-2.94,2.57-4.94,1.66
						c-2.17-0.98-2.84-2.89-1.87-5.06C423.82,606.14,425.55,605.59,427.09,606.06z"/>
				</g>
				<g>
					<path class="st10" d="M390.66,592.61c1.25-1.86,2.77-2.75,4.9-1.67c2.11,1.07,3.04,2.81,1.99,5c-1.02,2.12-2.99,2.78-5.11,1.77
						C390.27,596.67,389.89,594.76,390.66,592.61z"/>
				</g>
				<g>
					<path class="st10" d="M358.41,577.19c1.22-1.88,2.75-2.8,4.88-1.75c2.1,1.04,3.08,2.76,2.06,4.98
						c-0.99,2.14-2.96,2.82-5.09,1.84C358.08,581.25,357.68,579.34,358.41,577.19z"/>
				</g>
				<g>
					<path class="st10" d="M326.41,560.81c1.2-0.26,2.96-1.16,4.48-0.84c2.29,0.48,3.27,3.19,2.21,5.1
						c-1.07,1.94-2.87,2.62-4.89,1.8C325.99,565.96,325.49,564.07,326.41,560.81z"/>
				</g>
				<g>
					<path class="st10" d="M293.98,546.22c1.23-1.87,2.76-2.77,4.89-1.71c2.1,1.05,3.06,2.79,2.03,4.99c-1,2.13-2.97,2.8-5.1,1.8
						C293.63,550.28,293.23,548.36,293.98,546.22z"/>
				</g>
				<g>
					<path class="st10" d="M452.81,616.85c-1.96-1.23-2.84-2.89-1.98-5.1c0.8-2.06,3.05-2.61,5.3-1.58c2.24,1.02,2.54,2.83,1.68,4.7
						C456.87,616.91,455.03,617.6,452.81,616.85z"/>
				</g>
				<g>
					<path class="st10" d="M420.59,601.38c-1.96-1.23-2.84-2.89-1.98-5.1c0.8-2.06,3.05-2.61,5.3-1.58c2.24,1.02,2.54,2.83,1.68,4.7
						C424.65,601.44,422.81,602.12,420.59,601.38z"/>
				</g>
				<g>
					<path class="st10" d="M388.27,585.85c-1.92-1.27-2.87-3.02-1.81-5.12c1.13-2.23,3.02-2.62,5.32-1.46
						c2.21,1.11,2.45,2.91,1.54,4.74C392.33,586.02,390.47,586.68,388.27,585.85z"/>
				</g>
				<g>
					<path class="st10" d="M356.11,570.4c-1.94-1.25-2.8-2.92-1.92-5.12c0.82-2.05,3.07-2.56,5.32-1.52
						c2.25,1.04,2.5,2.86,1.62,4.71C360.17,570.52,358.32,571.19,356.11,570.4z"/>
				</g>
				<g>
					<path class="st10" d="M323.6,554.77c-1.83-1.38-2.67-3.18-1.48-5.21c1.27-2.17,3.24-2.38,5.44-1.13
						c2.15,1.22,2.23,3.08,1.21,4.84C327.66,555.2,325.77,555.81,323.6,554.77z"/>
				</g>
				<g>
					<path class="st10" d="M295.25,532.9c2.01,0.83,2.33,2.7,1.47,4.57c-0.93,2.03-2.78,2.87-5,1.95c-2.03-0.83-2.99-3.52-1.87-5.3
						C291.1,532.14,292.88,531.68,295.25,532.9z"/>
				</g>
				<g>
					<path class="st10" d="M378.8,543.24c2.2,1.11,3.02,2.88,1.98,5.03c-1.02,2.12-3.01,2.77-5.12,1.72c-2.12-1.06-2.72-3-1.64-5.13
						C375.03,542.88,376.73,542.31,378.8,543.24z"/>
				</g>
				<g>
					<path class="st10" d="M341.7,529.43c1.26-1.85,2.78-2.73,4.91-1.64c2.11,1.08,3.02,2.83,1.97,5c-1.03,2.12-3,2.77-5.12,1.74
						C341.29,533.48,340.92,531.57,341.7,529.43z"/>
				</g>
				<g>
					<path class="st10" d="M314.34,512.28c2.19,1.1,3.04,2.86,2.02,5.02c-1.01,2.13-2.99,2.79-5.11,1.76
						c-2.13-1.04-2.74-2.98-1.68-5.11C310.56,511.96,312.26,511.36,314.34,512.28z"/>
				</g>
				<g>
					<path class="st10" d="M281.7,496.57c2.47,1.14,3.49,3.53,2.4,5.39c-1.11,1.9-2.92,2.59-4.92,1.71
						c-2.18-0.96-2.87-2.87-1.92-5.04C278.16,496.61,279.85,495.92,281.7,496.57z"/>
				</g>
				<g>
					<path class="st10" d="M339.22,522.63c-1.89-1.32-2.8-3.08-1.68-5.16c1.19-2.2,3.11-2.53,5.37-1.33
						c2.19,1.16,2.36,2.98,1.41,4.78C343.28,522.9,341.41,523.54,339.22,522.63z"/>
				</g>
				<g>
					<path class="st10" d="M307.08,507.22c-1.98-1.38-2.88-3.14-1.77-5.22c1.19-2.2,3.11-2.53,5.37-1.33
						c2.19,1.16,2.36,2.98,1.41,4.78C311.06,507.43,309.17,508.03,307.08,507.22z"/>
				</g>
				<g>
					<path class="st10" d="M274.88,491.74c-1.93-1.27-2.89-3.01-1.83-5.12c1.12-2.23,3-2.64,5.32-1.48c2.22,1.11,2.46,2.9,1.56,4.74
						C278.94,491.89,277.09,492.56,274.88,491.74z"/>
				</g>
				<g>
					<path class="st10" d="M292.92,465.43c1.2-0.26,2.96-1.16,4.48-0.84c2.29,0.48,3.27,3.18,2.21,5.09
						c-1.07,1.94-2.87,2.63-4.89,1.8C292.5,470.57,292,468.69,292.92,465.43z"/>
				</g>
				<g>
					<path class="st10" d="M265.4,449.12c2.2,1.11,3.02,2.88,1.98,5.03c-1.02,2.12-3.01,2.77-5.12,1.72c-2.12-1.06-2.72-3-1.64-5.13
						C261.62,448.77,263.33,448.19,265.4,449.12z"/>
				</g>
			</g>
		</g>
		<path class="st6" d="M570.67,481.98c-0.99,9.72-1.31,19.52-0.68,29.27c0.47,7.33,1.89,15.41,7.67,19.95
			c5.57,4.37,13.6,4.03,20.3,1.73c11.47-3.93,20.8-12.79,27.21-23.08c2.39-3.83,4.49-8.28,3.62-12.71c-0.7-3.59-3.24-6.53-4.55-9.95
			c-1.43-3.74-1.36-7.97-3.1-11.57c-1.3-2.69-3.51-4.81-5.68-6.87c-3.91-3.72-7.82-7.45-11.73-11.17c-1.48-1.41-2.98-2.84-4.78-3.82
			C579.81,443.29,572.04,468.61,570.67,481.98z"/>
		<g>
			<path class="st1" d="M830.31,124.15c-6.9-1.22-13.89,1.45-18.23,6.98l-28.75,36.6c-36.07,45.92-65.04,96.81-86.12,151.26
				c-4.55,11.76-10.27,22.84-17.03,33.02c-0.06,0.09-0.2,0.07-0.23-0.04l-10.4-42.87c-1.75-7.21-4.72-13.71-8.83-19.33
				c-10.58-14.46-25.94-20.39-44.43-17.16c-8.98,1.57-16.55,4.94-20.77,7.11c-0.06-0.02-0.09-0.03-0.15-0.04
				c-8.36-13.31-19.5-21.63-33.21-24.71c-14.43-3.24-31.17-0.68-49.75,7.61c-9.63,4.3-17.15,9.01-20.89,11.52c-0.05,0-0.08,0-0.13,0
				c-0.25-0.18-0.5-0.35-0.75-0.53c-27.03-18.22-63.04-6.35-83.2,14.07c-12.17,12.33-22.09,28.52-31.19,50.94
				c-3.49,8.6-6.69,17.83-9.79,28.22c-0.31,1.06-0.97,2.81-1.73,4.84c-0.86,2.31-1.66,4.47-2.35,6.49c-0.04,0.1-0.18,0.11-0.22,0.01
				c-30.72-68.31-83.72-103.12-113.62-118.13c-16.59-8.32-34.79-12.72-52.63-12.71c-17.5,0.01-31.14,4.03-40.56,11.96
				c-6.34,5.33-10.1,12.84-10.6,21.15c-0.5,8.27,2.45,16.49,8.11,22.55c62.67,67.21,75.14,100.38,77.59,111.52
				c9.51,43.2,40.2,116.08,42.49,121.47c0.98,3.22,10.2,29.86,60.45,77.67c20.53,19.53,41.96,53.37,61.98,97.85
				c15.41,34.22,25.1,71.18,28.82,109.83c3.43,35.65,8.07,42,12.57,43.55c9.79,3.37,45.64,14.08,95.97,10.57
				c0.5-0.03,1.01-0.07,1.51-0.11c30.36-2.28,60.63-9.34,90-21.01c36.85-14.64,72.48-36.63,105.92-65.38
				c6.09-5.23,9-13.12,7.79-21.09c-0.24-1.57-0.51-3.14-0.8-4.7c-0.35-1.85-0.73-3.7-1.15-5.53c-0.48-2.1-1-4.18-1.56-6.26
				c-0.62-2.31-1.3-4.61-2.02-6.9c-0.79-2.5-1.65-4.99-2.55-7.45c-0.98-2.67-2.03-5.31-3.14-7.92c-1.19-2.8-2.46-5.57-3.79-8.3
				c-1.42-2.91-2.92-5.77-4.5-8.6c-1.67-2.99-3.43-5.92-5.28-8.8c-2.37-3.69-3.94-6.91-1.55-11.13c2.05-3.62,4.88-6.91,7.09-10.46
				c3.05-4.88,5.85-9.92,8.45-15.05c7.48-14.78,13.32-30.37,18.01-46.24c14.63-49.47,20.09-109.04,16.23-177.04
				c-1.35-23.72,1.67-47.41,8.98-70.39l4.04-12.71c11.96-37.64,27.29-74.48,45.54-109.5c6.55-12.56,12.18-24.05,17.21-35.15
				l13.29-29.27c3.94-8.68,5.56-18.21,4.68-27.54C853.19,138.71,844.62,126.69,830.31,124.15z M598.84,286.62
				c3.73-1.93,10.78-5.11,18.98-6.51c15.55-2.65,27.92,2.11,36.75,14.18c3.52,4.81,6.06,10.4,7.58,16.63l12.61,51.94
				c0,0,0,0.01,0,0.01c2.23,15.87,4.18,32.13,5.96,49.69c2.39,23.64,4.32,44.96,3.74,66.52c-0.1,3.86-0.43,9.28-1.31,15.24
				c0,0.03-0.05,0.03-0.05,0c-1.25-4.74-2.69-8.54-4.5-11.84c-2.71-4.95-6.35-8.88-10.54-11.35c-2.69-1.59-5.19-2.31-7.67-2.22
				c-3.04,0.11-7.57,1.6-11.92,8.01c-7.03,10.36-9.07,23.13-10.14,34.26c-0.24,2.55-0.47,5.3-0.46,8.07c0,0.27,0.01,0.53,0.01,0.79
				c-2.32-3.49-4.79-7.75-7.44-12.93c0-0.01-0.01-0.03-0.01-0.04c-1.63-14.65-21.05-188.06-31.65-220.32
				C598.81,286.7,598.82,286.67,598.84,286.62z M677.05,514.85c-0.41,1.71-1.06,3.43-1.93,5.13c-2.99,5.28-6.93,9.8-12.12,12.7
				c-1.38,0.73-2.77,1.26-4.16,1.56c-3.35,0.74-6.85,0.03-9.14-1.84c-2.06-1.69-3.49-5.08-4-9.54c-0.13-1.14-0.2-2.33-0.2-3.63l0,0
				c-0.01-2.44,0.2-4.95,0.42-7.31c0.97-10.16,2.79-21.76,8.85-30.7c1.14-1.68,3.38-4.48,5.77-4.66c0.04,0,0.08-0.01,0.12-0.01
				c0.96-0.04,2.13,0.36,3.5,1.16c3,1.77,5.67,4.69,7.72,8.44c1.72,3.14,3.08,6.94,4.27,11.94
				C677.3,502.86,678.43,509.06,677.05,514.85z M574.1,501.06c-0.68-13.07-0.48-28.11,6.17-40.59c1.66-3.12,4.43-6.96,8.23-7.58
				c0.19-0.03,0.39-0.06,0.6-0.07c1.54-0.12,3.36,0.23,5.45,1.02c4.74,1.81,9.2,5.16,12.91,9.71c3.05,3.74,5.71,8.35,8.38,14.53
				c2.54,5.88,5.35,13.61,4.59,21.29c-0.58,5.84-3.32,11.98-7.92,17.76c-4.29,5.39-9.03,8.99-14.09,10.71
				c-4.95,1.68-10.49,1.36-14.45-0.84c-4.45-2.47-6.79-7.88-7.97-11.98c-0.41-1.44-0.75-2.95-1.02-4.62l0,0
				C574.48,507.32,574.26,504.09,574.1,501.06z M497.79,279.14c10.48-6.7,38.21-22.21,62.69-16.71
				c12.05,2.71,21.86,10.31,29.21,22.59l0.92,1.73c6.44,12.15,19.25,110.58,27.32,178.46c0,0.03-0.03,0.04-0.05,0.01
				c-1.43-2.39-2.92-4.54-4.51-6.49c-4.56-5.58-10.13-9.74-16.11-12.02c-3.68-1.41-6.95-1.85-9.99-1.35
				c-5.45,0.89-10.2,4.87-13.74,11.52c-7.53,14.13-7.79,30.46-7.05,44.58c0.17,3.24,0.4,6.72,0.97,10.18
				c0.32,1.97,0.72,3.77,1.21,5.5c0.23,0.79,0.49,1.62,0.8,2.47c0.01,0.03-0.02,0.05-0.04,0.03c-2.53-1.89-4.89-3.86-6.99-5.76
				c-7.66-6.9-13.47-14.05-15.78-17.03c0,0,0-0.01,0-0.01c-0.26-1.74-0.54-3.48-0.82-5.21c-0.73-4.56-1.42-8.87-1.79-12.89
				c-1.48-15.94-2.88-28.11-4.57-39.44c-4.55-30.64-9.82-63.07-16.59-102.06c-3.97-26.7-12.22-45.76-25.11-57.92
				C497.72,279.27,497.73,279.18,497.79,279.14z M208.72,357.71c-15.26-21.43-31.55-42.52-48.43-62.69l-0.07-0.08
				c-2.51-3-4.88-5.84-6.14-9.05c-0.94-2.41-1.33-5.82,0.38-8.16c0.64-0.88,1.6-1.6,2.78-2.08c1.1-0.45,2.35-0.68,3.59-0.65
				c2.51,0.05,5.3,1,8.3,2.82c5.41,3.29,10.39,8.58,15.21,16.18c6.12,9.64,10.65,20.56,14.41,30.04
				c4.25,10.71,8.47,22.04,10.03,33.66C208.78,357.72,208.74,357.73,208.72,357.71z M730.37,769.01c0.81,5.35-1.14,10.64-5.22,14.15
				c-32.79,28.19-67.7,49.75-103.76,64.07c-28.65,11.38-58.16,18.27-87.75,20.49c-0.49,0.04-0.98,0.07-1.47,0.11
				c-3.55,0.25-7.1,0.43-10.65,0.54c-19.05,0.61-38.21-0.7-56.95-4.24c-5.95-1.12-11.86-2.47-17.69-4.11
				c-3.01-0.85-5.96-1.05-8.02-3.67c-2.64-3.36-3.09-7.93-3.88-11.98c-1.54-7.85-2.45-15.83-3.22-23.79
				c-3.8-39.48-13.71-77.24-29.46-112.23c-0.68-1.5-1.36-2.99-2.03-4.47c-0.01-0.02,0.01-0.05,0.04-0.04
				c14.17,7.81,44.2,22.12,81.19,26.78c12.32,1.55,24.34,1.89,36.01,1.01c3.2-0.24,6.37-0.57,9.52-1c0.02,0,0.03,0.01,0.03,0.03
				c-0.14,0.42-0.14,0.89,0.04,1.34c0.29,0.69,28.55,69.62,20.69,112.93c-0.19,1.04,0.5,2.03,1.54,2.22
				c0.16,0.03,0.33,0.04,0.48,0.03c0.84-0.06,1.57-0.69,1.73-1.56c8.06-44.42-19.73-112.2-20.92-115.07
				c-0.06-0.15-0.14-0.28-0.23-0.4c7.54-1.17,14.91-2.88,22.11-5.11c0.01,0,0.03,0,0.03,0.01c3.45,8.28,25.41,62.21,21.89,87.08
				c-0.16,1.12,0.58,2.26,1.71,2.35c0.1,0.01,0.2,0.01,0.29,0c0.87-0.07,1.61-0.73,1.74-1.62c3.8-25.82-17.98-79.39-21.99-88.98
				c-0.01-0.01,0-0.03,0.02-0.03c3.07-1.03,6.1-2.16,9.1-3.39c3.86-1.58,7.67-3.33,11.41-5.24c0.01-0.01,0.03,0,0.03,0.01
				c5.31,8.04,31.66,50.66,29.26,101.08c-0.05,1.05,0.76,1.95,1.81,2c0.08,0,0.16,0,0.24,0c0.95-0.07,1.71-0.84,1.76-1.81
				c2.42-50.82-23.66-93.85-29.67-103.03c-0.01-0.01,0-0.03,0.01-0.04c7.56-4.08,14.86-8.83,21.91-14.23c0.01-0.01,0.02-0.01,0.03,0
				c17.07,12.28,38.08,17.75,61.31,16c2.97-0.22,5.98-0.56,9.02-1.02c15.08-2.28,26.99-6.83,32.57-9.24c0.01-0.01,0.03,0,0.03,0.01
				C722.59,731.34,728.44,756.35,730.37,769.01z M843.47,183.29l-13.29,29.27c-1.45,3.2-2.97,6.45-4.53,9.74
				c0,0.01-0.01,0.01-0.02,0.02c-8.6,2.16-24.58-5.06-30.83-8.51c-0.88-0.49-2.04-0.31-2.61,0.52c-0.64,0.94-0.33,2.21,0.64,2.75
				c0.27,0.15,6.77,3.75,14.61,6.47c6.48,2.25,11.88,3.23,16.17,2.92c0.02,0,0.03,0.02,0.02,0.04c-3.23,6.67-6.7,13.57-10.48,20.83
				c-10.42,19.99-19.9,40.57-28.36,61.57c-7.52,5.33-16.46,6.06-26.62,2.12c-8.57-3.32-14.82-8.85-14.88-8.91
				c-0.79-0.7-1.99-0.63-2.69,0.15c-0.7,0.78-0.64,1.99,0.15,2.69c0.2,0.18,15.35,13.5,32.04,12.24c3.2-0.24,6.45-1.02,9.66-2.52
				c0.02-0.01,0.04,0.01,0.04,0.03c-5.61,14.29-10.75,28.75-15.38,43.34l-4.04,12.71c-7.59,23.87-10.73,48.48-9.33,73.13
				c0.02,0.37,0.04,0.74,0.06,1.12c0.78,14.08,1.17,28.17,1.11,42.27c-0.06,12.59-0.48,25.18-1.32,37.75
				c-0.75,11.16-1.84,22.31-3.32,33.4c-1.31,9.79-2.92,19.55-4.9,29.23c-1.73,8.48-3.73,16.9-6.04,25.24
				c-2,7.22-4.24,14.37-6.76,21.43c-2.14,6.01-4.48,11.95-7.04,17.8c-2.13,4.86-4.42,9.65-6.9,14.34
				c-1.98,3.76-4.08,7.46-6.33,11.07c-0.91,1.47-1.85,2.92-2.82,4.36c-2.09,3.12-3.77,6.43-5.67,9.68c-0.89,1.52-1.45,3.01-3.08,3.7
				c-1.73,0.74-3.47,1.47-5.22,2.17c-7.48,2.97-15.2,5.39-23.08,7.03c-10.18,2.12-20.69,2.94-31.04,1.78
				c-11.82-1.33-23.23-5.36-33.09-12.05c-0.01-0.01-0.02-0.03,0-0.04c14.63-12.29,28.09-27.52,40.24-45.59
				c1.12-1.66,0.9-3.98-0.66-5.23c-1.77-1.43-4.34-1.01-5.57,0.83c-22.4,33.34-49.23,56.61-79.77,69.16
				c-24.39,10.03-51.25,13.3-79.84,9.74c-24.26-3.03-47.97-10.6-69.95-21.24c-5.35-2.59-10.64-5.35-15.72-8.44
				c-2.05-1.25-2.81-2.32-3.97-4.67c-3.4-6.89-6.94-13.7-10.66-20.42c-11.88-21.47-25.55-42.72-43.35-59.8
				c-0.15-0.14-0.29-0.28-0.44-0.42c-50.61-48.16-58.36-74.18-58.43-74.42l-0.17-0.5c-0.32-0.77-32.63-77.11-42.14-120.33
				c-2.85-12.93-11.42-28.76-22.18-44.77c1.6-3.42,1.27-7.3,0.72-10.92c-0.61-4.01-1.32-7.99-2.33-11.93
				c-2.11-8.21-5.11-16.16-8.24-24.03c-3.89-9.8-8.59-21.11-15.06-31.31c-5.46-8.61-11.25-14.7-17.69-18.61
				c-4.16-2.53-8.24-3.85-12.1-3.93c-1.07-0.02-2.15,0.06-3.2,0.24c-0.03,0-0.04-0.02-0.02-0.04c0.76-0.87,1.59-1.69,2.49-2.45
				c8.01-6.74,20.01-10.16,35.66-10.17c16.66-0.01,33.68,4.11,49.21,11.9c20.58,10.33,52.41,31.21,79.78,66.19
				c0.01,0.02,0,0.04-0.02,0.04c-8.43,1.6-17.65,6.89-27.5,15.8c-9.04,8.17-15.13,16.3-15.38,16.64c-0.63,0.84-0.45,2.04,0.39,2.67
				c0.38,0.29,0.84,0.41,1.28,0.37c0.53-0.04,1.04-0.3,1.39-0.76c0.23-0.3,21.79-28.88,42.5-31.27c0.01,0,0.02,0,0.03,0.01
				c11.38,15.1,21.88,32.73,30.34,53.13c0.02,0.14,0.03,0.28,0.07,0.42c5.54,20.11,10.66,25.12,25.99,37.94
				c0.79,0.66,1.78,0.95,2.73,0.88c0.99-0.07,1.95-0.53,2.64-1.36c1.35-1.62,1.14-4.02-0.48-5.37
				c-13.5-11.28-17.78-15.3-22.19-29.53c0.37-1.5,0.79-3.24,0.79-3.24c0.85-4.01,3.34-12.23,4.41-15.08
				c0.81-2.16,1.5-4.03,1.89-5.33c3.02-10.15,6.14-19.15,9.54-27.52c8.72-21.46,18.11-36.85,29.56-48.45
				c18-18.24,49.89-29.03,73.51-13.11c15.18,10.23,24.66,29.36,28.98,58.49l0.02,0.09c6.76,38.95,12.03,71.34,16.56,101.92
				c1.66,11.19,3.05,23.22,4.52,39.02c0.02,0.22,0.05,0.44,0.07,0.66c-2-3.06-4.03-5.68-6.19-7.97
				c-4.83-5.12-10.48-8.73-16.34-10.42c-3.66-1.06-6.83-1.17-9.69-0.35c-5.07,1.45-9.15,5.91-11.78,12.91
				c-5.55,14.76-4.13,31-2.01,44.93c0.49,3.2,1.06,6.62,1.93,10.01c0.5,1.92,1.05,3.66,1.69,5.32c0.31,0.81,0.67,1.66,1.06,2.52
				c-2.11-2.16-4.14-4.73-6.13-7.75c-13.25-20.18-17.33-45.52-20.11-67.68c-0.2-1.61-0.39-3.34-0.59-5.16
				c-1.18-10.76-2.75-24.83-9.07-34.63c-7.89-13.99-9.34-25.99-9.12-41.8c0.03-2.11-1.65-3.84-3.76-3.87
				c-2.12-0.03-3.84,1.66-3.87,3.76c-0.17,11.95,0.63,22.29,4.29,32.86c-6.51-2.94-13.87-3.96-20.99-2.68
				c-2.07,0.37-3.45,2.35-3.08,4.43c0.37,2.07,2.36,3.45,4.43,3.08c9.06-1.63,18.99,1.65,25.3,8.35c0.21,0.23,0.45,0.42,0.7,0.58
				c0.03,0.05,0.05,0.09,0.08,0.14c0.09,0.15,0.19,0.3,0.3,0.43c0.69,1.18,1.32,2.47,1.91,3.89c3.28,7.9,4.4,18.1,5.3,26.29
				c0.2,1.85,0.4,3.63,0.61,5.27c2.89,23.01,7.16,49.37,21.31,70.91c5.06,7.71,10.57,13.04,16.84,16.31
				c10.9,5.67,23.4,2.2,31.48-2.95c9.06-5.78,15.32-15.38,16.77-25.7c0.48-3.43,0.56-6.99,0.38-10.63c0-0.03,0.03-0.04,0.04-0.02
				c10.72,11.69,29.74,28.59,49.12,27.14c0.12-0.01,0.25-0.02,0.37-0.03c11.41-0.99,21.12-8.13,28.96-21.23
				c0.01-0.02,0.04-0.02,0.05,0c6.11,11.14,16.79,27.07,30.78,26.02c2.12-0.16,4.32-0.71,6.59-1.73c0.84-0.38,1.66-0.8,2.46-1.24
				c2.09-1.1,4.13-2.52,6.12-4.27c0.09-0.07,0.17-0.15,0.26-0.23c0.43-0.38,0.86-0.78,1.28-1.19c0.11-0.11,0.22-0.22,0.33-0.33
				c0.18-0.18,0.36-0.35,0.53-0.53c2.73-2.81,4.96-5.84,6.63-8.98c1.79-3.14,3.38-6.63,4.74-10.49c4.26-12.11,5.43-25.25,5.67-34.14
				c0.58-22.01-1.37-43.59-3.78-67.49c-1.77-17.49-3.7-33.69-5.92-49.5c0.01-0.03,0.01-0.06,0.02-0.09
				c8.9-12.24,16.28-25.85,21.93-40.45c20.8-53.75,49.4-103.98,85-149.31l28.75-36.6c2.6-3.31,6.78-4.92,10.9-4.18
				c13.35,2.37,17.44,16.51,18.52,27.96C848.26,167.63,846.87,175.82,843.47,183.29z M540.53,511.83c0.05,5.9-1.88,12.31-5.58,18.53
				c-3.43,5.76-7.44,9.79-11.93,11.98c-4.32,2.11-9.37,2.33-13.17,0.59c-4.58-2.1-7.35-7.86-8.59-11.11c-0.53-1.4-1-2.87-1.43-4.51
				c-0.79-3.05-1.32-6.25-1.78-9.24c-1.97-12.96-3.32-27.98,1.61-41.1c1.22-3.24,3.38-7.3,6.73-8.26c1.42-0.41,3.27-0.29,5.48,0.35
				c4.54,1.31,9,4.19,12.9,8.32c3.22,3.42,6.17,7.75,9.29,13.63C537.04,496.61,540.46,504.05,540.53,511.83z"/>
			<path class="st1" d="M508.46,414.44l12.47-0.94c0.63-0.05,1.1-0.6,1.06-1.23s-0.6-1.1-1.23-1.06l-12.47,0.94
				c-0.63,0.05-1.1,0.6-1.06,1.23S507.83,414.49,508.46,414.44z"/>
			<path class="st1" d="M503.51,432.05l15.85-1.19c0.63-0.05,1.1-0.6,1.06-1.23c-0.05-0.63-0.6-1.1-1.23-1.06l-15.85,1.19
				c-0.63,0.05-1.1,0.6-1.06,1.23C502.33,431.63,502.88,432.1,503.51,432.05z"/>
			<path class="st1" d="M586.48,411.17l12.1-0.91c0.63-0.05,1.1-0.6,1.06-1.23s-0.6-1.1-1.23-1.06l-12.1,0.91
				c-0.63,0.05-1.1,0.6-1.06,1.23S585.85,411.22,586.48,411.17z"/>
			<path class="st1" d="M583.21,419.67l12.53-0.94c0.63-0.05,1.1-0.6,1.06-1.23c-0.05-0.63-0.6-1.1-1.23-1.06l-12.53,0.94
				c-0.63,0.05-1.1,0.6-1.06,1.23C582.03,419.25,582.58,419.72,583.21,419.67z"/>
			<path class="st1" d="M577.21,426.64l24.63-1.85c0.63-0.05,1.1-0.6,1.06-1.23c-0.05-0.63-0.6-1.1-1.23-1.06l-24.63,1.85
				c-0.63,0.05-1.1,0.6-1.06,1.23C576.03,426.22,576.58,426.69,577.21,426.64z"/>
			<path class="st1" d="M664.08,414.48l8.64-0.65c0.63-0.05,1.1-0.6,1.06-1.23c-0.05-0.63-0.6-1.1-1.23-1.06l-8.64,0.65
				c-0.63,0.05-1.1,0.6-1.06,1.23S663.45,414.53,664.08,414.48z"/>
			<path class="st1" d="M656.45,424.04l19.42-1.46c0.63-0.05,1.1-0.6,1.06-1.23s-0.6-1.1-1.23-1.06l-19.42,1.46
				c-0.63,0.05-1.1,0.6-1.06,1.23S655.82,424.08,656.45,424.04z"/>
		</g>
	</g>
</g>
<g id="Layer_2">
</g>
</svg>
