<?xml version="1.0" encoding="utf-8"?>
<!-- Generator: Adobe Illustrator 28.2.0, SVG Export Plug-In . SVG Version: 6.00 Build 0)  -->
<svg version="1.1" xmlns="http://www.w3.org/2000/svg" xmlns:xlink="http://www.w3.org/1999/xlink" x="0px" y="0px"
	 viewBox="0 0 1000 1000" style="enable-background:new 0 0 1000 1000;" xml:space="preserve">
<style type="text/css">
	.st0{fill:#DDE78B;}
	.st1{fill:#D76B27;}
	.st2{fill:#BFA8D1;}
	.st3{fill:#2A4B24;}
	.st4{fill:#C9B9D9;}
	.st5{fill:#FFFFFF;stroke:#2A4B24;stroke-width:8;stroke-linecap:round;stroke-linejoin:round;stroke-miterlimit:10;}
	.st6{fill:#FFFFFF;}
	.st7{fill:#FFFFFF;stroke:#C9B9D9;stroke-width:5;stroke-linecap:round;stroke-linejoin:round;stroke-miterlimit:10;}
	.st8{fill:none;stroke:#D76B27;stroke-width:5;stroke-linecap:round;stroke-linejoin:round;stroke-miterlimit:10;}
	.st9{fill:none;stroke:#2A4B24;stroke-width:8;stroke-linecap:round;stroke-linejoin:round;stroke-miterlimit:10;}
	.st10{fill:#BA5327;}
	.st11{fill:none;}
	.st12{fill:#C9B9D9;stroke:#DDE78B;stroke-width:5;stroke-miterlimit:10;}
	.st13{fill:#C1CFDA;}
	.st14{fill:none;stroke:#DDE78B;stroke-width:5;stroke-miterlimit:10;}
	.st15{fill:#2A4B24;stroke:#FFFFFF;stroke-width:3;stroke-miterlimit:10;}
	.st16{fill:#F2F2F2;}
	.st17{fill:none;stroke:#2A4B24;stroke-width:5;stroke-linecap:round;stroke-linejoin:round;}
	.st18{fill:none;stroke:#2A4B24;stroke-width:5;stroke-linecap:round;stroke-linejoin:round;stroke-dasharray:32.5624,32.5624;}
	.st19{fill:#DDE78B;stroke:#2A4B24;stroke-width:8;stroke-linecap:round;stroke-linejoin:round;stroke-miterlimit:10;}
	.st20{fill:none;stroke:#C9B9D9;stroke-width:8;stroke-linecap:round;stroke-linejoin:round;stroke-miterlimit:10;}
	.st21{fill:none;stroke:#D76B27;stroke-width:10;stroke-linecap:round;stroke-linejoin:round;stroke-miterlimit:10;}
	.st22{fill:none;stroke:#000000;stroke-width:4;stroke-miterlimit:10;}
	.st23{fill:#DDE78B;stroke:#DDE78B;stroke-width:4;stroke-miterlimit:10;}
	.st24{fill:none;stroke:#D76B27;stroke-miterlimit:10;}
	.st25{fill:none;stroke:#D76B27;stroke-width:7;stroke-linecap:round;stroke-miterlimit:10;}
	.st26{fill:none;stroke:#2A4B24;stroke-width:7;stroke-linecap:round;stroke-linejoin:round;stroke-miterlimit:10;}
	.st27{fill:none;stroke:#C9B9D9;stroke-width:7;stroke-linecap:round;stroke-linejoin:round;stroke-miterlimit:10;}
	.st28{fill:#C9B9D9;stroke:#D76B27;stroke-width:8;stroke-miterlimit:10;}
	.st29{fill:#DDE78B;stroke:#D76B27;stroke-width:5;stroke-miterlimit:10;}
	.st30{fill:#DDE78B;stroke:#2A4B24;stroke-width:8;stroke-miterlimit:10;}
	.st31{fill:#D76C28;}
	.st32{fill:#D76D29;}
	.st33{fill:#D76D2A;}
	.st34{fill:#D86E2B;}
	.st35{fill:#D86F2C;}
	.st36{fill:#D8702D;}
	.st37{fill:#D8702E;}
	.st38{fill:#D8712F;}
	.st39{fill:#D97130;}
	.st40{fill:#D97231;}
	.st41{fill:#D97332;}
	.st42{fill:#D97433;}
	.st43{fill:#D97434;}
	.st44{fill:#D97535;}
	.st45{fill:#DA7536;}
	.st46{fill:#DA7636;}
	.st47{fill:#DA7637;}
	.st48{fill:#DA7738;}
	.st49{fill:#DA7839;}
	.st50{fill:#DA783A;}
	.st51{fill:#DB793B;}
	.st52{fill:#DB793C;}
	.st53{fill:#DB7A3C;}
	.st54{fill:#DB7B3D;}
	.st55{fill:#DB7B3E;}
	.st56{fill:#DB7C3F;}
	.st57{fill:#DB7C40;}
	.st58{fill:#DC7D41;}
	.st59{fill:#DC7E42;}
	.st60{fill:#DC7F43;}
	.st61{fill:#DC7F44;}
	.st62{fill:#DC8045;}
	.st63{fill:#DD8046;}
	.st64{fill:#DD8147;}
	.st65{fill:#DD8248;}
	.st66{fill:#DD8349;}
	.st67{fill:#DD834A;}
	.st68{fill:#DE844B;}
	.st69{fill:#DE844C;}
	.st70{fill:#DE854C;}
	.st71{fill:#DE864D;}
	.st72{fill:#DE864E;}
	.st73{fill:#DE874F;}
	.st74{fill:#DE8750;}
	.st75{fill:#DF8851;}
	.st76{fill:#DF8852;}
	.st77{fill:#DF8952;}
	.st78{fill:#DF8A53;}
	.st79{fill:#DF8A54;}
	.st80{fill:#DF8B55;}
	.st81{fill:#E08B56;}
	.st82{fill:#E08C57;}
	.st83{fill:#E08D58;}
	.st84{fill:#E08E59;}
	.st85{fill:#E08E5A;}
	.st86{fill:#E18F5B;}
	.st87{fill:#E18F5C;}
	.st88{fill:#E1905D;}
	.st89{fill:#E1915E;}
	.st90{fill:#E1925F;}
	.st91{fill:#E19260;}
	.st92{fill:#E29361;}
	.st93{fill:#E29362;}
	.st94{fill:#E29462;}
	.st95{fill:#E29563;}
	.st96{fill:#E29564;}
	.st97{fill:#E29665;}
	.st98{fill:#E39666;}
	.st99{fill:#E39767;}
	.st100{fill:#E39768;}
	.st101{fill:#E39868;}
	.st102{fill:#E39969;}
	.st103{fill:#E3996A;}
	.st104{fill:#E49A6B;}
	.st105{fill:#E49A6C;}
	.st106{fill:#E49B6D;}
	.st107{fill:#E49C6E;}
	.st108{fill:#E49D6F;}
	.st109{fill:#E49D70;}
	.st110{fill:#E59E71;}
	.st111{fill:#E59E72;}
	.st112{fill:#E59F73;}
	.st113{fill:#E5A073;}
	.st114{fill:#E5A074;}
	.st115{fill:#E5A175;}
	.st116{fill:#E6A176;}
	.st117{fill:#E6A277;}
	.st118{fill:#E6A278;}
	.st119{fill:#E6A378;}
	.st120{fill:#E6A479;}
	.st121{fill:#E6A47A;}
	.st122{fill:#E6A57B;}
	.st123{fill:#E7A57C;}
	.st124{fill:#E7A67D;}
	.st125{fill:#E7A67E;}
	.st126{fill:#E7A77E;}
	.st127{fill:#E7A87F;}
	.st128{fill:#E7A880;}
	.st129{fill:#E8A981;}
	.st130{fill:#E8A982;}
	.st131{fill:#E8AA83;}
	.st132{fill:#E8AB83;}
	.st133{fill:#E8AB84;}
	.st134{fill:#E8AC85;}
	.st135{fill:#E9AC86;}
	.st136{fill:#E9AD87;}
	.st137{fill:#E9AD88;}
	.st138{fill:#E9AE89;}
	.st139{fill:#E9AF89;}
	.st140{fill:#E9AF8A;}
	.st141{fill:#E9B08B;}
	.st142{fill:#EAB08C;}
	.st143{fill:#EAB18D;}
	.st144{fill:#EAB18E;}
	.st145{fill:#EAB28E;}
	.st146{fill:#EAB38F;}
	.st147{fill:#EAB390;}
	.st148{fill:#EBB491;}
	.st149{fill:#EBB492;}
	.st150{fill:#EBB593;}
	.st151{fill:#EBB694;}
	.st152{fill:#EBB795;}
	.st153{fill:#ECB796;}
	.st154{fill:#ECB897;}
	.st155{fill:#ECB898;}
	.st156{fill:#ECB999;}
	.st157{fill:#ECBA99;}
	.st158{fill:#ECBA9A;}
	.st159{fill:#ECBB9B;}
	.st160{fill:#EDBB9C;}
	.st161{fill:#EDBC9D;}
	.st162{fill:#EDBC9E;}
	.st163{fill:#EDBD9F;}
	.st164{fill:#EDBE9F;}
	.st165{fill:#EDBEA0;}
	.st166{fill:#EEBFA1;}
	.st167{fill:#EEBFA2;}
	.st168{fill:#EEC0A3;}
	.st169{fill:#EEC1A4;}
	.st170{fill:#EEC2A5;}
	.st171{fill:#EFC2A6;}
	.st172{fill:#EFC3A7;}
	.st173{fill:#EFC3A8;}
	.st174{fill:#EFC4A9;}
	.st175{fill:#EFC5AA;}
	.st176{fill:#EFC6AB;}
	.st177{fill:#F0C6AC;}
	.st178{fill:#F0C7AD;}
	.st179{fill:#F0C7AE;}
	.st180{fill:#F0C8AF;}
	.st181{fill:#F0C9AF;}
	.st182{fill:#F0C9B0;}
	.st183{fill:#F1CAB1;}
	.st184{fill:#F1CAB2;}
	.st185{fill:#F1CBB3;}
	.st186{fill:#F1CCB4;}
	.st187{fill:#F1CCB5;}
	.st188{fill:#F1CDB5;}
	.st189{fill:#F1CDB6;}
	.st190{fill:#F2CEB7;}
	.st191{fill:#F2CEB8;}
	.st192{fill:#F2CFB9;}
	.st193{fill:#F2D0BA;}
	.st194{fill:#F2D1BB;}
	.st195{fill:#F3D1BC;}
	.st196{fill:#F3D2BD;}
	.st197{fill:#F3D2BE;}
	.st198{fill:#F3D3BF;}
	.st199{fill:#F3D4C0;}
	.st200{fill:#F4D5C1;}
	.st201{fill:#F4D5C2;}
	.st202{fill:#F4D6C3;}
	.st203{fill:#F4D6C4;}
	.st204{fill:#F4D7C5;}
	.st205{fill:#F4D8C5;}
	.st206{fill:#F4D8C6;}
	.st207{fill:#F5D9C7;}
	.st208{fill:#F5D9C8;}
	.st209{fill:#F5DAC9;}
	.st210{fill:#F5DBCA;}
	.st211{fill:#F5DBCB;}
	.st212{fill:#F5DCCB;}
	.st213{fill:#F6DCCC;}
	.st214{fill:#F6DDCD;}
	.st215{fill:#F6DDCE;}
	.st216{fill:#F6DECF;}
	.st217{fill:#F6DFD0;}
	.st218{fill:#F7E0D1;}
	.st219{fill:#F7E0D2;}
	.st220{fill:#F7E1D3;}
	.st221{fill:#F7E1D4;}
	.st222{fill:#F7E2D5;}
	.st223{fill:#F7E3D6;}
	.st224{fill:#F8E4D7;}
	.st225{fill:#F8E4D8;}
	.st226{fill:#F8E5D9;}
	.st227{fill:#F8E6DA;}
	.st228{fill:#F8E6DB;}
	.st229{fill:#F8E7DB;}
	.st230{fill:#F9E7DC;}
	.st231{fill:#F9E8DD;}
	.st232{fill:#F9E8DE;}
	.st233{fill:#F9E9DF;}
	.st234{fill:#F9EAE0;}
	.st235{fill:#F9EAE1;}
	.st236{fill:#F9EBE1;}
	.st237{fill:#FAEBE2;}
	.st238{fill:#FAECE3;}
	.st239{fill:#FAECE4;}
	.st240{fill:#FAEDE5;}
	.st241{fill:#FAEEE6;}
	.st242{fill:#FBEFE7;}
	.st243{fill:#FBEFE8;}
	.st244{fill:#FBF0E9;}
	.st245{fill:#FBF1EA;}
	.st246{fill:#FBF1EB;}
	.st247{fill:#FBF2EC;}
	.st248{fill:#FCF2EC;}
	.st249{fill:#FCF3ED;}
	.st250{fill:#FCF3EE;}
	.st251{fill:#FCF4EF;}
	.st252{fill:#FCF5F0;}
	.st253{fill:#FCF5F1;}
	.st254{fill:#FCF6F1;}
	.st255{fill:#FDF6F2;}
	.st256{fill:#FDF7F3;}
	.st257{fill:#FDF7F4;}
	.st258{fill:#FDF8F5;}
	.st259{fill:#FDF9F6;}
	.st260{fill:#FDF9F7;}
	.st261{fill:#FEFAF7;}
	.st262{fill:#FEFAF8;}
	.st263{fill:#FEFBF9;}
	.st264{fill:#FEFCFA;}
	.st265{fill:#FEFCFB;}
	.st266{fill:#FEFDFC;}
	.st267{fill:#FFFDFC;}
	.st268{fill:#FFFEFD;}
	.st269{fill:#FFFEFE;}
	.st270{fill:none;stroke:#FFFFFF;stroke-width:8;stroke-linecap:round;stroke-linejoin:round;stroke-miterlimit:10;}
	.st271{fill:#FFFFFF;stroke:#D76B27;stroke-width:5;stroke-linecap:round;stroke-linejoin:round;stroke-miterlimit:10;}
	.st272{opacity:0.11;fill:#808080;}
	.st273{fill:#C9B9D9;stroke:#D76B27;stroke-width:5;stroke-linecap:round;stroke-linejoin:round;stroke-miterlimit:10;}
	.st274{fill:#FFFFFF;stroke:#D76B27;stroke-width:3;stroke-linecap:round;stroke-linejoin:round;stroke-miterlimit:10;}
	.st275{fill:none;stroke:#C9B9D9;stroke-width:3;stroke-linecap:round;stroke-miterlimit:10;}
	.st276{fill:#DC7E43;}
	.st277{opacity:0.48;fill:#DDE78B;}
	.st278{opacity:0.11;}
	.st279{fill:#808080;}
	.st280{fill:none;stroke:#000000;stroke-width:8;stroke-linecap:round;stroke-miterlimit:10;}
</style>
<g id="Layer_1">
	<g>
		<g>
			<path class="st4" d="M359.95,674.8c11.07,23.81,19.31,48.46,22.07,74.83c1.51,14.43,2.91,31.78,15.75,38.55
				c6.9,3.64,15.18,2.9,22.93,2.08c42.02-4.48,84.04-8.96,126.06-13.44c13-1.39,27.31-3.43,35.83-13.35
				c17.85-20.79-2.93-59.06,16.91-77.95c6.73-6.41,16.44-8.44,25.67-9.49c14.95-1.69,30.15-1.51,44.84-4.73s29.36-10.51,37.12-23.4
				c18.43-30.6-9.1-76.8,14.78-103.36c6.96-7.75,17.52-12.39,22.15-21.73c5.43-10.96,0.51-24.41-7.07-34
				c-7.59-9.59-17.68-17.04-24.78-26.99c-19.06-26.71-12.15-63.08-15.53-95.72c-5.62-54.27-42.89-102.36-90.74-128.56
				c-100.24-54.89-242.28-29.06-310.67,64.04c-35.63,48.5-49.71,112.43-36.96,171.24C274.24,546.42,328.5,607.18,359.95,674.8z"/>
		</g>
		<g>
			<path class="st1" d="M410.89,799.78c-5.6,0-11.63-0.82-17.25-3.78c-16.63-8.77-18.74-29.19-20.28-44.11l-0.14-1.34
				c-2.38-22.76-9.34-46.32-21.29-72.02l0,0c-11.4-24.5-26.24-48.74-40.6-72.18c-25.22-41.18-51.3-83.76-61.69-131.65
				c-13.21-60.9,1.18-127.58,38.48-178.35c34.06-46.36,86.9-78.67,148.79-90.95c60.03-11.91,123.18-3.03,173.25,24.39
				c53.14,29.1,89.65,80.99,95.29,135.41c1,9.66,1.14,19.58,1.27,29.17c0.32,23.37,0.62,45.45,12.67,62.33
				c3.4,4.77,7.73,9.03,12.31,13.54c4.13,4.07,8.4,8.27,12.21,13.1c8.79,11.11,15.52,28.35,8.06,43.41
				c-3.72,7.51-9.95,12.39-15.45,16.69c-3.01,2.36-5.86,4.59-8.05,7.02c-10.02,11.14-8.52,28.33-6.94,46.52
				c1.65,18.95,3.36,38.55-6.84,55.49c-8.09,13.44-23.29,23.19-42.8,27.47c-10.12,2.22-20.32,2.92-30.18,3.59
				c-5.14,0.35-10.45,0.71-15.55,1.29c-7.35,0.83-15.54,2.33-20.56,7.1c-7.29,6.94-6.89,18.85-6.43,32.64
				c0.5,14.96,1.08,31.91-9.87,44.67c-10.42,12.14-26.27,14.75-41.6,16.38l-126.06,13.44C418.44,799.39,414.77,799.78,410.89,799.78
				z M489.79,217.89c-16.47,0-33.06,1.6-49.43,4.85c-57.55,11.42-106.55,41.28-137.98,84.08c-34.34,46.75-47.59,108.11-35.45,164.13
				c9.75,44.96,35.03,86.24,59.48,126.16c14.62,23.87,29.73,48.54,41.56,73.97l0,0c12.79,27.5,20.26,52.89,22.84,77.64l0.14,1.36
				c1.26,12.16,2.68,25.93,10.94,30.29c4.39,2.32,10.69,1.87,17.87,1.11l126.06-13.44c12.3-1.31,23.85-3.08,30.06-10.32
				c6.46-7.52,6.05-19.68,5.61-32.55c-0.53-15.76-1.13-33.63,11.91-46.05c8.86-8.44,21.1-10.77,30.77-11.87
				c5.49-0.62,11.01-1,16.34-1.36c9.64-0.66,18.75-1.28,27.6-3.22c8.52-1.87,23.93-6.86,31.44-19.32
				c7.24-12.01,5.85-27.95,4.37-44.83c-1.84-21.15-3.75-43.03,11.4-59.88c3.22-3.58,6.82-6.4,10.3-9.12
				c4.59-3.6,8.56-6.71,10.5-10.62c3.8-7.67-0.9-18.04-6.08-24.59c-3.14-3.97-6.84-7.61-10.76-11.47c-4.91-4.84-10-9.85-14.29-15.86
				c-15.26-21.38-15.61-47.3-15.96-72.36c-0.13-9.2-0.25-18.72-1.17-27.59c-5.05-48.73-38.07-95.36-86.19-121.71
				C568.76,227.28,529.68,217.89,489.79,217.89z"/>
		</g>
		<g>
			<path class="st2" d="M577.69,685.64c-8.54-5.77-20.73-7.12-31.52-8.01c-23.11-1.9-47.42-5.96-65.14-20.92
				c-23.88-20.16-29.69-54.55-48.36-79.6c-30.72-41.21-93.06-53.41-115.3-99.75c-13.87-28.91-8.39-64.95-25.25-92.22
				c-7.18-11.62-16.25-21.11-21.99-33.63c-12.3,16.13-16.4,43.19-18.21,62.91c-2.1,22.81-0.24,45.95,4.74,68.28
				c9.9,44.36,31.31,85.34,55.59,123.77c25.86,40.94,55.97,81.48,63.92,129.25c1.83,11.02,2.45,22.3,5.73,32.97
				s9.78,21.04,19.95,25.66c10.89,4.95,23.55,2.47,35.24-0.11c38.53-8.5,77.06-16.99,115.59-25.49c7.62-1.68,15.5-3.48,21.71-8.21
				c13.04-9.93,14.32-28.72,14.46-45.11c0.06-7.4,0.04-15.17-3.55-21.64C583.4,690.38,580.78,687.72,577.69,685.64z"/>
		</g>
		<g>
			<path class="st1" d="M410.89,799.78c-5.6,0-11.63-0.82-17.25-3.78c-16.63-8.77-18.74-29.19-20.28-44.11l-0.14-1.34
				c-2.38-22.76-9.34-46.32-21.29-72.02l0,0c-11.4-24.5-26.24-48.74-40.6-72.18c-25.22-41.18-51.3-83.76-61.69-131.65
				c-13.21-60.9,1.18-127.58,38.48-178.35c34.06-46.36,86.9-78.67,148.79-90.95c60.03-11.91,123.18-3.03,173.25,24.39
				c53.14,29.1,89.65,80.99,95.29,135.41c1,9.66,1.14,19.58,1.27,29.17c0.32,23.37,0.62,45.45,12.67,62.33
				c3.4,4.77,7.73,9.03,12.31,13.54c4.13,4.07,8.4,8.27,12.21,13.1c8.79,11.11,15.52,28.35,8.06,43.41
				c-3.72,7.51-9.95,12.39-15.45,16.69c-3.01,2.36-5.86,4.59-8.05,7.02c-10.02,11.14-8.52,28.33-6.94,46.52
				c1.65,18.95,3.36,38.55-6.84,55.49c-8.09,13.44-23.29,23.19-42.8,27.47c-10.12,2.22-20.32,2.92-30.18,3.59
				c-5.14,0.35-10.45,0.71-15.55,1.29c-7.35,0.83-15.54,2.33-20.56,7.1c-7.29,6.94-6.89,18.85-6.43,32.64
				c0.5,14.96,1.08,31.91-9.87,44.67c-10.42,12.14-26.27,14.75-41.6,16.38l-126.06,13.44C418.44,799.39,414.77,799.78,410.89,799.78
				z M489.79,217.89c-16.47,0-33.06,1.6-49.43,4.85c-57.55,11.42-106.55,41.28-137.98,84.08c-34.34,46.75-47.59,108.11-35.45,164.13
				c9.75,44.96,35.03,86.24,59.48,126.16c14.62,23.87,29.73,48.54,41.56,73.97l0,0c12.79,27.5,20.26,52.89,22.84,77.64l0.14,1.36
				c1.26,12.16,2.68,25.93,10.94,30.29c4.39,2.32,10.69,1.87,17.87,1.11l126.06-13.44c12.3-1.31,23.85-3.08,30.06-10.32
				c6.46-7.52,6.05-19.68,5.61-32.55c-0.53-15.76-1.13-33.63,11.91-46.05c8.86-8.44,21.1-10.77,30.77-11.87
				c5.49-0.62,11.01-1,16.34-1.36c9.64-0.66,18.75-1.28,27.6-3.22c8.52-1.87,23.93-6.86,31.44-19.32
				c7.24-12.01,5.85-27.95,4.37-44.83c-1.84-21.15-3.75-43.03,11.4-59.88c3.22-3.58,6.82-6.4,10.3-9.12
				c4.59-3.6,8.56-6.71,10.5-10.62c3.8-7.67-0.9-18.04-6.08-24.59c-3.14-3.97-6.84-7.61-10.76-11.47c-4.91-4.84-10-9.85-14.29-15.86
				c-15.26-21.38-15.61-47.3-15.96-72.36c-0.13-9.2-0.25-18.72-1.17-27.59c-5.05-48.73-38.07-95.36-86.19-121.71
				C568.76,227.28,529.68,217.89,489.79,217.89z"/>
		</g>
	</g>
</g>
<g id="Layer_2">
</g>
</svg>
