<?xml version="1.0" encoding="utf-8"?>
<!-- Generator: Adobe Illustrator 28.2.0, SVG Export Plug-In . SVG Version: 6.00 Build 0)  -->
<svg version="1.1" xmlns="http://www.w3.org/2000/svg" xmlns:xlink="http://www.w3.org/1999/xlink" x="0px" y="0px"
	 viewBox="0 0 1000 1000" style="enable-background:new 0 0 1000 1000;" xml:space="preserve">
<style type="text/css">
	.st0{fill:#DDE78B;}
	.st1{fill:#D76B27;}
	.st2{fill:#BFA8D1;}
	.st3{fill:#2A4B24;}
	.st4{fill:#C9B9D9;}
	.st5{fill:#FFFFFF;stroke:#2A4B24;stroke-width:8;stroke-linecap:round;stroke-linejoin:round;stroke-miterlimit:10;}
	.st6{fill:#FFFFFF;}
	.st7{fill:#FFFFFF;stroke:#C9B9D9;stroke-width:5;stroke-linecap:round;stroke-linejoin:round;stroke-miterlimit:10;}
	.st8{fill:none;stroke:#D76B27;stroke-width:5;stroke-linecap:round;stroke-linejoin:round;stroke-miterlimit:10;}
	.st9{fill:none;stroke:#2A4B24;stroke-width:8;stroke-linecap:round;stroke-linejoin:round;stroke-miterlimit:10;}
	.st10{fill:#BA5327;}
	.st11{fill:none;}
	.st12{fill:#C9B9D9;stroke:#DDE78B;stroke-width:5;stroke-miterlimit:10;}
	.st13{fill:#C1CFDA;}
	.st14{fill:none;stroke:#DDE78B;stroke-width:5;stroke-miterlimit:10;}
	.st15{fill:#2A4B24;stroke:#FFFFFF;stroke-width:3;stroke-miterlimit:10;}
	.st16{fill:#F2F2F2;}
	.st17{fill:none;stroke:#2A4B24;stroke-width:5;stroke-linecap:round;stroke-linejoin:round;}
	.st18{fill:none;stroke:#2A4B24;stroke-width:5;stroke-linecap:round;stroke-linejoin:round;stroke-dasharray:32.5624,32.5624;}
	.st19{fill:#DDE78B;stroke:#2A4B24;stroke-width:8;stroke-linecap:round;stroke-linejoin:round;stroke-miterlimit:10;}
	.st20{fill:none;stroke:#C9B9D9;stroke-width:8;stroke-linecap:round;stroke-linejoin:round;stroke-miterlimit:10;}
	.st21{fill:none;stroke:#D76B27;stroke-width:10;stroke-linecap:round;stroke-linejoin:round;stroke-miterlimit:10;}
	.st22{fill:none;stroke:#000000;stroke-width:4;stroke-miterlimit:10;}
	.st23{fill:#DDE78B;stroke:#DDE78B;stroke-width:4;stroke-miterlimit:10;}
	.st24{fill:none;stroke:#D76B27;stroke-miterlimit:10;}
	.st25{fill:none;stroke:#D76B27;stroke-width:7;stroke-linecap:round;stroke-miterlimit:10;}
	.st26{fill:none;stroke:#2A4B24;stroke-width:7;stroke-linecap:round;stroke-linejoin:round;stroke-miterlimit:10;}
	.st27{fill:none;stroke:#C9B9D9;stroke-width:7;stroke-linecap:round;stroke-linejoin:round;stroke-miterlimit:10;}
	.st28{fill:#C9B9D9;stroke:#D76B27;stroke-width:8;stroke-miterlimit:10;}
	.st29{fill:#DDE78B;stroke:#D76B27;stroke-width:5;stroke-miterlimit:10;}
	.st30{fill:#DDE78B;stroke:#2A4B24;stroke-width:8;stroke-miterlimit:10;}
	.st31{fill:#D76C28;}
	.st32{fill:#D76D29;}
	.st33{fill:#D76D2A;}
	.st34{fill:#D86E2B;}
	.st35{fill:#D86F2C;}
	.st36{fill:#D8702D;}
	.st37{fill:#D8702E;}
	.st38{fill:#D8712F;}
	.st39{fill:#D97130;}
	.st40{fill:#D97231;}
	.st41{fill:#D97332;}
	.st42{fill:#D97433;}
	.st43{fill:#D97434;}
	.st44{fill:#D97535;}
	.st45{fill:#DA7536;}
	.st46{fill:#DA7636;}
	.st47{fill:#DA7637;}
	.st48{fill:#DA7738;}
	.st49{fill:#DA7839;}
	.st50{fill:#DA783A;}
	.st51{fill:#DB793B;}
	.st52{fill:#DB793C;}
	.st53{fill:#DB7A3C;}
	.st54{fill:#DB7B3D;}
	.st55{fill:#DB7B3E;}
	.st56{fill:#DB7C3F;}
	.st57{fill:#DB7C40;}
	.st58{fill:#DC7D41;}
	.st59{fill:#DC7E42;}
	.st60{fill:#DC7F43;}
	.st61{fill:#DC7F44;}
	.st62{fill:#DC8045;}
	.st63{fill:#DD8046;}
	.st64{fill:#DD8147;}
	.st65{fill:#DD8248;}
	.st66{fill:#DD8349;}
	.st67{fill:#DD834A;}
	.st68{fill:#DE844B;}
	.st69{fill:#DE844C;}
	.st70{fill:#DE854C;}
	.st71{fill:#DE864D;}
	.st72{fill:#DE864E;}
	.st73{fill:#DE874F;}
	.st74{fill:#DE8750;}
	.st75{fill:#DF8851;}
	.st76{fill:#DF8852;}
	.st77{fill:#DF8952;}
	.st78{fill:#DF8A53;}
	.st79{fill:#DF8A54;}
	.st80{fill:#DF8B55;}
	.st81{fill:#E08B56;}
	.st82{fill:#E08C57;}
	.st83{fill:#E08D58;}
	.st84{fill:#E08E59;}
	.st85{fill:#E08E5A;}
	.st86{fill:#E18F5B;}
	.st87{fill:#E18F5C;}
	.st88{fill:#E1905D;}
	.st89{fill:#E1915E;}
	.st90{fill:#E1925F;}
	.st91{fill:#E19260;}
	.st92{fill:#E29361;}
	.st93{fill:#E29362;}
	.st94{fill:#E29462;}
	.st95{fill:#E29563;}
	.st96{fill:#E29564;}
	.st97{fill:#E29665;}
	.st98{fill:#E39666;}
	.st99{fill:#E39767;}
	.st100{fill:#E39768;}
	.st101{fill:#E39868;}
	.st102{fill:#E39969;}
	.st103{fill:#E3996A;}
	.st104{fill:#E49A6B;}
	.st105{fill:#E49A6C;}
	.st106{fill:#E49B6D;}
	.st107{fill:#E49C6E;}
	.st108{fill:#E49D6F;}
	.st109{fill:#E49D70;}
	.st110{fill:#E59E71;}
	.st111{fill:#E59E72;}
	.st112{fill:#E59F73;}
	.st113{fill:#E5A073;}
	.st114{fill:#E5A074;}
	.st115{fill:#E5A175;}
	.st116{fill:#E6A176;}
	.st117{fill:#E6A277;}
	.st118{fill:#E6A278;}
	.st119{fill:#E6A378;}
	.st120{fill:#E6A479;}
	.st121{fill:#E6A47A;}
	.st122{fill:#E6A57B;}
	.st123{fill:#E7A57C;}
	.st124{fill:#E7A67D;}
	.st125{fill:#E7A67E;}
	.st126{fill:#E7A77E;}
	.st127{fill:#E7A87F;}
	.st128{fill:#E7A880;}
	.st129{fill:#E8A981;}
	.st130{fill:#E8A982;}
	.st131{fill:#E8AA83;}
	.st132{fill:#E8AB83;}
	.st133{fill:#E8AB84;}
	.st134{fill:#E8AC85;}
	.st135{fill:#E9AC86;}
	.st136{fill:#E9AD87;}
	.st137{fill:#E9AD88;}
	.st138{fill:#E9AE89;}
	.st139{fill:#E9AF89;}
	.st140{fill:#E9AF8A;}
	.st141{fill:#E9B08B;}
	.st142{fill:#EAB08C;}
	.st143{fill:#EAB18D;}
	.st144{fill:#EAB18E;}
	.st145{fill:#EAB28E;}
	.st146{fill:#EAB38F;}
	.st147{fill:#EAB390;}
	.st148{fill:#EBB491;}
	.st149{fill:#EBB492;}
	.st150{fill:#EBB593;}
	.st151{fill:#EBB694;}
	.st152{fill:#EBB795;}
	.st153{fill:#ECB796;}
	.st154{fill:#ECB897;}
	.st155{fill:#ECB898;}
	.st156{fill:#ECB999;}
	.st157{fill:#ECBA99;}
	.st158{fill:#ECBA9A;}
	.st159{fill:#ECBB9B;}
	.st160{fill:#EDBB9C;}
	.st161{fill:#EDBC9D;}
	.st162{fill:#EDBC9E;}
	.st163{fill:#EDBD9F;}
	.st164{fill:#EDBE9F;}
	.st165{fill:#EDBEA0;}
	.st166{fill:#EEBFA1;}
	.st167{fill:#EEBFA2;}
	.st168{fill:#EEC0A3;}
	.st169{fill:#EEC1A4;}
	.st170{fill:#EEC2A5;}
	.st171{fill:#EFC2A6;}
	.st172{fill:#EFC3A7;}
	.st173{fill:#EFC3A8;}
	.st174{fill:#EFC4A9;}
	.st175{fill:#EFC5AA;}
	.st176{fill:#EFC6AB;}
	.st177{fill:#F0C6AC;}
	.st178{fill:#F0C7AD;}
	.st179{fill:#F0C7AE;}
	.st180{fill:#F0C8AF;}
	.st181{fill:#F0C9AF;}
	.st182{fill:#F0C9B0;}
	.st183{fill:#F1CAB1;}
	.st184{fill:#F1CAB2;}
	.st185{fill:#F1CBB3;}
	.st186{fill:#F1CCB4;}
	.st187{fill:#F1CCB5;}
	.st188{fill:#F1CDB5;}
	.st189{fill:#F1CDB6;}
	.st190{fill:#F2CEB7;}
	.st191{fill:#F2CEB8;}
	.st192{fill:#F2CFB9;}
	.st193{fill:#F2D0BA;}
	.st194{fill:#F2D1BB;}
	.st195{fill:#F3D1BC;}
	.st196{fill:#F3D2BD;}
	.st197{fill:#F3D2BE;}
	.st198{fill:#F3D3BF;}
	.st199{fill:#F3D4C0;}
	.st200{fill:#F4D5C1;}
	.st201{fill:#F4D5C2;}
	.st202{fill:#F4D6C3;}
	.st203{fill:#F4D6C4;}
	.st204{fill:#F4D7C5;}
	.st205{fill:#F4D8C5;}
	.st206{fill:#F4D8C6;}
	.st207{fill:#F5D9C7;}
	.st208{fill:#F5D9C8;}
	.st209{fill:#F5DAC9;}
	.st210{fill:#F5DBCA;}
	.st211{fill:#F5DBCB;}
	.st212{fill:#F5DCCB;}
	.st213{fill:#F6DCCC;}
	.st214{fill:#F6DDCD;}
	.st215{fill:#F6DDCE;}
	.st216{fill:#F6DECF;}
	.st217{fill:#F6DFD0;}
	.st218{fill:#F7E0D1;}
	.st219{fill:#F7E0D2;}
	.st220{fill:#F7E1D3;}
	.st221{fill:#F7E1D4;}
	.st222{fill:#F7E2D5;}
	.st223{fill:#F7E3D6;}
	.st224{fill:#F8E4D7;}
	.st225{fill:#F8E4D8;}
	.st226{fill:#F8E5D9;}
	.st227{fill:#F8E6DA;}
	.st228{fill:#F8E6DB;}
	.st229{fill:#F8E7DB;}
	.st230{fill:#F9E7DC;}
	.st231{fill:#F9E8DD;}
	.st232{fill:#F9E8DE;}
	.st233{fill:#F9E9DF;}
	.st234{fill:#F9EAE0;}
	.st235{fill:#F9EAE1;}
	.st236{fill:#F9EBE1;}
	.st237{fill:#FAEBE2;}
	.st238{fill:#FAECE3;}
	.st239{fill:#FAECE4;}
	.st240{fill:#FAEDE5;}
	.st241{fill:#FAEEE6;}
	.st242{fill:#FBEFE7;}
	.st243{fill:#FBEFE8;}
	.st244{fill:#FBF0E9;}
	.st245{fill:#FBF1EA;}
	.st246{fill:#FBF1EB;}
	.st247{fill:#FBF2EC;}
	.st248{fill:#FCF2EC;}
	.st249{fill:#FCF3ED;}
	.st250{fill:#FCF3EE;}
	.st251{fill:#FCF4EF;}
	.st252{fill:#FCF5F0;}
	.st253{fill:#FCF5F1;}
	.st254{fill:#FCF6F1;}
	.st255{fill:#FDF6F2;}
	.st256{fill:#FDF7F3;}
	.st257{fill:#FDF7F4;}
	.st258{fill:#FDF8F5;}
	.st259{fill:#FDF9F6;}
	.st260{fill:#FDF9F7;}
	.st261{fill:#FEFAF7;}
	.st262{fill:#FEFAF8;}
	.st263{fill:#FEFBF9;}
	.st264{fill:#FEFCFA;}
	.st265{fill:#FEFCFB;}
	.st266{fill:#FEFDFC;}
	.st267{fill:#FFFDFC;}
	.st268{fill:#FFFEFD;}
	.st269{fill:#FFFEFE;}
	.st270{fill:none;stroke:#FFFFFF;stroke-width:8;stroke-linecap:round;stroke-linejoin:round;stroke-miterlimit:10;}
	.st271{fill:#FFFFFF;stroke:#D76B27;stroke-width:5;stroke-linecap:round;stroke-linejoin:round;stroke-miterlimit:10;}
	.st272{opacity:0.11;fill:#808080;}
	.st273{fill:#C9B9D9;stroke:#D76B27;stroke-width:5;stroke-linecap:round;stroke-linejoin:round;stroke-miterlimit:10;}
	.st274{fill:#FFFFFF;stroke:#D76B27;stroke-width:3;stroke-linecap:round;stroke-linejoin:round;stroke-miterlimit:10;}
	.st275{fill:none;stroke:#C9B9D9;stroke-width:3;stroke-linecap:round;stroke-miterlimit:10;}
	.st276{fill:#DC7E43;}
	.st277{fill:#1A1A1A;}
	.st278{opacity:0.48;fill:#DDE78B;}
	.st279{opacity:0.11;}
	.st280{fill:#808080;}
	.st281{fill:none;stroke:#000000;stroke-width:8;stroke-linecap:round;stroke-miterlimit:10;}
</style>
<g id="Layer_1">
	<g>
		<polygon class="st6" points="229.07,469.74 521.61,469.74 572.17,579.89 286.86,579.89 		"/>
		<path class="st3" d="M572.17,587.49H286.86c-2.82,0-5.41-1.57-6.73-4.07l-57.79-110.15c-1.24-2.36-1.15-5.18,0.23-7.46
			c1.38-2.28,3.84-3.67,6.5-3.67h292.54c2.97,0,5.67,1.73,6.9,4.43l50.56,110.15c1.08,2.35,0.89,5.09-0.51,7.27
			C577.17,586.17,574.76,587.49,572.17,587.49z M291.45,572.3h268.88l-43.59-94.96H241.63L291.45,572.3z"/>
		<polygon class="st6" points="286.86,579.89 298.23,855.7 571.17,867.4 571.17,579.89 		"/>
		<path class="st3" d="M571.17,875c-0.11,0-0.22,0-0.32-0.01l-272.94-11.7c-3.94-0.17-7.1-3.33-7.27-7.27l-11.37-275.81
			c-0.08-2.07,0.68-4.08,2.11-5.57c1.43-1.49,3.41-2.34,5.48-2.34h284.32c4.19,0,7.6,3.4,7.6,7.6V867.4c0,2.07-0.85,4.05-2.34,5.49
			C575.01,874.24,573.13,875,571.17,875z M305.53,848.41l258.05,11.06V587.49H294.77L305.53,848.41z"/>
		<polygon class="st6" points="571.17,579.89 712.91,573.18 716.52,832.35 571.17,867.4 		"/>
		<path class="st3" d="M571.17,875c-1.69,0-3.35-0.56-4.7-1.63c-1.83-1.44-2.9-3.64-2.9-5.97V579.89c0-4.06,3.19-7.4,7.24-7.59
			l141.74-6.71c2.08-0.1,4.06,0.64,5.56,2.05c1.5,1.41,2.36,3.37,2.39,5.43l3.61,259.17c0.05,3.55-2.36,6.66-5.82,7.49
			l-145.35,35.05C572.37,874.92,571.77,875,571.17,875z M578.77,587.14v270.62l130.08-31.37l-3.42-245.25L578.77,587.14z"/>
		<polygon class="st6" points="571.17,579.89 621.35,469.99 770.93,468.93 712.91,573.18 		"/>
		<path class="st3" d="M571.17,587.49c-2.51,0-4.87-1.24-6.29-3.34c-1.49-2.19-1.72-5-0.62-7.41l50.18-109.9
			c1.23-2.69,3.9-4.42,6.86-4.44l149.58-1.06c0.02,0,0.04,0,0.05,0c2.68,0,5.17,1.41,6.53,3.72c1.38,2.32,1.42,5.21,0.1,7.57
			l-58.02,104.25c-1.28,2.3-3.65,3.77-6.28,3.89l-141.74,6.71C571.41,587.48,571.29,587.49,571.17,587.49z M626.25,477.55
			l-42.99,94.17l125.07-5.93l49.63-89.18L626.25,477.55z"/>
		<g>
			<path class="st4" d="M390.13,423.58c-3.31,0-6.36-2.18-7.3-5.53c-23.96-84.72-65.96-136.43-128.39-158.07
				c-3.96-1.37-6.06-5.7-4.69-9.67c1.37-3.96,5.7-6.06,9.66-4.69c67.47,23.39,112.62,78.43,138.03,168.28
				c1.14,4.04-1.21,8.24-5.24,9.38C391.51,423.49,390.81,423.58,390.13,423.58z"/>
		</g>
		<g>
			<path class="st4" d="M452.61,367.97c-3.99,0-7.34-3.12-7.58-7.16c-4.73-81.96-0.79-166.95,59.57-233.32
				c2.82-3.11,7.63-3.33,10.73-0.51c3.1,2.82,3.33,7.63,0.51,10.73c-56.59,62.21-60.18,143.57-55.64,222.22
				c0.24,4.19-2.96,7.78-7.15,8.02C452.91,367.96,452.76,367.97,452.61,367.97z"/>
		</g>
		<g>
			<path class="st4" d="M632.29,393.41c-0.72,0-1.45-0.1-2.17-0.32c-4.02-1.19-6.31-5.42-5.12-9.44
				c8.13-27.36,27.49-55.45,53.09-77.05c27.01-22.79,57.59-35.82,86.12-36.69c4.14-0.1,7.7,3.17,7.82,7.36
				c0.13,4.19-3.17,7.7-7.36,7.82c-50.82,1.55-109.28,49.63-125.11,102.89C638.59,391.28,635.57,393.41,632.29,393.41z"/>
		</g>
		<g>
			<path class="st4" d="M553.3,427.75c-0.76,0-1.52-0.11-2.28-0.35c-4-1.26-6.22-5.53-4.96-9.53c14.25-45.21,8.09-96.41-16.5-136.95
				c-2.18-3.59-1.03-8.26,2.56-10.43c3.59-2.18,8.26-1.03,10.43,2.56c26.81,44.22,33.54,100.07,18,149.39
				C559.52,425.68,556.52,427.75,553.3,427.75z"/>
		</g>
		<path class="st1" d="M422.81,805.78c0.26,3.12-0.26,6.24-0.26,9.63c0,2.34-1.56,3.9-4.16,4.16c-8.33,0-16.65,0.26-24.98,0.26
			c-4.94,0.26-5.72-1.04-5.98-5.98c-0.26-6.76,0-13.27-0.26-20.03c-1.56-33.04-1.3-66.08-1.04-99.39
			c0.26-23.16,0.26-46.57,0.52-69.73c0-5.72,1.04-6.76,6.76-8.33c36.63-9.99,82.72,5.9,96.41,43.56c8.59,23.64,2.93,50.47-8.6,72.07
			c-10.29,19.28-25.63,37.79-46.31,46.25c-0.91,0.37-12.87,4.71-12.88,4.37C422.03,782.63,422.81,805.78,422.81,805.78z
			 M421.25,742.3c3.9-1.82,7.29-2.6,10.41-4.16c9.63-3.9,17.17-10.67,21.85-19.51c7.55-15.09,8.59-30.96,3.64-47.09
			c-4.94-15.87-21.07-27.84-40.59-24.98C416.57,678.56,419.17,710.04,421.25,742.3z"/>
		<path class="st1" d="M634.38,739.45L634.38,739.45c-4.62,3.17-10.74-0.96-9.53-6.44l0,0c0.7-3.15-1.14-6.3-4.23-7.25l0,0
			c-5.36-1.64-5.95-9-0.91-11.46l0,0c2.9-1.42,4.22-4.82,3.03-7.82l0,0c-2.06-5.21,3.33-10.26,8.39-7.86l0,0
			c2.91,1.38,6.4,0.29,8.01-2.51l0,0c2.79-4.86,10.09-3.79,11.38,1.66l0,0c0.74,3.14,3.77,5.18,6.95,4.7h0
			c5.54-0.85,9.26,5.53,5.79,9.93l0,0c-1.99,2.53-1.71,6.18,0.66,8.36v0c4.12,3.8,1.45,10.69-4.15,10.72l0,0
			c-3.22,0.02-5.89,2.52-6.13,5.73h0c-0.41,5.59-7.45,7.8-10.97,3.44l0,0C640.65,738.16,637.04,737.63,634.38,739.45z"/>
	</g>
</g>
<g id="Layer_2">
</g>
</svg>
