<?xml version="1.0" encoding="utf-8"?>
<!-- Generator: Adobe Illustrator 28.2.0, SVG Export Plug-In . SVG Version: 6.00 Build 0)  -->
<svg version="1.1" xmlns="http://www.w3.org/2000/svg" xmlns:xlink="http://www.w3.org/1999/xlink" x="0px" y="0px"
	 viewBox="0 0 1000 1000" style="enable-background:new 0 0 1000 1000;" xml:space="preserve">
<style type="text/css">
	.st0{fill:#DDE78B;}
	.st1{fill:#D76B27;}
	.st2{fill:#BFA8D1;}
	.st3{fill:#2A4B24;}
	.st4{fill:#FFFFFF;stroke:#2A4B24;stroke-width:8;stroke-linecap:round;stroke-linejoin:round;stroke-miterlimit:10;}
	.st5{fill:#C9B9D9;}
	.st6{fill:#FFFFFF;}
	.st7{fill:#FFFFFF;stroke:#C9B9D9;stroke-width:5;stroke-linecap:round;stroke-linejoin:round;stroke-miterlimit:10;}
	.st8{fill:none;stroke:#D76B27;stroke-width:5;stroke-linecap:round;stroke-linejoin:round;stroke-miterlimit:10;}
	.st9{fill:none;stroke:#2A4B24;stroke-width:8;stroke-linecap:round;stroke-linejoin:round;stroke-miterlimit:10;}
	.st10{fill:#BA5327;}
	.st11{fill:none;}
	.st12{fill:#C9B9D9;stroke:#DDE78B;stroke-width:5;stroke-miterlimit:10;}
	.st13{fill:#C1CFDA;}
	.st14{fill:none;stroke:#DDE78B;stroke-width:5;stroke-miterlimit:10;}
	.st15{fill:#2A4B24;stroke:#FFFFFF;stroke-width:3;stroke-miterlimit:10;}
	.st16{fill:#F2F2F2;}
	.st17{fill:none;stroke:#2A4B24;stroke-width:5;stroke-linecap:round;stroke-linejoin:round;}
	.st18{fill:none;stroke:#2A4B24;stroke-width:5;stroke-linecap:round;stroke-linejoin:round;stroke-dasharray:32.5624,32.5624;}
	.st19{fill:#DDE78B;stroke:#2A4B24;stroke-width:8;stroke-linecap:round;stroke-linejoin:round;stroke-miterlimit:10;}
	.st20{fill:none;stroke:#C9B9D9;stroke-width:8;stroke-linecap:round;stroke-linejoin:round;stroke-miterlimit:10;}
	.st21{fill:none;stroke:#D76B27;stroke-width:10;stroke-linecap:round;stroke-linejoin:round;stroke-miterlimit:10;}
	.st22{fill:#DDE78B;stroke:#DDE78B;stroke-width:4;stroke-miterlimit:10;}
	.st23{fill:none;stroke:#D76B27;stroke-miterlimit:10;}
	.st24{fill:none;stroke:#D76B27;stroke-width:7;stroke-linecap:round;stroke-miterlimit:10;}
	.st25{fill:none;stroke:#2A4B24;stroke-width:7;stroke-linecap:round;stroke-linejoin:round;stroke-miterlimit:10;}
	.st26{fill:none;stroke:#C9B9D9;stroke-width:7;stroke-linecap:round;stroke-linejoin:round;stroke-miterlimit:10;}
	.st27{fill:#C9B9D9;stroke:#D76B27;stroke-width:8;stroke-miterlimit:10;}
	.st28{fill:#DDE78B;stroke:#D76B27;stroke-width:5;stroke-miterlimit:10;}
	.st29{fill:#DDE78B;stroke:#2A4B24;stroke-width:8;stroke-miterlimit:10;}
	.st30{fill:#D76C28;}
	.st31{fill:#D76D29;}
	.st32{fill:#D76D2A;}
	.st33{fill:#D86E2B;}
	.st34{fill:#D86F2C;}
	.st35{fill:#D8702D;}
	.st36{fill:#D8702E;}
	.st37{fill:#D8712F;}
	.st38{fill:#D97130;}
	.st39{fill:#D97231;}
	.st40{fill:#D97332;}
	.st41{fill:#D97433;}
	.st42{fill:#D97434;}
	.st43{fill:#D97535;}
	.st44{fill:#DA7536;}
	.st45{fill:#DA7636;}
	.st46{fill:#DA7637;}
	.st47{fill:#DA7738;}
	.st48{fill:#DA7839;}
	.st49{fill:#DA783A;}
	.st50{fill:#DB793B;}
	.st51{fill:#DB793C;}
	.st52{fill:#DB7A3C;}
	.st53{fill:#DB7B3D;}
	.st54{fill:#DB7B3E;}
	.st55{fill:#DB7C3F;}
	.st56{fill:#DB7C40;}
	.st57{fill:#DC7D41;}
	.st58{fill:#DC7E42;}
	.st59{fill:#DC7F43;}
	.st60{fill:#DC7F44;}
	.st61{fill:#DC8045;}
	.st62{fill:#DD8046;}
	.st63{fill:#DD8147;}
	.st64{fill:#DD8248;}
	.st65{fill:#DD8349;}
	.st66{fill:#DD834A;}
	.st67{fill:#DE844B;}
	.st68{fill:#DE844C;}
	.st69{fill:#DE854C;}
	.st70{fill:#DE864D;}
	.st71{fill:#DE864E;}
	.st72{fill:#DE874F;}
	.st73{fill:#DE8750;}
	.st74{fill:#DF8851;}
	.st75{fill:#DF8852;}
	.st76{fill:#DF8952;}
	.st77{fill:#DF8A53;}
	.st78{fill:#DF8A54;}
	.st79{fill:#DF8B55;}
	.st80{fill:#E08B56;}
	.st81{fill:#E08C57;}
	.st82{fill:#E08D58;}
	.st83{fill:#E08E59;}
	.st84{fill:#E08E5A;}
	.st85{fill:#E18F5B;}
	.st86{fill:#E18F5C;}
	.st87{fill:#E1905D;}
	.st88{fill:#E1915E;}
	.st89{fill:#E1925F;}
	.st90{fill:#E19260;}
	.st91{fill:#E29361;}
	.st92{fill:#E29362;}
	.st93{fill:#E29462;}
	.st94{fill:#E29563;}
	.st95{fill:#E29564;}
	.st96{fill:#E29665;}
	.st97{fill:#E39666;}
	.st98{fill:#E39767;}
	.st99{fill:#E39768;}
	.st100{fill:#E39868;}
	.st101{fill:#E39969;}
	.st102{fill:#E3996A;}
	.st103{fill:#E49A6B;}
	.st104{fill:#E49A6C;}
	.st105{fill:#E49B6D;}
	.st106{fill:#E49C6E;}
	.st107{fill:#E49D6F;}
	.st108{fill:#E49D70;}
	.st109{fill:#E59E71;}
	.st110{fill:#E59E72;}
	.st111{fill:#E59F73;}
	.st112{fill:#E5A073;}
	.st113{fill:#E5A074;}
	.st114{fill:#E5A175;}
	.st115{fill:#E6A176;}
	.st116{fill:#E6A277;}
	.st117{fill:#E6A278;}
	.st118{fill:#E6A378;}
	.st119{fill:#E6A479;}
	.st120{fill:#E6A47A;}
	.st121{fill:#E6A57B;}
	.st122{fill:#E7A57C;}
	.st123{fill:#E7A67D;}
	.st124{fill:#E7A67E;}
	.st125{fill:#E7A77E;}
	.st126{fill:#E7A87F;}
	.st127{fill:#E7A880;}
	.st128{fill:#E8A981;}
	.st129{fill:#E8A982;}
	.st130{fill:#E8AA83;}
	.st131{fill:#E8AB83;}
	.st132{fill:#E8AB84;}
	.st133{fill:#E8AC85;}
	.st134{fill:#E9AC86;}
	.st135{fill:#E9AD87;}
	.st136{fill:#E9AD88;}
	.st137{fill:#E9AE89;}
	.st138{fill:#E9AF89;}
	.st139{fill:#E9AF8A;}
	.st140{fill:#E9B08B;}
	.st141{fill:#EAB08C;}
	.st142{fill:#EAB18D;}
	.st143{fill:#EAB18E;}
	.st144{fill:#EAB28E;}
	.st145{fill:#EAB38F;}
	.st146{fill:#EAB390;}
	.st147{fill:#EBB491;}
	.st148{fill:#EBB492;}
	.st149{fill:#EBB593;}
	.st150{fill:#EBB694;}
	.st151{fill:#EBB795;}
	.st152{fill:#ECB796;}
	.st153{fill:#ECB897;}
	.st154{fill:#ECB898;}
	.st155{fill:#ECB999;}
	.st156{fill:#ECBA99;}
	.st157{fill:#ECBA9A;}
	.st158{fill:#ECBB9B;}
	.st159{fill:#EDBB9C;}
	.st160{fill:#EDBC9D;}
	.st161{fill:#EDBC9E;}
	.st162{fill:#EDBD9F;}
	.st163{fill:#EDBE9F;}
	.st164{fill:#EDBEA0;}
	.st165{fill:#EEBFA1;}
	.st166{fill:#EEBFA2;}
	.st167{fill:#EEC0A3;}
	.st168{fill:#EEC1A4;}
	.st169{fill:#EEC2A5;}
	.st170{fill:#EFC2A6;}
	.st171{fill:#EFC3A7;}
	.st172{fill:#EFC3A8;}
	.st173{fill:#EFC4A9;}
	.st174{fill:#EFC5AA;}
	.st175{fill:#EFC6AB;}
	.st176{fill:#F0C6AC;}
	.st177{fill:#F0C7AD;}
	.st178{fill:#F0C7AE;}
	.st179{fill:#F0C8AF;}
	.st180{fill:#F0C9AF;}
	.st181{fill:#F0C9B0;}
	.st182{fill:#F1CAB1;}
	.st183{fill:#F1CAB2;}
	.st184{fill:#F1CBB3;}
	.st185{fill:#F1CCB4;}
	.st186{fill:#F1CCB5;}
	.st187{fill:#F1CDB5;}
	.st188{fill:#F1CDB6;}
	.st189{fill:#F2CEB7;}
	.st190{fill:#F2CEB8;}
	.st191{fill:#F2CFB9;}
	.st192{fill:#F2D0BA;}
	.st193{fill:#F2D1BB;}
	.st194{fill:#F3D1BC;}
	.st195{fill:#F3D2BD;}
	.st196{fill:#F3D2BE;}
	.st197{fill:#F3D3BF;}
	.st198{fill:#F3D4C0;}
	.st199{fill:#F4D5C1;}
	.st200{fill:#F4D5C2;}
	.st201{fill:#F4D6C3;}
	.st202{fill:#F4D6C4;}
	.st203{fill:#F4D7C5;}
	.st204{fill:#F4D8C5;}
	.st205{fill:#F4D8C6;}
	.st206{fill:#F5D9C7;}
	.st207{fill:#F5D9C8;}
	.st208{fill:#F5DAC9;}
	.st209{fill:#F5DBCA;}
	.st210{fill:#F5DBCB;}
	.st211{fill:#F5DCCB;}
	.st212{fill:#F6DCCC;}
	.st213{fill:#F6DDCD;}
	.st214{fill:#F6DDCE;}
	.st215{fill:#F6DECF;}
	.st216{fill:#F6DFD0;}
	.st217{fill:#F7E0D1;}
	.st218{fill:#F7E0D2;}
	.st219{fill:#F7E1D3;}
	.st220{fill:#F7E1D4;}
	.st221{fill:#F7E2D5;}
	.st222{fill:#F7E3D6;}
	.st223{fill:#F8E4D7;}
	.st224{fill:#F8E4D8;}
	.st225{fill:#F8E5D9;}
	.st226{fill:#F8E6DA;}
	.st227{fill:#F8E6DB;}
	.st228{fill:#F8E7DB;}
	.st229{fill:#F9E7DC;}
	.st230{fill:#F9E8DD;}
	.st231{fill:#F9E8DE;}
	.st232{fill:#F9E9DF;}
	.st233{fill:#F9EAE0;}
	.st234{fill:#F9EAE1;}
	.st235{fill:#F9EBE1;}
	.st236{fill:#FAEBE2;}
	.st237{fill:#FAECE3;}
	.st238{fill:#FAECE4;}
	.st239{fill:#FAEDE5;}
	.st240{fill:#FAEEE6;}
	.st241{fill:#FBEFE7;}
	.st242{fill:#FBEFE8;}
	.st243{fill:#FBF0E9;}
	.st244{fill:#FBF1EA;}
	.st245{fill:#FBF1EB;}
	.st246{fill:#FBF2EC;}
	.st247{fill:#FCF2EC;}
	.st248{fill:#FCF3ED;}
	.st249{fill:#FCF3EE;}
	.st250{fill:#FCF4EF;}
	.st251{fill:#FCF5F0;}
	.st252{fill:#FCF5F1;}
	.st253{fill:#FCF6F1;}
	.st254{fill:#FDF6F2;}
	.st255{fill:#FDF7F3;}
	.st256{fill:#FDF7F4;}
	.st257{fill:#FDF8F5;}
	.st258{fill:#FDF9F6;}
	.st259{fill:#FDF9F7;}
	.st260{fill:#FEFAF7;}
	.st261{fill:#FEFAF8;}
	.st262{fill:#FEFBF9;}
	.st263{fill:#FEFCFA;}
	.st264{fill:#FEFCFB;}
	.st265{fill:#FEFDFC;}
	.st266{fill:#FFFDFC;}
	.st267{fill:#FFFEFD;}
	.st268{fill:#FFFEFE;}
	.st269{fill:none;stroke:#FFFFFF;stroke-width:8;stroke-linecap:round;stroke-linejoin:round;stroke-miterlimit:10;}
	.st270{fill:#FFFFFF;stroke:#D76B27;stroke-width:5;stroke-linecap:round;stroke-linejoin:round;stroke-miterlimit:10;}
	.st271{opacity:0.11;fill:#808080;}
	.st272{fill:#C9B9D9;stroke:#D76B27;stroke-width:5;stroke-linecap:round;stroke-linejoin:round;stroke-miterlimit:10;}
	.st273{fill:#FFFFFF;stroke:#D76B27;stroke-width:3;stroke-linecap:round;stroke-linejoin:round;stroke-miterlimit:10;}
	.st274{fill:none;stroke:#C9B9D9;stroke-width:3;stroke-linecap:round;stroke-miterlimit:10;}
	.st275{fill:#DC7E43;}
	.st276{opacity:0.48;fill:#DDE78B;}
	.st277{opacity:0.11;}
	.st278{fill:#808080;}
	.st279{fill:none;stroke:#000000;stroke-width:8;stroke-linecap:round;stroke-miterlimit:10;}
	.st280{fill:none;stroke:#2A4B24;stroke-width:8;stroke-miterlimit:10;}
	.st281{fill:none;stroke:#2A4B24;stroke-width:5;stroke-linecap:round;stroke-miterlimit:10;}
	.st282{fill:none;stroke:#C9B9D9;stroke-width:5;stroke-linecap:round;stroke-miterlimit:10;}
	.st283{fill:none;stroke:#2A4B24;stroke-width:5;stroke-linecap:round;stroke-linejoin:round;stroke-miterlimit:10;}
</style>
<g id="Layer_1">
	<g>
		<g>
			<path class="st0" d="M789.54,712.63H210.46c-22.83,0-41.33-18.5-41.33-41.33V328.7c0-22.83,18.5-41.33,41.33-41.33h579.09
				c22.83,0,41.33,18.5,41.33,41.33v342.6C830.88,694.12,812.37,712.63,789.54,712.63z"/>
			<path class="st3" d="M789.54,717.25H210.46c-25.34,0-45.95-20.61-45.95-45.95V328.7c0-25.34,20.61-45.95,45.95-45.95h579.09
				c25.34,0,45.95,20.61,45.95,45.95v342.6C835.5,696.64,814.88,717.25,789.54,717.25z M210.46,291.99
				c-20.24,0-36.71,16.47-36.71,36.71v342.6c0,20.24,16.47,36.71,36.71,36.71h579.09c20.24,0,36.71-16.47,36.71-36.71V328.7
				c0-20.24-16.47-36.71-36.71-36.71H210.46z"/>
		</g>
		<g>
			<rect x="589.76" y="287.37" class="st3" width="9.24" height="425.26"/>
		</g>
		<g>
			<path class="st5" d="M594.38,710.45H203.71c-19.1,0-34.58-15.48-34.58-34.58v-36.83h425.26V710.45z"/>
		</g>
		<g>
			<line class="st0" x1="594.38" y1="639.03" x2="169.13" y2="639.03"/>
			<rect x="169.13" y="634.41" class="st3" width="425.26" height="9.24"/>
		</g>
		<g>
			<path class="st6" d="M594.38,414.33H169.13v-87.44c0-21.83,17.7-39.52,39.52-39.52h385.74V414.33z"/>
		</g>
		<g>
			<path class="st3" d="M789.54,717.25H210.46c-25.34,0-45.95-20.61-45.95-45.95V328.7c0-25.34,20.61-45.95,45.95-45.95h579.09
				c25.34,0,45.95,20.61,45.95,45.95v342.6C835.5,696.64,814.88,717.25,789.54,717.25z M210.46,291.99
				c-20.24,0-36.71,16.47-36.71,36.71v342.6c0,20.24,16.47,36.71,36.71,36.71h579.09c20.24,0,36.71-16.47,36.71-36.71V328.7
				c0-20.24-16.47-36.71-36.71-36.71H210.46z"/>
		</g>
		<g>
			<rect x="589.76" y="287.37" class="st3" width="9.24" height="425.26"/>
		</g>
		<g>
			<line class="st0" x1="594.38" y1="417.15" x2="169.13" y2="417.15"/>
			<rect x="169.13" y="412.53" class="st3" width="425.26" height="9.24"/>
		</g>
		<g>
			<g>
				<path class="st3" d="M763.86,335.92H660.01c-1.6,0-2.89-1.29-2.89-2.89c0-1.6,1.29-2.89,2.89-2.89h103.85
					c1.6,0,2.89,1.29,2.89,2.89C766.75,334.63,765.45,335.92,763.86,335.92z"/>
			</g>
			<g>
				<path class="st3" d="M763.86,358.74H660.01c-1.6,0-2.89-1.29-2.89-2.89c0-1.6,1.29-2.89,2.89-2.89h103.85
					c1.6,0,2.89,1.29,2.89,2.89C766.75,357.45,765.45,358.74,763.86,358.74z"/>
			</g>
			<g>
				<path class="st3" d="M763.86,383.97H660.01c-1.6,0-2.89-1.29-2.89-2.89c0-1.6,1.29-2.89,2.89-2.89h103.85
					c1.6,0,2.89,1.29,2.89,2.89C766.75,382.68,765.45,383.97,763.86,383.97z"/>
			</g>
			<g>
				<path class="st3" d="M763.86,432.02H660.01c-1.6,0-2.89-1.29-2.89-2.89s1.29-2.89,2.89-2.89h103.85c1.6,0,2.89,1.29,2.89,2.89
					S765.45,432.02,763.86,432.02z"/>
			</g>
			<g>
				<path class="st3" d="M763.86,454.84H660.01c-1.6,0-2.89-1.29-2.89-2.89c0-1.6,1.29-2.89,2.89-2.89h103.85
					c1.6,0,2.89,1.29,2.89,2.89C766.75,453.55,765.45,454.84,763.86,454.84z"/>
			</g>
			<g>
				<path class="st3" d="M763.86,480.07H660.01c-1.6,0-2.89-1.29-2.89-2.89c0-1.6,1.29-2.89,2.89-2.89h103.85
					c1.6,0,2.89,1.29,2.89,2.89C766.75,478.77,765.45,480.07,763.86,480.07z"/>
			</g>
			<g>
				<path class="st3" d="M763.86,525.71H660.01c-1.6,0-2.89-1.29-2.89-2.89c0-1.6,1.29-2.89,2.89-2.89h103.85
					c1.6,0,2.89,1.29,2.89,2.89C766.75,524.42,765.45,525.71,763.86,525.71z"/>
			</g>
			<g>
				<path class="st3" d="M763.86,548.53H660.01c-1.6,0-2.89-1.29-2.89-2.89c0-1.6,1.29-2.89,2.89-2.89h103.85
					c1.6,0,2.89,1.29,2.89,2.89C766.75,547.24,765.45,548.53,763.86,548.53z"/>
			</g>
			<g>
				<path class="st3" d="M763.86,573.76H660.01c-1.6,0-2.89-1.29-2.89-2.89s1.29-2.89,2.89-2.89h103.85c1.6,0,2.89,1.29,2.89,2.89
					S765.45,573.76,763.86,573.76z"/>
			</g>
			<g>
				<path class="st3" d="M763.86,621.81H660.01c-1.6,0-2.89-1.29-2.89-2.89s1.29-2.89,2.89-2.89h103.85c1.6,0,2.89,1.29,2.89,2.89
					S765.45,621.81,763.86,621.81z"/>
			</g>
			<g>
				<path class="st3" d="M763.86,644.63H660.01c-1.6,0-2.89-1.29-2.89-2.89s1.29-2.89,2.89-2.89h103.85c1.6,0,2.89,1.29,2.89,2.89
					S765.45,644.63,763.86,644.63z"/>
			</g>
			<g>
				<path class="st3" d="M763.86,669.86H660.01c-1.6,0-2.89-1.29-2.89-2.89s1.29-2.89,2.89-2.89h103.85c1.6,0,2.89,1.29,2.89,2.89
					S765.45,669.86,763.86,669.86z"/>
			</g>
		</g>
		<g>
			<g>
				<g>
					<g>
						<path class="st1" d="M232.59,391.08c0,1.2-0.02,2.94-0.05,4.14c-0.02,0.74-0.08,1.57-0.66,2.04c-0.45,0.37-1.08,0.39-1.66,0.4
							c-3.66,0.05-7.32,0.09-10.97,0.14c-0.51,0.01-1.05,0-1.46-0.29c-0.59-0.43-0.67-1.26-0.69-1.99
							c-0.8-28.03-0.88-56.63-0.24-84.67c0.01-0.6,0.04-1.23,0.38-1.73c0.38-0.55,1.07-0.79,1.72-0.98
							c7.98-2.29,16.71-1.92,24.47,1.03c7.29,2.78,13.85,8.12,17.41,15.14c4,7.9,3.37,16.95,1.08,25.31
							c-1.18,4.3-2.93,8.45-5.25,12.26c-5.5,9.03-14.25,16.13-24.37,19.19C232.5,384.4,232.6,387.74,232.59,391.08z M231.93,363.21
							c5.68-1.68,11.42-4.91,14.16-10.39c3.31-6.62,3.77-13.59,1.6-20.67c-2.17-6.97-9.25-12.22-17.82-10.96
							C229.87,335.23,231.01,349.05,231.93,363.21z"/>
					</g>
				</g>
				<g>
					<g>
						<path class="st1" d="M282.14,379.02c-0.92,5.12-1.85,10.83-2.77,15.96c-0.08,0.44-0.18,0.91-0.5,1.22
							c-0.38,0.35-0.96,0.37-1.48,0.37c-3.57-0.01-7.15-0.01-10.72-0.02c-0.66,0-1.42-0.05-1.81-0.58c-0.3-0.41-0.27-0.98-0.21-1.49
							c2.51-24.65,7.56-50.3,12.61-74.57c0.69-3.31,1.38-6.63,2.07-9.94c0.14-0.68,0.3-1.41,0.77-1.92
							c0.71-0.78,1.89-0.86,2.94-0.89c6.35-0.16,12.69-0.32,19.04-0.48c0.51-0.01,1.06-0.02,1.49,0.26c0.56,0.36,0.75,1.07,0.9,1.72
							c3.95,17.04,7.82,34.84,11.4,51.97c2.17,10.39,4.27,21.39,6.29,31.81c0.19,0.99,0.36,2.1-0.22,2.93
							c-0.55,0.79-1.59,1.03-2.53,1.21c-3.83,0.7-7.71,1.15-11.6,1.34c-0.56,0.03-1.16,0.04-1.64-0.25
							c-0.68-0.41-0.9-1.27-1.06-2.04c-1.23-5.8-2.45-12.19-3.68-17.99C295,378.1,288.57,378.56,282.14,379.02
							C282.14,379.02,282.14,379.02,282.14,379.02z M291.17,322.51c-1.6,3.96-7.31,40.58-6.74,44.08c4.45,0.57,9.5-0.04,14.26-0.9
							C296.26,350.15,294.2,337.97,291.17,322.51z"/>
					</g>
				</g>
				<g>
					<g>
						<path class="st1" d="M360.34,382.2c5.18-0.04,10.37-0.08,15.55-0.12c0.88-0.01,1.88,0.03,2.47,0.69
							c0.46,0.51,0.54,1.26,0.58,1.95c0.23,3.5,0.26,7.01,0.11,10.52c-0.03,0.59-0.07,1.22-0.43,1.7c-0.56,0.74-1.64,0.8-2.57,0.8
							c-10.32-0.08-20.64-0.16-30.96-0.24c-3.32-0.03-6.64-0.05-9.96-0.08c-1.69-0.01-3.67-0.17-4.61-1.58
							c-0.55-0.83-0.59-1.88-0.61-2.88c-0.47-26.73-0.93-54.6-0.49-81.33c0.04-2.32,0.02-4.72,2.68-4.84
							c3.01-0.13,6.03-0.14,9.05-0.16c0.62,0,1.3,0.01,1.77,0.42c0.54,0.46,0.6,1.26,0.63,1.97c0.86,23.63,1.73,48.4,2.59,72.04
							c0.01,0.38,0.05,0.8,0.34,1.05c0.25,0.21,0.6,0.22,0.93,0.22C351.72,382.27,356.03,382.23,360.34,382.2z"/>
					</g>
				</g>
				<g>
					<g>
						<g>
							<path class="st3" d="M431.01,309.26c-2.01-1.75-4.49-2.64-7.37-2.64c-2.43,0-4.82,0.62-7.11,1.84
								c-2.87,1.54-5.73,3.81-8.49,6.74c-2.71,2.87-5.41,6.48-8.04,10.71c-4.09,6.48-7.02,12.76-8.71,18.66
								c-2.63-2.94-5.7-7.71-9.11-14.2c-0.6-1.29-1.23-2.6-1.83-3.86c-2.52-5.3-5.12-10.78-7.22-16.32l-0.93-2.56
								c-0.22-0.61-0.8-1.01-1.45-1.01h-10.34c-0.49,0-0.94,0.23-1.24,0.62c-0.29,0.39-0.38,0.89-0.24,1.36
								c2.69,9.03,6.41,18.1,11.37,27.74l0.02,0.04c6.84,12.87,12.9,20.17,19.03,22.96c-0.42,10.03-0.42,22.15-0.42,35.02v1.64
								c0,0.9,0.73,1.63,1.63,1.63h10.04c0.9,0,1.63-0.73,1.63-1.63v-1.64c0-13.07,0.01-25.64,0.43-35.45
								c4.95-2.15,10.19-6,16.02-11.78c5.35-5.3,9.45-10.32,12.18-14.92c2.9-4.88,4.37-9.48,4.37-13.65
								C435.24,314.67,433.78,311.46,431.01,309.26z M423.37,318.71c-1.28,4.21-4.93,9.66-10.86,16.21
								c-2.47,2.68-4.94,5.14-7.36,7.32c1.43-3.11,3.3-6.37,5.58-9.71C415.12,326.09,419.37,321.45,423.37,318.71z"/>
						</g>
					</g>
				</g>
			</g>
			<g>
				<path class="st5" d="M421.18,396.04L421.18,396.04c-1.01,1.65-3.51,1.21-3.9-0.69v0c-0.22-1.09-1.25-1.82-2.35-1.69h0
					c-1.92,0.24-3.13-1.99-1.9-3.48l0,0c0.71-0.85,0.65-2.11-0.15-2.89l0,0c-1.38-1.35-0.39-3.69,1.54-3.65h0
					c1.11,0.02,2.05-0.81,2.17-1.91l0,0c0.19-1.92,2.64-2.61,3.81-1.08l0,0c0.67,0.88,1.91,1.1,2.85,0.5l0,0
					c1.62-1.05,3.69,0.44,3.22,2.31l0,0c-0.27,1.08,0.33,2.18,1.38,2.54l0,0c1.83,0.62,1.96,3.16,0.2,3.96l0,0
					c-1.01,0.46-1.5,1.62-1.12,2.66l0,0c0.66,1.82-1.25,3.5-2.97,2.62l0,0C422.98,394.75,421.76,395.09,421.18,396.04z"/>
			</g>
		</g>
		<g>
			<g>
				<g>
					<g>
						<path class="st5" d="M244.21,486.89h-26.6c-5.36,0-9.73-4.36-9.73-9.73v-26.6c0-5.36,4.36-9.73,9.73-9.73h26.6
							c5.36,0,9.73,4.36,9.73,9.73v26.6C253.93,482.53,249.57,486.89,244.21,486.89z M217.61,446.61c-2.18,0-3.95,1.77-3.95,3.95
							v26.6c0,2.18,1.77,3.95,3.95,3.95h26.6c2.18,0,3.95-1.77,3.95-3.95v-26.6c0-2.18-1.77-3.95-3.95-3.95H217.61z"/>
					</g>
				</g>
				<g>
					<g>
						<path class="st5" d="M545.34,471.37c-13.2,0-19.9-2.44-26.37-4.8c-6.28-2.29-12.21-4.45-24.39-4.45s-18.11,2.16-24.39,4.45
							c-6.48,2.36-13.17,4.8-26.37,4.8c-13.2,0-19.89-2.44-26.37-4.8c-6.28-2.29-12.21-4.45-24.39-4.45
							c-12.18,0-18.11,2.16-24.39,4.45c-6.47,2.36-13.17,4.8-26.37,4.8c-13.2,0-19.89-2.44-26.37-4.8
							c-6.28-2.29-12.21-4.45-24.39-4.45c-1.6,0-2.89-1.29-2.89-2.89s1.29-2.89,2.89-2.89c13.2,0,19.89,2.44,26.37,4.8
							c6.28,2.29,12.21,4.45,24.39,4.45c12.18,0,18.11-2.16,24.39-4.45c6.47-2.36,13.17-4.8,26.37-4.8c13.2,0,19.89,2.44,26.37,4.8
							c6.28,2.29,12.21,4.45,24.39,4.45c12.18,0,18.11-2.16,24.39-4.45c6.48-2.36,13.17-4.8,26.37-4.8c13.2,0,19.9,2.44,26.37,4.8
							c6.28,2.29,12.21,4.45,24.39,4.45c1.6,0,2.89,1.29,2.89,2.89C548.23,470.08,546.94,471.37,545.34,471.37z"/>
					</g>
				</g>
			</g>
			<g>
				<g>
					<g>
						<path class="st5" d="M244.21,551.12h-26.6c-5.36,0-9.73-4.36-9.73-9.73v-26.6c0-5.36,4.36-9.73,9.73-9.73h26.6
							c5.36,0,9.73,4.36,9.73,9.73v26.6C253.93,546.76,249.57,551.12,244.21,551.12z M217.61,510.84c-2.18,0-3.95,1.77-3.95,3.95
							v26.6c0,2.18,1.77,3.95,3.95,3.95h26.6c2.18,0,3.95-1.77,3.95-3.95v-26.6c0-2.18-1.77-3.95-3.95-3.95H217.61z"/>
					</g>
				</g>
				<g>
					<g>
						<path class="st5" d="M545.34,535.61c-13.2,0-19.9-2.44-26.37-4.8c-6.28-2.29-12.21-4.45-24.39-4.45s-18.11,2.16-24.39,4.45
							c-6.48,2.36-13.17,4.8-26.37,4.8c-13.2,0-19.89-2.44-26.37-4.8c-6.28-2.29-12.21-4.45-24.39-4.45
							c-12.18,0-18.11,2.16-24.39,4.45c-6.47,2.36-13.17,4.8-26.37,4.8c-13.2,0-19.89-2.44-26.37-4.8
							c-6.28-2.29-12.21-4.45-24.39-4.45c-1.6,0-2.89-1.29-2.89-2.89c0-1.6,1.29-2.89,2.89-2.89c13.2,0,19.89,2.44,26.37,4.8
							c6.28,2.29,12.21,4.45,24.39,4.45c12.18,0,18.11-2.16,24.39-4.45c6.47-2.36,13.17-4.8,26.37-4.8c13.2,0,19.89,2.44,26.37,4.8
							c6.28,2.29,12.21,4.45,24.39,4.45c12.18,0,18.11-2.16,24.39-4.45c6.48-2.36,13.17-4.8,26.37-4.8c13.2,0,19.9,2.44,26.37,4.8
							c6.28,2.29,12.21,4.45,24.39,4.45c1.6,0,2.89,1.29,2.89,2.89S546.94,535.61,545.34,535.61z"/>
					</g>
				</g>
			</g>
			<g>
				<g>
					<g>
						<path class="st5" d="M244.21,615.35h-26.6c-5.36,0-9.73-4.36-9.73-9.73v-26.6c0-5.36,4.36-9.73,9.73-9.73h26.6
							c5.36,0,9.73,4.36,9.73,9.73v26.6C253.93,610.99,249.57,615.35,244.21,615.35z M217.61,575.08c-2.18,0-3.95,1.77-3.95,3.95
							v26.6c0,2.18,1.77,3.95,3.95,3.95h26.6c2.18,0,3.95-1.77,3.95-3.95v-26.6c0-2.18-1.77-3.95-3.95-3.95H217.61z"/>
					</g>
				</g>
				<g>
					<g>
						<path class="st5" d="M545.34,604.12c-13.2,0-19.9-2.44-26.37-4.8c-6.28-2.29-12.21-4.45-24.39-4.45s-18.11,2.16-24.39,4.45
							c-6.48,2.36-13.17,4.8-26.37,4.8c-13.2,0-19.89-2.44-26.37-4.8c-6.28-2.29-12.21-4.45-24.39-4.45
							c-12.18,0-18.11,2.16-24.39,4.45c-6.47,2.36-13.17,4.8-26.37,4.8c-13.2,0-19.89-2.44-26.37-4.8
							c-6.28-2.29-12.21-4.45-24.39-4.45c-1.6,0-2.89-1.29-2.89-2.89s1.29-2.89,2.89-2.89c13.2,0,19.89,2.44,26.37,4.8
							c6.28,2.29,12.21,4.45,24.39,4.45c12.18,0,18.11-2.16,24.39-4.45c6.47-2.36,13.17-4.8,26.37-4.8c13.2,0,19.89,2.44,26.37,4.8
							c6.28,2.29,12.21,4.45,24.39,4.45c12.18,0,18.11-2.16,24.39-4.45c6.48-2.36,13.17-4.8,26.37-4.8c13.2,0,19.9,2.44,26.37,4.8
							c6.28,2.29,12.21,4.45,24.39,4.45c1.6,0,2.89,1.29,2.89,2.89C548.23,602.82,546.94,604.12,545.34,604.12z"/>
					</g>
				</g>
			</g>
		</g>
		<g>
			<path class="st3" d="M230.88,539.52c-1.02,0-1.98-0.54-2.5-1.44c-2.47-4.26-5.39-8.28-8.67-11.95c-1.06-1.19-0.96-3.01,0.23-4.08
				c1.19-1.07,3.02-0.96,4.08,0.23c2.05,2.29,3.98,4.72,5.75,7.24c3.46-11.99,8.56-23.4,15.21-34.01c0.85-1.35,2.63-1.76,3.98-0.91
				c1.35,0.85,1.76,2.63,0.91,3.98c-7.5,11.95-12.94,24.98-16.18,38.72c-0.27,1.15-1.22,2.02-2.39,2.19
				C231.16,539.51,231.02,539.52,230.88,539.52z"/>
		</g>
	</g>
</g>
<g id="Layer_2">
</g>
<g id="Layer_3">
</g>
</svg>
