<?xml version="1.0" encoding="utf-8"?>
<!-- Generator: Adobe Illustrator 28.2.0, SVG Export Plug-In . SVG Version: 6.00 Build 0)  -->
<svg version="1.1" xmlns="http://www.w3.org/2000/svg" xmlns:xlink="http://www.w3.org/1999/xlink" x="0px" y="0px"
	 viewBox="0 0 1000 1000" style="enable-background:new 0 0 1000 1000;" xml:space="preserve">
<style type="text/css">
	.st0{fill:#DDE78B;}
	.st1{fill:#D76B27;}
	.st2{fill:#BFA8D1;}
	.st3{fill:#2A4B24;}
	.st4{fill:#C9B9D9;}
	.st5{fill:#FFFFFF;stroke:#2A4B24;stroke-width:8;stroke-linecap:round;stroke-linejoin:round;stroke-miterlimit:10;}
	.st6{fill:#FFFFFF;}
	.st7{fill:#FFFFFF;stroke:#C9B9D9;stroke-width:5;stroke-linecap:round;stroke-linejoin:round;stroke-miterlimit:10;}
	.st8{fill:none;stroke:#D76B27;stroke-width:5;stroke-linecap:round;stroke-linejoin:round;stroke-miterlimit:10;}
	.st9{fill:none;stroke:#2A4B24;stroke-width:8;stroke-linecap:round;stroke-linejoin:round;stroke-miterlimit:10;}
	.st10{fill:#BA5327;}
	.st11{fill:none;}
	.st12{fill:#C9B9D9;stroke:#DDE78B;stroke-width:5;stroke-miterlimit:10;}
	.st13{fill:#C1CFDA;}
	.st14{fill:none;stroke:#DDE78B;stroke-width:5;stroke-miterlimit:10;}
	.st15{fill:#2A4B24;stroke:#FFFFFF;stroke-width:3;stroke-miterlimit:10;}
	.st16{fill:#F2F2F2;}
	.st17{fill:none;stroke:#2A4B24;stroke-width:5;stroke-linecap:round;stroke-linejoin:round;}
	.st18{fill:none;stroke:#2A4B24;stroke-width:5;stroke-linecap:round;stroke-linejoin:round;stroke-dasharray:32.5624,32.5624;}
	.st19{fill:#DDE78B;stroke:#2A4B24;stroke-width:8;stroke-linecap:round;stroke-linejoin:round;stroke-miterlimit:10;}
	.st20{fill:none;stroke:#C9B9D9;stroke-width:8;stroke-linecap:round;stroke-linejoin:round;stroke-miterlimit:10;}
	.st21{fill:none;stroke:#D76B27;stroke-width:10;stroke-linecap:round;stroke-linejoin:round;stroke-miterlimit:10;}
	.st22{fill:none;stroke:#000000;stroke-width:4;stroke-miterlimit:10;}
	.st23{fill:#DDE78B;stroke:#DDE78B;stroke-width:4;stroke-miterlimit:10;}
	.st24{fill:none;stroke:#D76B27;stroke-miterlimit:10;}
	.st25{fill:none;stroke:#D76B27;stroke-width:7;stroke-linecap:round;stroke-miterlimit:10;}
	.st26{fill:none;stroke:#2A4B24;stroke-width:7;stroke-linecap:round;stroke-linejoin:round;stroke-miterlimit:10;}
	.st27{fill:none;stroke:#C9B9D9;stroke-width:7;stroke-linecap:round;stroke-linejoin:round;stroke-miterlimit:10;}
	.st28{fill:#C9B9D9;stroke:#D76B27;stroke-width:8;stroke-miterlimit:10;}
	.st29{fill:#DDE78B;stroke:#D76B27;stroke-width:5;stroke-miterlimit:10;}
	.st30{fill:#DDE78B;stroke:#2A4B24;stroke-width:8;stroke-miterlimit:10;}
	.st31{fill:#D76C28;}
	.st32{fill:#D76D29;}
	.st33{fill:#D76D2A;}
	.st34{fill:#D86E2B;}
	.st35{fill:#D86F2C;}
	.st36{fill:#D8702D;}
	.st37{fill:#D8702E;}
	.st38{fill:#D8712F;}
	.st39{fill:#D97130;}
	.st40{fill:#D97231;}
	.st41{fill:#D97332;}
	.st42{fill:#D97433;}
	.st43{fill:#D97434;}
	.st44{fill:#D97535;}
	.st45{fill:#DA7536;}
	.st46{fill:#DA7636;}
	.st47{fill:#DA7637;}
	.st48{fill:#DA7738;}
	.st49{fill:#DA7839;}
	.st50{fill:#DA783A;}
	.st51{fill:#DB793B;}
	.st52{fill:#DB793C;}
	.st53{fill:#DB7A3C;}
	.st54{fill:#DB7B3D;}
	.st55{fill:#DB7B3E;}
	.st56{fill:#DB7C3F;}
	.st57{fill:#DB7C40;}
	.st58{fill:#DC7D41;}
	.st59{fill:#DC7E42;}
	.st60{fill:#DC7F43;}
	.st61{fill:#DC7F44;}
	.st62{fill:#DC8045;}
	.st63{fill:#DD8046;}
	.st64{fill:#DD8147;}
	.st65{fill:#DD8248;}
	.st66{fill:#DD8349;}
	.st67{fill:#DD834A;}
	.st68{fill:#DE844B;}
	.st69{fill:#DE844C;}
	.st70{fill:#DE854C;}
	.st71{fill:#DE864D;}
	.st72{fill:#DE864E;}
	.st73{fill:#DE874F;}
	.st74{fill:#DE8750;}
	.st75{fill:#DF8851;}
	.st76{fill:#DF8852;}
	.st77{fill:#DF8952;}
	.st78{fill:#DF8A53;}
	.st79{fill:#DF8A54;}
	.st80{fill:#DF8B55;}
	.st81{fill:#E08B56;}
	.st82{fill:#E08C57;}
	.st83{fill:#E08D58;}
	.st84{fill:#E08E59;}
	.st85{fill:#E08E5A;}
	.st86{fill:#E18F5B;}
	.st87{fill:#E18F5C;}
	.st88{fill:#E1905D;}
	.st89{fill:#E1915E;}
	.st90{fill:#E1925F;}
	.st91{fill:#E19260;}
	.st92{fill:#E29361;}
	.st93{fill:#E29362;}
	.st94{fill:#E29462;}
	.st95{fill:#E29563;}
	.st96{fill:#E29564;}
	.st97{fill:#E29665;}
	.st98{fill:#E39666;}
	.st99{fill:#E39767;}
	.st100{fill:#E39768;}
	.st101{fill:#E39868;}
	.st102{fill:#E39969;}
	.st103{fill:#E3996A;}
	.st104{fill:#E49A6B;}
	.st105{fill:#E49A6C;}
	.st106{fill:#E49B6D;}
	.st107{fill:#E49C6E;}
	.st108{fill:#E49D6F;}
	.st109{fill:#E49D70;}
	.st110{fill:#E59E71;}
	.st111{fill:#E59E72;}
	.st112{fill:#E59F73;}
	.st113{fill:#E5A073;}
	.st114{fill:#E5A074;}
	.st115{fill:#E5A175;}
	.st116{fill:#E6A176;}
	.st117{fill:#E6A277;}
	.st118{fill:#E6A278;}
	.st119{fill:#E6A378;}
	.st120{fill:#E6A479;}
	.st121{fill:#E6A47A;}
	.st122{fill:#E6A57B;}
	.st123{fill:#E7A57C;}
	.st124{fill:#E7A67D;}
	.st125{fill:#E7A67E;}
	.st126{fill:#E7A77E;}
	.st127{fill:#E7A87F;}
	.st128{fill:#E7A880;}
	.st129{fill:#E8A981;}
	.st130{fill:#E8A982;}
	.st131{fill:#E8AA83;}
	.st132{fill:#E8AB83;}
	.st133{fill:#E8AB84;}
	.st134{fill:#E8AC85;}
	.st135{fill:#E9AC86;}
	.st136{fill:#E9AD87;}
	.st137{fill:#E9AD88;}
	.st138{fill:#E9AE89;}
	.st139{fill:#E9AF89;}
	.st140{fill:#E9AF8A;}
	.st141{fill:#E9B08B;}
	.st142{fill:#EAB08C;}
	.st143{fill:#EAB18D;}
	.st144{fill:#EAB18E;}
	.st145{fill:#EAB28E;}
	.st146{fill:#EAB38F;}
	.st147{fill:#EAB390;}
	.st148{fill:#EBB491;}
	.st149{fill:#EBB492;}
	.st150{fill:#EBB593;}
	.st151{fill:#EBB694;}
	.st152{fill:#EBB795;}
	.st153{fill:#ECB796;}
	.st154{fill:#ECB897;}
	.st155{fill:#ECB898;}
	.st156{fill:#ECB999;}
	.st157{fill:#ECBA99;}
	.st158{fill:#ECBA9A;}
	.st159{fill:#ECBB9B;}
	.st160{fill:#EDBB9C;}
	.st161{fill:#EDBC9D;}
	.st162{fill:#EDBC9E;}
	.st163{fill:#EDBD9F;}
	.st164{fill:#EDBE9F;}
	.st165{fill:#EDBEA0;}
	.st166{fill:#EEBFA1;}
	.st167{fill:#EEBFA2;}
	.st168{fill:#EEC0A3;}
	.st169{fill:#EEC1A4;}
	.st170{fill:#EEC2A5;}
	.st171{fill:#EFC2A6;}
	.st172{fill:#EFC3A7;}
	.st173{fill:#EFC3A8;}
	.st174{fill:#EFC4A9;}
	.st175{fill:#EFC5AA;}
	.st176{fill:#EFC6AB;}
	.st177{fill:#F0C6AC;}
	.st178{fill:#F0C7AD;}
	.st179{fill:#F0C7AE;}
	.st180{fill:#F0C8AF;}
	.st181{fill:#F0C9AF;}
	.st182{fill:#F0C9B0;}
	.st183{fill:#F1CAB1;}
	.st184{fill:#F1CAB2;}
	.st185{fill:#F1CBB3;}
	.st186{fill:#F1CCB4;}
	.st187{fill:#F1CCB5;}
	.st188{fill:#F1CDB5;}
	.st189{fill:#F1CDB6;}
	.st190{fill:#F2CEB7;}
	.st191{fill:#F2CEB8;}
	.st192{fill:#F2CFB9;}
	.st193{fill:#F2D0BA;}
	.st194{fill:#F2D1BB;}
	.st195{fill:#F3D1BC;}
	.st196{fill:#F3D2BD;}
	.st197{fill:#F3D2BE;}
	.st198{fill:#F3D3BF;}
	.st199{fill:#F3D4C0;}
	.st200{fill:#F4D5C1;}
	.st201{fill:#F4D5C2;}
	.st202{fill:#F4D6C3;}
	.st203{fill:#F4D6C4;}
	.st204{fill:#F4D7C5;}
	.st205{fill:#F4D8C5;}
	.st206{fill:#F4D8C6;}
	.st207{fill:#F5D9C7;}
	.st208{fill:#F5D9C8;}
	.st209{fill:#F5DAC9;}
	.st210{fill:#F5DBCA;}
	.st211{fill:#F5DBCB;}
	.st212{fill:#F5DCCB;}
	.st213{fill:#F6DCCC;}
	.st214{fill:#F6DDCD;}
	.st215{fill:#F6DDCE;}
	.st216{fill:#F6DECF;}
	.st217{fill:#F6DFD0;}
	.st218{fill:#F7E0D1;}
	.st219{fill:#F7E0D2;}
	.st220{fill:#F7E1D3;}
	.st221{fill:#F7E1D4;}
	.st222{fill:#F7E2D5;}
	.st223{fill:#F7E3D6;}
	.st224{fill:#F8E4D7;}
	.st225{fill:#F8E4D8;}
	.st226{fill:#F8E5D9;}
	.st227{fill:#F8E6DA;}
	.st228{fill:#F8E6DB;}
	.st229{fill:#F8E7DB;}
	.st230{fill:#F9E7DC;}
	.st231{fill:#F9E8DD;}
	.st232{fill:#F9E8DE;}
	.st233{fill:#F9E9DF;}
	.st234{fill:#F9EAE0;}
	.st235{fill:#F9EAE1;}
	.st236{fill:#F9EBE1;}
	.st237{fill:#FAEBE2;}
	.st238{fill:#FAECE3;}
	.st239{fill:#FAECE4;}
	.st240{fill:#FAEDE5;}
	.st241{fill:#FAEEE6;}
	.st242{fill:#FBEFE7;}
	.st243{fill:#FBEFE8;}
	.st244{fill:#FBF0E9;}
	.st245{fill:#FBF1EA;}
	.st246{fill:#FBF1EB;}
	.st247{fill:#FBF2EC;}
	.st248{fill:#FCF2EC;}
	.st249{fill:#FCF3ED;}
	.st250{fill:#FCF3EE;}
	.st251{fill:#FCF4EF;}
	.st252{fill:#FCF5F0;}
	.st253{fill:#FCF5F1;}
	.st254{fill:#FCF6F1;}
	.st255{fill:#FDF6F2;}
	.st256{fill:#FDF7F3;}
	.st257{fill:#FDF7F4;}
	.st258{fill:#FDF8F5;}
	.st259{fill:#FDF9F6;}
	.st260{fill:#FDF9F7;}
	.st261{fill:#FEFAF7;}
	.st262{fill:#FEFAF8;}
	.st263{fill:#FEFBF9;}
	.st264{fill:#FEFCFA;}
	.st265{fill:#FEFCFB;}
	.st266{fill:#FEFDFC;}
	.st267{fill:#FFFDFC;}
	.st268{fill:#FFFEFD;}
	.st269{fill:#FFFEFE;}
	.st270{fill:none;stroke:#FFFFFF;stroke-width:8;stroke-linecap:round;stroke-linejoin:round;stroke-miterlimit:10;}
	.st271{fill:#FFFFFF;stroke:#D76B27;stroke-width:5;stroke-linecap:round;stroke-linejoin:round;stroke-miterlimit:10;}
	.st272{opacity:0.11;fill:#808080;}
	.st273{fill:#C9B9D9;stroke:#D76B27;stroke-width:5;stroke-linecap:round;stroke-linejoin:round;stroke-miterlimit:10;}
	.st274{fill:#FFFFFF;stroke:#D76B27;stroke-width:3;stroke-linecap:round;stroke-linejoin:round;stroke-miterlimit:10;}
	.st275{fill:none;stroke:#C9B9D9;stroke-width:3;stroke-linecap:round;stroke-miterlimit:10;}
	.st276{fill:#DC7E43;}
	.st277{fill:#1A1A1A;}
	.st278{opacity:0.48;fill:#DDE78B;}
	.st279{opacity:0.11;}
	.st280{fill:#808080;}
	.st281{fill:none;stroke:#000000;stroke-width:8;stroke-linecap:round;stroke-miterlimit:10;}
</style>
<g id="Layer_1">
	<g>
		<g>
			<polygon class="st0" points="257.61,472.92 519.34,472.92 564.57,571.48 309.31,571.48 			"/>
			<path class="st3" d="M564.57,578.27H309.31c-2.53,0-4.84-1.4-6.02-3.64l-51.7-98.55c-1.1-2.11-1.03-4.64,0.2-6.67
				c1.23-2.04,3.44-3.28,5.82-3.28h261.73c2.66,0,5.07,1.55,6.18,3.96l45.24,98.55c0.97,2.1,0.79,4.55-0.46,6.5
				C569.04,577.09,566.89,578.27,564.57,578.27z M313.42,564.68h240.56l-39-84.96H268.84L313.42,564.68z"/>
		</g>
		<g>
			<polygon class="st0" points="309.31,571.48 319.48,818.24 563.68,828.7 563.68,571.48 			"/>
			<path class="st3" d="M563.68,835.5c-0.1,0-0.19,0-0.29-0.01l-244.2-10.46c-3.53-0.15-6.35-2.98-6.5-6.51l-10.17-246.76
				c-0.07-1.85,0.61-3.65,1.89-4.99c1.28-1.34,3.05-2.09,4.9-2.09h254.37c3.75,0,6.8,3.04,6.8,6.8V828.7c0,1.85-0.76,3.63-2.09,4.91
				C567.11,834.83,565.43,835.5,563.68,835.5z M326.01,811.72l230.87,9.89V578.27h-240.5L326.01,811.72z"/>
		</g>
		<g>
			<polygon class="st0" points="563.68,571.48 690.49,565.47 693.72,797.34 563.68,828.7 			"/>
			<path class="st3" d="M563.68,835.5c-1.51,0-2.99-0.5-4.2-1.46c-1.64-1.29-2.59-3.26-2.59-5.34V571.48c0-3.63,2.85-6.62,6.47-6.79
				l126.81-6.01c1.86-0.09,3.64,0.58,4.98,1.84c1.34,1.26,2.11,3.01,2.14,4.86l3.23,231.87c0.04,3.17-2.12,5.96-5.2,6.7
				l-130.04,31.36C564.74,835.44,564.21,835.5,563.68,835.5z M570.47,577.96v242.12l116.38-28.06l-3.06-219.42L570.47,577.96z"/>
		</g>
		<g>
			<polygon class="st0" points="563.68,571.48 608.57,473.15 742.39,472.2 690.49,565.47 			"/>
			<path class="st3" d="M563.68,578.27c-2.25,0-4.36-1.11-5.63-2.99c-1.33-1.96-1.54-4.48-0.55-6.63l44.89-98.33
				c1.1-2.4,3.49-3.95,6.13-3.97l133.83-0.95c2.39-0.04,4.66,1.25,5.89,3.33c1.23,2.08,1.27,4.66,0.09,6.77l-51.91,93.27
				c-1.14,2.05-3.27,3.37-5.62,3.48L564,578.27C563.89,578.27,563.78,578.27,563.68,578.27z M612.95,479.91l-38.46,84.25l111.9-5.3
				l44.4-79.78L612.95,479.91z"/>
		</g>
		<g>
			<path class="st4" d="M401.7,431.63c-2.96,0-5.69-1.95-6.54-4.95c-21.44-75.8-59.01-122.06-114.87-141.42
				c-3.55-1.23-5.42-5.1-4.19-8.65c1.23-3.55,5.09-5.43,8.65-4.19c60.36,20.93,100.75,70.18,123.49,150.56
				c1.02,3.61-1.08,7.37-4.69,8.39C402.93,431.55,402.31,431.63,401.7,431.63z"/>
		</g>
		<g>
			<path class="st4" d="M457.6,381.87c-3.57,0-6.57-2.79-6.78-6.4c-4.23-73.33-0.71-149.37,53.3-208.75
				c2.52-2.78,6.82-2.98,9.6-0.45c2.78,2.53,2.98,6.82,0.45,9.6c-50.63,55.66-53.85,128.45-49.78,198.82
				c0.22,3.75-2.65,6.96-6.39,7.18C457.87,381.87,457.74,381.87,457.6,381.87z"/>
		</g>
		<g>
			<path class="st4" d="M618.36,404.64c-0.64,0-1.29-0.09-1.94-0.28c-3.6-1.07-5.65-4.85-4.58-8.45
				c7.28-24.48,24.59-49.61,47.5-68.94c24.16-20.39,51.53-32.05,77.05-32.83c3.76-0.11,6.88,2.83,7,6.59c0.11,3.75-2.83,6.89-6.59,7
				c-45.46,1.39-97.77,44.41-111.94,92.06C623.99,402.73,621.29,404.64,618.36,404.64z"/>
		</g>
		<g>
			<path class="st4" d="M547.68,435.36c-0.68,0-1.36-0.1-2.04-0.32c-3.58-1.13-5.57-4.94-4.44-8.52
				c12.75-40.45,7.23-86.26-14.76-122.53c-1.95-3.21-0.92-7.39,2.29-9.33c3.21-1.95,7.39-0.92,9.33,2.29
				c23.99,39.56,30.01,89.53,16.1,133.66C553.25,433.51,550.57,435.36,547.68,435.36z"/>
		</g>
		<g>
			<path class="st1" d="M430.94,773.58c0.23,2.79-0.23,5.59-0.23,8.61c0,2.09-1.4,3.49-3.72,3.72c-7.45,0-14.9,0.23-22.35,0.23
				c-4.42,0.23-5.12-0.93-5.35-5.35c-0.23-6.05,0-11.87-0.23-17.92c-1.4-29.56-1.16-59.12-0.93-88.92
				c0.23-20.72,0.23-41.67,0.47-62.38c0-5.12,0.93-6.05,6.05-7.45c32.77-8.94,74.01,5.28,86.26,38.98
				c7.69,21.15,2.62,45.15-7.7,64.48c-9.21,17.25-22.93,33.81-41.43,41.38c-0.82,0.33-11.51,4.21-11.52,3.91
				C430.24,752.86,430.94,773.58,430.94,773.58z M429.54,716.78c3.49-1.63,6.52-2.33,9.31-3.72c8.61-3.49,15.36-9.54,19.55-17.46
				c6.75-13.5,7.68-27.7,3.26-42.13c-4.42-14.2-18.85-24.91-36.31-22.35C425.35,659.75,427.68,687.92,429.54,716.78z"/>
		</g>
		<g>
			<path class="st1" d="M620.22,714.23L620.22,714.23c-4.14,2.84-9.61-0.86-8.53-5.76l0,0c0.62-2.82-1.02-5.64-3.78-6.48l0,0
				c-4.8-1.47-5.32-8.05-0.81-10.26h0c2.59-1.27,3.77-4.32,2.71-7v0c-1.84-4.66,2.98-9.18,7.51-7.03h0
				c2.61,1.24,5.73,0.26,7.16-2.24l0,0c2.5-4.35,9.03-3.39,10.18,1.49l0,0c0.66,2.81,3.37,4.64,6.22,4.2h0
				c4.96-0.76,8.29,4.94,5.18,8.89h0c-1.78,2.27-1.53,5.53,0.59,7.48l0,0c3.69,3.4,1.3,9.56-3.72,9.59h0
				c-2.89,0.02-5.27,2.25-5.48,5.13l0,0c-0.36,5-6.66,6.98-9.82,3.08l0,0C625.84,713.08,622.6,712.6,620.22,714.23z"/>
		</g>
	</g>
</g>
<g id="Layer_2">
</g>
</svg>
