<?xml version="1.0" encoding="utf-8"?>
<!-- Generator: Adobe Illustrator 28.2.0, SVG Export Plug-In . SVG Version: 6.00 Build 0)  -->
<svg version="1.1" xmlns="http://www.w3.org/2000/svg" xmlns:xlink="http://www.w3.org/1999/xlink" x="0px" y="0px"
	 viewBox="0 0 1000 1000" style="enable-background:new 0 0 1000 1000;" xml:space="preserve">
<style type="text/css">
	.st0{fill:#DDE78B;}
	.st1{fill:#D76B27;}
	.st2{fill:#BFA8D1;}
	.st3{fill:#2A4B24;}
	.st4{fill:#C9B9D9;}
	.st5{fill:#FFFFFF;stroke:#2A4B24;stroke-width:8;stroke-linecap:round;stroke-linejoin:round;stroke-miterlimit:10;}
	.st6{fill:#FFFFFF;}
	.st7{fill:#FFFFFF;stroke:#C9B9D9;stroke-width:5;stroke-linecap:round;stroke-linejoin:round;stroke-miterlimit:10;}
	.st8{fill:none;stroke:#D76B27;stroke-width:5;stroke-linecap:round;stroke-linejoin:round;stroke-miterlimit:10;}
	.st9{fill:none;stroke:#2A4B24;stroke-width:8;stroke-linecap:round;stroke-linejoin:round;stroke-miterlimit:10;}
	.st10{fill:#BA5327;}
	.st11{fill:none;}
	.st12{fill:#C9B9D9;stroke:#DDE78B;stroke-width:5;stroke-miterlimit:10;}
	.st13{fill:#C1CFDA;}
	.st14{fill:none;stroke:#DDE78B;stroke-width:5;stroke-miterlimit:10;}
	.st15{fill:#2A4B24;stroke:#FFFFFF;stroke-width:3;stroke-miterlimit:10;}
	.st16{fill:#F2F2F2;}
	.st17{fill:none;stroke:#2A4B24;stroke-width:5;stroke-linecap:round;stroke-linejoin:round;}
	.st18{fill:none;stroke:#2A4B24;stroke-width:5;stroke-linecap:round;stroke-linejoin:round;stroke-dasharray:32.5624,32.5624;}
	.st19{fill:#DDE78B;stroke:#2A4B24;stroke-width:8;stroke-linecap:round;stroke-linejoin:round;stroke-miterlimit:10;}
	.st20{fill:none;stroke:#C9B9D9;stroke-width:8;stroke-linecap:round;stroke-linejoin:round;stroke-miterlimit:10;}
	.st21{fill:none;stroke:#D76B27;stroke-width:10;stroke-linecap:round;stroke-linejoin:round;stroke-miterlimit:10;}
	.st22{fill:none;stroke:#000000;stroke-width:4;stroke-miterlimit:10;}
	.st23{fill:#DDE78B;stroke:#DDE78B;stroke-width:4;stroke-miterlimit:10;}
	.st24{fill:none;stroke:#D76B27;stroke-miterlimit:10;}
	.st25{fill:none;stroke:#D76B27;stroke-width:7;stroke-linecap:round;stroke-miterlimit:10;}
	.st26{fill:none;stroke:#2A4B24;stroke-width:7;stroke-linecap:round;stroke-linejoin:round;stroke-miterlimit:10;}
	.st27{fill:none;stroke:#C9B9D9;stroke-width:7;stroke-linecap:round;stroke-linejoin:round;stroke-miterlimit:10;}
	.st28{fill:#C9B9D9;stroke:#D76B27;stroke-width:8;stroke-miterlimit:10;}
	.st29{fill:#DDE78B;stroke:#D76B27;stroke-width:5;stroke-miterlimit:10;}
	.st30{fill:#DDE78B;stroke:#2A4B24;stroke-width:8;stroke-miterlimit:10;}
	.st31{fill:#D76C28;}
	.st32{fill:#D76D29;}
	.st33{fill:#D76D2A;}
	.st34{fill:#D86E2B;}
	.st35{fill:#D86F2C;}
	.st36{fill:#D8702D;}
	.st37{fill:#D8702E;}
	.st38{fill:#D8712F;}
	.st39{fill:#D97130;}
	.st40{fill:#D97231;}
	.st41{fill:#D97332;}
	.st42{fill:#D97433;}
	.st43{fill:#D97434;}
	.st44{fill:#D97535;}
	.st45{fill:#DA7536;}
	.st46{fill:#DA7636;}
	.st47{fill:#DA7637;}
	.st48{fill:#DA7738;}
	.st49{fill:#DA7839;}
	.st50{fill:#DA783A;}
	.st51{fill:#DB793B;}
	.st52{fill:#DB793C;}
	.st53{fill:#DB7A3C;}
	.st54{fill:#DB7B3D;}
	.st55{fill:#DB7B3E;}
	.st56{fill:#DB7C3F;}
	.st57{fill:#DB7C40;}
	.st58{fill:#DC7D41;}
	.st59{fill:#DC7E42;}
	.st60{fill:#DC7F43;}
	.st61{fill:#DC7F44;}
	.st62{fill:#DC8045;}
	.st63{fill:#DD8046;}
	.st64{fill:#DD8147;}
	.st65{fill:#DD8248;}
	.st66{fill:#DD8349;}
	.st67{fill:#DD834A;}
	.st68{fill:#DE844B;}
	.st69{fill:#DE844C;}
	.st70{fill:#DE854C;}
	.st71{fill:#DE864D;}
	.st72{fill:#DE864E;}
	.st73{fill:#DE874F;}
	.st74{fill:#DE8750;}
	.st75{fill:#DF8851;}
	.st76{fill:#DF8852;}
	.st77{fill:#DF8952;}
	.st78{fill:#DF8A53;}
	.st79{fill:#DF8A54;}
	.st80{fill:#DF8B55;}
	.st81{fill:#E08B56;}
	.st82{fill:#E08C57;}
	.st83{fill:#E08D58;}
	.st84{fill:#E08E59;}
	.st85{fill:#E08E5A;}
	.st86{fill:#E18F5B;}
	.st87{fill:#E18F5C;}
	.st88{fill:#E1905D;}
	.st89{fill:#E1915E;}
	.st90{fill:#E1925F;}
	.st91{fill:#E19260;}
	.st92{fill:#E29361;}
	.st93{fill:#E29362;}
	.st94{fill:#E29462;}
	.st95{fill:#E29563;}
	.st96{fill:#E29564;}
	.st97{fill:#E29665;}
	.st98{fill:#E39666;}
	.st99{fill:#E39767;}
	.st100{fill:#E39768;}
	.st101{fill:#E39868;}
	.st102{fill:#E39969;}
	.st103{fill:#E3996A;}
	.st104{fill:#E49A6B;}
	.st105{fill:#E49A6C;}
	.st106{fill:#E49B6D;}
	.st107{fill:#E49C6E;}
	.st108{fill:#E49D6F;}
	.st109{fill:#E49D70;}
	.st110{fill:#E59E71;}
	.st111{fill:#E59E72;}
	.st112{fill:#E59F73;}
	.st113{fill:#E5A073;}
	.st114{fill:#E5A074;}
	.st115{fill:#E5A175;}
	.st116{fill:#E6A176;}
	.st117{fill:#E6A277;}
	.st118{fill:#E6A278;}
	.st119{fill:#E6A378;}
	.st120{fill:#E6A479;}
	.st121{fill:#E6A47A;}
	.st122{fill:#E6A57B;}
	.st123{fill:#E7A57C;}
	.st124{fill:#E7A67D;}
	.st125{fill:#E7A67E;}
	.st126{fill:#E7A77E;}
	.st127{fill:#E7A87F;}
	.st128{fill:#E7A880;}
	.st129{fill:#E8A981;}
	.st130{fill:#E8A982;}
	.st131{fill:#E8AA83;}
	.st132{fill:#E8AB83;}
	.st133{fill:#E8AB84;}
	.st134{fill:#E8AC85;}
	.st135{fill:#E9AC86;}
	.st136{fill:#E9AD87;}
	.st137{fill:#E9AD88;}
	.st138{fill:#E9AE89;}
	.st139{fill:#E9AF89;}
	.st140{fill:#E9AF8A;}
	.st141{fill:#E9B08B;}
	.st142{fill:#EAB08C;}
	.st143{fill:#EAB18D;}
	.st144{fill:#EAB18E;}
	.st145{fill:#EAB28E;}
	.st146{fill:#EAB38F;}
	.st147{fill:#EAB390;}
	.st148{fill:#EBB491;}
	.st149{fill:#EBB492;}
	.st150{fill:#EBB593;}
	.st151{fill:#EBB694;}
	.st152{fill:#EBB795;}
	.st153{fill:#ECB796;}
	.st154{fill:#ECB897;}
	.st155{fill:#ECB898;}
	.st156{fill:#ECB999;}
	.st157{fill:#ECBA99;}
	.st158{fill:#ECBA9A;}
	.st159{fill:#ECBB9B;}
	.st160{fill:#EDBB9C;}
	.st161{fill:#EDBC9D;}
	.st162{fill:#EDBC9E;}
	.st163{fill:#EDBD9F;}
	.st164{fill:#EDBE9F;}
	.st165{fill:#EDBEA0;}
	.st166{fill:#EEBFA1;}
	.st167{fill:#EEBFA2;}
	.st168{fill:#EEC0A3;}
	.st169{fill:#EEC1A4;}
	.st170{fill:#EEC2A5;}
	.st171{fill:#EFC2A6;}
	.st172{fill:#EFC3A7;}
	.st173{fill:#EFC3A8;}
	.st174{fill:#EFC4A9;}
	.st175{fill:#EFC5AA;}
	.st176{fill:#EFC6AB;}
	.st177{fill:#F0C6AC;}
	.st178{fill:#F0C7AD;}
	.st179{fill:#F0C7AE;}
	.st180{fill:#F0C8AF;}
	.st181{fill:#F0C9AF;}
	.st182{fill:#F0C9B0;}
	.st183{fill:#F1CAB1;}
	.st184{fill:#F1CAB2;}
	.st185{fill:#F1CBB3;}
	.st186{fill:#F1CCB4;}
	.st187{fill:#F1CCB5;}
	.st188{fill:#F1CDB5;}
	.st189{fill:#F1CDB6;}
	.st190{fill:#F2CEB7;}
	.st191{fill:#F2CEB8;}
	.st192{fill:#F2CFB9;}
	.st193{fill:#F2D0BA;}
	.st194{fill:#F2D1BB;}
	.st195{fill:#F3D1BC;}
	.st196{fill:#F3D2BD;}
	.st197{fill:#F3D2BE;}
	.st198{fill:#F3D3BF;}
	.st199{fill:#F3D4C0;}
	.st200{fill:#F4D5C1;}
	.st201{fill:#F4D5C2;}
	.st202{fill:#F4D6C3;}
	.st203{fill:#F4D6C4;}
	.st204{fill:#F4D7C5;}
	.st205{fill:#F4D8C5;}
	.st206{fill:#F4D8C6;}
	.st207{fill:#F5D9C7;}
	.st208{fill:#F5D9C8;}
	.st209{fill:#F5DAC9;}
	.st210{fill:#F5DBCA;}
	.st211{fill:#F5DBCB;}
	.st212{fill:#F5DCCB;}
	.st213{fill:#F6DCCC;}
	.st214{fill:#F6DDCD;}
	.st215{fill:#F6DDCE;}
	.st216{fill:#F6DECF;}
	.st217{fill:#F6DFD0;}
	.st218{fill:#F7E0D1;}
	.st219{fill:#F7E0D2;}
	.st220{fill:#F7E1D3;}
	.st221{fill:#F7E1D4;}
	.st222{fill:#F7E2D5;}
	.st223{fill:#F7E3D6;}
	.st224{fill:#F8E4D7;}
	.st225{fill:#F8E4D8;}
	.st226{fill:#F8E5D9;}
	.st227{fill:#F8E6DA;}
	.st228{fill:#F8E6DB;}
	.st229{fill:#F8E7DB;}
	.st230{fill:#F9E7DC;}
	.st231{fill:#F9E8DD;}
	.st232{fill:#F9E8DE;}
	.st233{fill:#F9E9DF;}
	.st234{fill:#F9EAE0;}
	.st235{fill:#F9EAE1;}
	.st236{fill:#F9EBE1;}
	.st237{fill:#FAEBE2;}
	.st238{fill:#FAECE3;}
	.st239{fill:#FAECE4;}
	.st240{fill:#FAEDE5;}
	.st241{fill:#FAEEE6;}
	.st242{fill:#FBEFE7;}
	.st243{fill:#FBEFE8;}
	.st244{fill:#FBF0E9;}
	.st245{fill:#FBF1EA;}
	.st246{fill:#FBF1EB;}
	.st247{fill:#FBF2EC;}
	.st248{fill:#FCF2EC;}
	.st249{fill:#FCF3ED;}
	.st250{fill:#FCF3EE;}
	.st251{fill:#FCF4EF;}
	.st252{fill:#FCF5F0;}
	.st253{fill:#FCF5F1;}
	.st254{fill:#FCF6F1;}
	.st255{fill:#FDF6F2;}
	.st256{fill:#FDF7F3;}
	.st257{fill:#FDF7F4;}
	.st258{fill:#FDF8F5;}
	.st259{fill:#FDF9F6;}
	.st260{fill:#FDF9F7;}
	.st261{fill:#FEFAF7;}
	.st262{fill:#FEFAF8;}
	.st263{fill:#FEFBF9;}
	.st264{fill:#FEFCFA;}
	.st265{fill:#FEFCFB;}
	.st266{fill:#FEFDFC;}
	.st267{fill:#FFFDFC;}
	.st268{fill:#FFFEFD;}
	.st269{fill:#FFFEFE;}
	.st270{fill:none;stroke:#FFFFFF;stroke-width:8;stroke-linecap:round;stroke-linejoin:round;stroke-miterlimit:10;}
	.st271{fill:#FFFFFF;stroke:#D76B27;stroke-width:5;stroke-linecap:round;stroke-linejoin:round;stroke-miterlimit:10;}
	.st272{opacity:0.11;fill:#808080;}
	.st273{fill:#C9B9D9;stroke:#D76B27;stroke-width:5;stroke-linecap:round;stroke-linejoin:round;stroke-miterlimit:10;}
	.st274{fill:#FFFFFF;stroke:#D76B27;stroke-width:3;stroke-linecap:round;stroke-linejoin:round;stroke-miterlimit:10;}
	.st275{fill:none;stroke:#C9B9D9;stroke-width:3;stroke-linecap:round;stroke-miterlimit:10;}
	.st276{fill:#DC7E43;}
	.st277{fill:#1A1A1A;}
	.st278{opacity:0.48;fill:#DDE78B;}
	.st279{opacity:0.11;}
	.st280{fill:#808080;}
	.st281{fill:none;stroke:#000000;stroke-width:8;stroke-linecap:round;stroke-miterlimit:10;}
</style>
<g id="Layer_1">
	<g>
		<g>
			<path class="st1" d="M385.02,431.35h-225.6c-2.46,0-4.45-1.99-4.45-4.45s1.99-4.45,4.45-4.45h225.6c2.46,0,4.45,1.99,4.45,4.45
				S387.48,431.35,385.02,431.35z"/>
		</g>
		<g>
			<path class="st1" d="M327.96,496.57H101.58c-2.46,0-4.45-1.99-4.45-4.45c0-2.46,1.99-4.45,4.45-4.45h226.38
				c2.46,0,4.45,1.99,4.45,4.45C332.41,494.58,330.42,496.57,327.96,496.57z"/>
		</g>
		<g>
			<path class="st1" d="M355.13,561.78H204.79c-2.46,0-4.45-1.99-4.45-4.45c0-2.46,1.99-4.45,4.45-4.45h150.34
				c2.46,0,4.45,1.99,4.45,4.45C359.58,559.79,357.59,561.78,355.13,561.78z"/>
		</g>
		<g>
			<path class="st4" d="M730.79,444.75V610.2c0,4.37,3.54,7.9,7.91,7.9h143.83c10.29,0,13.26-7.47,13.91-17.18
				c0.1-1.47,0.15-3,0.16-4.57c0.02-3.88-0.26-10.84-0.88-18.19c-0.61-7.35-1.56-15.1-2.88-20.54c-1.5-6.14-4.18-11.16-7.66-15.33
				c-6.06-7.29-14.49-12-23-15.6c-8.1-3.41-29.99-8.8-39.26-11.02c-2.68-0.64-4.86-2.55-5.86-5.11l-0.09-0.23l-20.04-51.75
				l-3.53-9.12c-2.95-7.61-10.28-12.63-18.44-12.63h-36.24C734.34,436.85,730.79,440.39,730.79,444.75z"/>
		</g>
		<g>
			<path class="st0" d="M380.79,370.55V609.9c0,4.54,3.68,8.21,8.22,8.21h333.58c4.54,0,8.21-3.67,8.21-8.21V370.55
				c0-9.07-7.35-16.43-16.43-16.43H397.22C388.14,354.12,380.79,361.48,380.79,370.55z"/>
		</g>
		<g>
			<g>
				<rect x="521.89" y="416.94" class="st1" width="78.63" height="128.36"/>
			</g>
			<g>
				<path class="st4" d="M553.77,444.87c0,18.15,1.48,36.01,2.66,54.31c2.21-1.03,4.13-1.48,5.9-2.36
					c5.46-2.21,9.74-6.05,12.4-11.07c4.28-8.56,4.87-17.56,2.07-26.71C573.99,450.03,564.84,443.25,553.77,444.87z"/>
			</g>
			<g>
				<path class="st4" d="M642.19,479.91L642.19,479.91c16.03-13.53,7.21-39.71-13.74-40.77h0c-12.05-0.61-21.61-10.39-21.94-22.46v0
					c-0.58-20.97-26.55-30.4-40.45-14.68l0,0c-8,9.04-21.6,10.41-31.24,3.15l0,0c-16.76-12.62-40.32,1.8-36.69,22.47v0
					c2.08,11.89-5.32,23.38-17.01,26.39h0c-20.32,5.24-23.73,32.64-5.31,42.7l0,0c10.59,5.78,14.96,18.74,10.03,29.75l0,0
					c-8.57,19.15,10.73,38.9,30.07,30.77l0,0c11.13-4.68,23.98-0.01,29.51,10.71v0c9.63,18.64,37.11,15.87,42.81-4.32v0
					c3.28-11.61,14.94-18.75,26.78-16.4h0c20.58,4.1,35.54-19.12,23.31-36.17l0,0C631.28,501.26,632.97,487.69,642.19,479.91z
					 M590.45,493.34c-5.79,10.85-14.63,21.47-26.27,26.23c-0.52,0.21-7.3,2.67-7.31,2.48c0,0,0.44,13.14,0.44,13.14
					c0.15,1.77-0.15,3.54-0.15,5.46c0,1.33-0.89,2.21-2.36,2.36c-4.72,0-9.45,0.15-14.17,0.15c-2.8,0.15-3.25-0.59-3.39-3.39
					c-0.15-3.84,0-7.53-0.15-11.36c-0.89-18.74-0.74-37.49-0.59-56.38c0.15-13.13,0.15-26.42,0.3-39.55c0-3.25,0.59-3.84,3.84-4.72
					c20.07-5.47,45.45,2.51,53.87,22.58C600.4,464.37,597.42,480.28,590.45,493.34z"/>
			</g>
		</g>
		<g>
			<path class="st2" d="M731.27,478.53c-0.54,9.55-0.05,19.19,2.39,28.47c6.09,23.19,24.54,42.48,47.06,50.69
				c14.88,5.43,30.98,6.26,46.5,9.44c16.77,3.44,33.01,9.7,47.43,18.92c8.57,5.48,17.08,12.97,18.53,23.04
				c0.27,1.85,0.26,3.82-0.62,5.47c-1.92,3.59-6.8,4.02-10.87,4c-49.88-0.28-99.79-0.56-149.6-3.22
				c0.82-20.42-1.46-40.77-3.66-61.03c-1.08-9.97-2.21-18.65-0.43-28.46c1.64-9.04,1.77-18.36,0.4-27.44
				c-0.75-4.99-2.61-9.77-2.58-14.76c0.04-5.87,1.57-12.18,2.85-17.88c1.12-4.98,2.56-15.85,6.47-18.99
				c1.1,3.49-1.24,9.89-1.85,13.77c-0.79,5.07-1.46,10.15-1.85,15.27C731.38,476.71,731.32,477.62,731.27,478.53z"/>
		</g>
		<g>
			<path class="st0" d="M760.15,467.13v34.68c0,4.72,4.03,8.53,8.99,8.53h47.82l-20.04-51.75h-27.78
				C764.18,458.59,760.15,462.42,760.15,467.13z"/>
		</g>
		<g>
			<path class="st0" d="M874.35,567.4c4.94,6.83,12.94,10.77,21.37,10.77c-0.61-7.35-1.56-15.1-2.88-20.54
				c-1.5-6.14-4.18-11.16-7.66-15.33c-0.45-0.02-12.84-0.59-15.16,7.83C868.84,554.43,870.06,561.46,874.35,567.4z"/>
		</g>
		<g>
			<path class="st3" d="M374.52,370.55V609.9c0,7.99,6.5,14.49,14.49,14.49c14.02,0,28.05,0,42.07,0c32.29,0,64.58,0,96.87,0
				c35.96,0,71.93,0,107.89,0c25.05,0,50.09,0,75.14,0c40.15,0,80.3,0,120.45,0c17.04,0,34.07,0,51.11,0
				c20.16,0,20.29-21.06,20.33-27.99c0.05-7.92-1.09-28.52-3.93-40.25c-1.72-7.08-9.02-17.96-9.21-18.16
				c-7.36-8.67-17.19-13.72-25.12-17.06c-8.25-3.48-28.75-8.6-40.24-11.35c-0.66-0.16-1.21-0.64-1.46-1.28l-23.67-61.09
				c-3.86-9.95-13.62-16.64-24.29-16.64h-36.24c-0.55,0-1.1,0.04-1.64,0.1v-60.12c0-12.52-10.18-22.7-22.7-22.7H397.22
				C384.7,347.85,374.52,358.03,374.52,370.55z M807.82,504.06h-38.67c-1.47,0-2.72-1.03-2.72-2.26v-34.68
				c0-1.22,1.24-2.26,2.72-2.26h23.48L807.82,504.06z M888.52,570.62c-6.16-2.29-10.98-7.88-12.36-14.3
				c-0.79-3.7,0.16-6.47,4.04-7.49c0.57-0.15,1.19-0.23,1.74-0.02c0.71,0.28,1.15,0.97,1.52,1.64
				C886.79,556.57,887.69,563.69,888.52,570.62z M737.07,444.75c0-0.9,0.73-1.64,1.64-1.64h36.24c5.53,0,10.59,3.47,12.59,8.62
				l0.23,0.58h-18.62c-8.42,0-15.26,6.64-15.26,14.8v34.68c0,8.16,6.85,14.8,15.26,14.8h44.26c2.01,2.54,4.82,4.4,8.05,5.17
				c18.63,4.45,32.94,8.45,38.28,10.7c4.68,1.97,8.69,4.09,12.11,6.38c-3.56,1.91-6.59,4.94-7.87,9.6
				c-1.85,6.72,0.22,15.59,5.29,22.6c4.91,6.79,12.35,11.37,20.59,12.85c0.33,5.05,0.48,9.55,0.46,12.4
				c-0.09,15.52-4.18,15.52-7.79,15.52H738.71c-0.9,0-1.64-0.73-1.64-1.64v-0.3V444.75z M387.06,370.55
				c0-5.6,4.55-10.15,10.15-10.15h317.16c5.6,0,10.15,4.55,10.15,10.15V609.9c0,1.07-0.87,1.94-1.94,1.94H389
				c-1.07,0-1.94-0.87-1.94-1.94V370.55z"/>
		</g>
		<g>
			<circle class="st6" cx="821.27" cy="614" r="31.88"/>
		</g>
		<g>
			<path class="st3" d="M783.12,614c0-21.04,17.12-38.15,38.15-38.15c21.04,0,38.15,17.12,38.15,38.15s-17.12,38.15-38.15,38.15
				C800.23,652.15,783.12,635.04,783.12,614z M795.67,614c0,14.12,11.49,25.61,25.61,25.61c14.12,0,25.61-11.49,25.61-25.61
				s-11.49-25.61-25.61-25.61C807.15,588.39,795.67,599.88,795.67,614z"/>
		</g>
		<g>
			<circle class="st6" cx="479.7" cy="614" r="31.88"/>
		</g>
		<g>
			<path class="st3" d="M441.55,614c0-21.04,17.12-38.15,38.15-38.15c21.04,0,38.15,17.12,38.15,38.15s-17.12,38.15-38.15,38.15
				C458.67,652.15,441.55,635.04,441.55,614z M454.1,614c0,14.12,11.49,25.61,25.61,25.61c14.12,0,25.61-11.49,25.61-25.61
				s-11.49-25.61-25.61-25.61C465.59,588.39,454.1,599.88,454.1,614z"/>
		</g>
		<g>
			<path class="st3" d="M490.33,615.92l0.92,1.72c1.7,3.19-1,6.95-4.57,6.36l-1.92-0.32c-1.42-0.23-2.86,0.24-3.86,1.28l-1.35,1.4
				c-2.51,2.6-6.92,1.2-7.46-2.38l-0.29-1.93c-0.21-1.42-1.11-2.64-2.41-3.27l-1.75-0.85c-3.25-1.58-3.28-6.21-0.04-7.83l1.74-0.87
				c1.28-0.64,2.17-1.88,2.37-3.3l0.27-1.93c0.5-3.58,4.89-5.04,7.43-2.46l1.37,1.39c1.01,1.02,2.46,1.48,3.87,1.23l1.92-0.34
				c3.56-0.63,6.3,3.1,4.64,6.31l-0.9,1.73C489.65,613.13,489.66,614.65,490.33,615.92z"/>
		</g>
		<g>
			<path class="st3" d="M832,615.92l0.92,1.72c1.7,3.19-1,6.95-4.57,6.36l-1.92-0.32c-1.42-0.23-2.86,0.24-3.86,1.28l-1.35,1.4
				c-2.51,2.6-6.92,1.2-7.46-2.38l-0.29-1.93c-0.21-1.42-1.11-2.64-2.41-3.27l-1.75-0.85c-3.25-1.58-3.28-6.21-0.04-7.83l1.74-0.87
				c1.28-0.64,2.17-1.88,2.37-3.3l0.27-1.93c0.5-3.58,4.89-5.04,7.43-2.46l1.37,1.39c1.01,1.02,2.46,1.48,3.87,1.23l1.92-0.34
				c3.56-0.63,6.3,3.1,4.64,6.31l-0.9,1.73C831.31,613.13,831.32,614.65,832,615.92z"/>
		</g>
	</g>
</g>
<g id="Layer_2">
</g>
</svg>
