<?xml version="1.0" encoding="utf-8"?>
<!-- Generator: Adobe Illustrator 27.7.0, SVG Export Plug-In . SVG Version: 6.00 Build 0)  -->
<svg version="1.1" id="Layer_1" xmlns="http://www.w3.org/2000/svg" xmlns:xlink="http://www.w3.org/1999/xlink" x="0px" y="0px"
	 viewBox="0 0 1000 1000" style="enable-background:new 0 0 1000 1000;" xml:space="preserve">
<style type="text/css">
	.st0{fill:#DDE78B;}
</style>
<g id="Layer_1_00000068675258462797913550000009731749584065219253_">
	<path class="st0" d="M759.8,531.6L759.8,531.6c-27-24.9-30.2-66.3-7.5-95.1l0,0c39.4-50.1-2.9-122.6-65.9-113l0,0
		c-36.3,5.5-70.7-17.7-79.1-53.4l0,0c-14.6-62.1-97.7-74.2-129.4-18.9l0,0c-18.3,31.8-57.9,44.2-91.1,28.5l0,0
		c-57.6-27.3-118.9,30.1-95.5,89.4c13.5,34.1-1.5,72.9-34.5,89l0,0c-57.3,28-50.6,111.7,10.4,130.4l0,0c35.1,10.7,56,46.6,48.1,82.4
		c-13.8,62.3,55.8,109.3,108.4,73.2l0,0c30.3-20.7,71.4-14.7,94.4,13.8l0,0c40.1,49.6,120.2,24.5,124.8-39.1l0,0
		c2.7-36.6,33-65,69.7-65.2C776.4,653.2,806.7,574.9,759.8,531.6z M492,546c0.4-0.1,0.9-0.3,1.3-0.4c-0.5,0.5-1.1,1-1.6,1.4
		C491.8,546.7,491.9,546.3,492,546z"/>
</g>
<g id="Layer_2_00000003806918424663255350000013081737765030305447_">
</g>
</svg>
